M48
;Layer_Color=9474304
;FILE_FORMAT=2:5
INCH,TZ
;TYPE=PLATED
T1F00S00C0.01181
T4F00S00C0.02800
T5F00S00C0.03150
T6F00S00C0.03543
T7F00S00C0.04000
T9F00S00C0.09843
T10F00S00C0.13000
%
T01
X263780Y149114
X484744Y227362
Y232776
Y238681
Y244587
X484252Y252953
Y256398
X484744Y283957
X485236Y289862
X483268Y295768
X484252Y301673
X483760Y307579
X484252Y311516
X468012Y284941
X439468
Y289862
Y295768
Y301673
X439961Y307579
X411417Y304626
X397638Y303150
Y297736
Y292323
Y288386
Y279528
Y270669
Y265748
X398130Y248031
Y242126
X398622Y231299
X411417Y230807
Y250000
X439961Y250492
Y244587
Y238681
Y232776
X433563Y223917
X439468Y258366
X394193Y221457
X385827Y217520
X376969Y227362
X371555Y237205
X364173Y219980
X355807Y218012
X346457Y203740
X370571Y204724
X404035Y211122
X335630Y222933
X327264Y232283
X321358Y231791
X320374Y218504
X315453Y217520
X307579Y220965
X302658Y222441
X297736Y222933
X290846Y219488
X281004Y219980
X275590Y211122
X296260Y204724
X302165Y185039
X277343Y181595
X281496Y159449
X281496Y238681
Y243110
X280512Y249016
X279528Y254921
Y258858
Y268701
X281004Y284941
X280512Y290354
X280020Y299213
X280512Y303642
X263779Y288878
Y278543
X264272Y272638
X264764Y244094
X296260Y243602
X300197Y243110
X307579Y231791
X310531Y227854
X218012Y242126
X218012Y250492
X197343Y287894
X185039Y290846
X191929Y310531
X264272Y312500
Y316929
X280512Y319882
X281004Y314469
X280020Y331201
X295768Y333169
X291831Y337598
X293799Y351870
X288386Y351378
X299705Y350394
X309547Y336614
X297244Y325295
X313484Y336614
X333169Y337106
X331201Y350886
X325787
X323819Y315945
X316929
X331693
X354823Y336614
X358760Y335630
X362697Y337106
X366634Y336122
X375492Y336614
X380413Y333661
X377953Y316929
X396654Y325787
X390256Y351870
X415846Y370079
X418307Y372539
X415846Y375492
X418307Y378445
X421752Y381398
Y385335
X437992Y372539
X436024Y364173
X448819Y422736
X421752Y423228
X420276Y433071
X435532Y442421
T04
X374016Y141535
X351378Y239173
X301181Y255906
X301673Y302165
X356791Y314961
X342520Y354823
X336614Y358760
X335138Y374016
X329724Y380906
X371555Y442087
X451772Y462598
T05
X291358Y119429
X301358
X311358
Y129429
X301358
X291358
X321358
Y119429
X331358
Y129429
X222441Y374350
Y384350
Y404370
Y414370
X346949Y456693
X356949
X386811Y449311
X396811
T06
X120079Y271949
Y280217
Y290453
Y298721
X129921
Y271949
X130020Y339961
X120177
Y348228
Y358465
Y366732
X130020
X118760Y411752
Y421752
Y431752
Y441752
Y451752
X108760
Y441752
Y431752
Y421752
Y411752
X159783Y427992
X169783
X179783
X189784
Y437992
X179783
X169783
X159783
X250335Y425785
X257406Y418714
X264477Y411643
X271548Y404572
X278619Y397501
X320354Y480315
X330354
X340354
X350354
X360354
X370354
X380354
X310354
X300354
X290354
X280354
X270354
X260354
X250354
X240354
X230354
X220354
X210354
T07
X121063Y170006
Y179022
Y188038
Y197054
Y206069
X131063Y201581
Y192565
Y183550
Y174534
Y165518
X141063Y170006
Y179022
Y188038
Y197054
Y206069
T09
X110236Y110236
X480315
X174213Y355807
X480315Y480315
X110236
T10
X131063Y137802
Y236227
M30
