G04 Layer_Color=16711935*
%FSLAX25Y25*%
%MOIN*%
G70*
G01*
G75*
%ADD85R,0.04724X0.03937*%
%ADD86R,0.03937X0.04724*%
%ADD87R,0.07087X0.07087*%
%ADD88R,0.05118X0.04724*%
%ADD89R,0.04724X0.05118*%
%ADD90R,0.04331X0.04724*%
%ADD94R,0.04724X0.04331*%
%ADD97O,0.04724X0.07480*%
%ADD98C,0.07087*%
%ADD99P,0.10022X4X360.0*%
%ADD100C,0.14961*%
%ADD101R,0.07087X0.07087*%
%ADD102C,0.06496*%
%ADD103R,0.06496X0.06496*%
%ADD104R,0.06496X0.06496*%
%ADD105C,0.08581*%
%ADD106C,0.21181*%
%ADD107R,0.12992X0.07087*%
%ADD108R,0.04724X0.11024*%
%ADD109R,0.07094X0.05123*%
%ADD110R,0.05118X0.07087*%
%ADD111R,0.06695X0.04332*%
%ADD112R,0.07091X0.04333*%
%ADD113R,0.07094X0.07094*%
%ADD114R,0.07090X0.07090*%
%ADD115R,0.08081X0.03941*%
%ADD116R,0.08078X0.03940*%
%ADD117R,0.08073X0.03938*%
%ADD118R,0.08081X0.03941*%
%ADD119R,0.08079X0.03940*%
%ADD120R,0.08077X0.03940*%
%ADD121R,0.08083X0.03942*%
%ADD122R,0.08073X0.03938*%
%ADD123R,0.03937X0.10039*%
%ADD124R,0.12992X0.11024*%
D85*
X339567Y319390D02*
D03*
Y325295D02*
D03*
X176673Y299213D02*
D03*
Y293307D02*
D03*
X147146Y292815D02*
D03*
Y298720D02*
D03*
X329724Y436024D02*
D03*
Y430118D02*
D03*
Y423720D02*
D03*
Y417815D02*
D03*
X160433Y252953D02*
D03*
Y247047D02*
D03*
X189961Y250000D02*
D03*
Y244094D02*
D03*
X316929Y325295D02*
D03*
Y319390D02*
D03*
Y312500D02*
D03*
Y306594D02*
D03*
X331693Y325295D02*
D03*
Y319390D02*
D03*
X323819Y325295D02*
D03*
Y319390D02*
D03*
Y312500D02*
D03*
Y306594D02*
D03*
X331693Y312500D02*
D03*
Y306594D02*
D03*
D86*
X179626Y463583D02*
D03*
X173721D02*
D03*
X175689Y455709D02*
D03*
X169783D02*
D03*
X169783Y449311D02*
D03*
X163878D02*
D03*
X170768Y417323D02*
D03*
X164862D02*
D03*
X182579D02*
D03*
X176673D02*
D03*
X306594Y237205D02*
D03*
X312500D02*
D03*
X320866D02*
D03*
X326772D02*
D03*
X168307Y278051D02*
D03*
X162402D02*
D03*
X177657Y233268D02*
D03*
X171752D02*
D03*
X386811Y389272D02*
D03*
X380906D02*
D03*
X373031D02*
D03*
X367126D02*
D03*
X333169Y157972D02*
D03*
X327264D02*
D03*
X316437D02*
D03*
X322343D02*
D03*
D87*
X118760Y411752D02*
D03*
D88*
X197343Y295276D02*
D03*
X188878Y299016D02*
D03*
Y291535D02*
D03*
X158858Y295965D02*
D03*
X167323Y292224D02*
D03*
Y299705D02*
D03*
X169783Y247539D02*
D03*
X178248Y243799D02*
D03*
Y251280D02*
D03*
D89*
X206004Y242028D02*
D03*
X209744Y250492D02*
D03*
X202264D02*
D03*
D90*
X340846Y468012D02*
D03*
X335335D02*
D03*
X323524Y468012D02*
D03*
X329035D02*
D03*
X438681Y421260D02*
D03*
X444193D02*
D03*
X130118Y467520D02*
D03*
X135630D02*
D03*
X173524Y406496D02*
D03*
X168012D02*
D03*
X318701Y205709D02*
D03*
X313189D02*
D03*
X368307Y316929D02*
D03*
X373819D02*
D03*
X292618Y151575D02*
D03*
X287106D02*
D03*
X361909Y237205D02*
D03*
X367421D02*
D03*
X387008Y467520D02*
D03*
X392520D02*
D03*
X362402Y469488D02*
D03*
X367914D02*
D03*
X377165Y222441D02*
D03*
X382677D02*
D03*
X281693Y226870D02*
D03*
X287205D02*
D03*
X296949Y247539D02*
D03*
X302461D02*
D03*
X289665Y333661D02*
D03*
X284154D02*
D03*
X313681Y222441D02*
D03*
X319193D02*
D03*
X384547Y356791D02*
D03*
X390059D02*
D03*
X354035Y222441D02*
D03*
X359547D02*
D03*
X360532Y330217D02*
D03*
X355020D02*
D03*
X313780Y331693D02*
D03*
X308268D02*
D03*
X284154Y327756D02*
D03*
X289665D02*
D03*
X442717Y218012D02*
D03*
X437205D02*
D03*
X437697Y322835D02*
D03*
X443209D02*
D03*
X294587Y200295D02*
D03*
X289075D02*
D03*
X341240Y197343D02*
D03*
X346752D02*
D03*
X374803Y198819D02*
D03*
X369291D02*
D03*
X325492Y356791D02*
D03*
X331004D02*
D03*
X361417Y356791D02*
D03*
X366929D02*
D03*
X293996Y356791D02*
D03*
X299508D02*
D03*
X297441Y229331D02*
D03*
X302953D02*
D03*
D94*
X445374Y238386D02*
D03*
Y243898D02*
D03*
X445374Y250197D02*
D03*
Y255709D02*
D03*
X445374Y301870D02*
D03*
Y307382D02*
D03*
X461122Y244783D02*
D03*
Y250295D02*
D03*
X467520Y252657D02*
D03*
Y258169D02*
D03*
X461614Y288189D02*
D03*
Y282677D02*
D03*
X467520Y294094D02*
D03*
Y288583D02*
D03*
Y307382D02*
D03*
Y301870D02*
D03*
X413878Y213780D02*
D03*
Y219291D02*
D03*
X390748Y321063D02*
D03*
Y326575D02*
D03*
X391240Y265453D02*
D03*
Y270965D02*
D03*
X393701Y240846D02*
D03*
Y246358D02*
D03*
X406004Y215748D02*
D03*
Y221260D02*
D03*
X416831Y437697D02*
D03*
Y443209D02*
D03*
X304134Y314173D02*
D03*
Y319685D02*
D03*
X445374Y295571D02*
D03*
Y290059D02*
D03*
X467520Y238484D02*
D03*
Y232972D02*
D03*
X416339Y292126D02*
D03*
Y286614D02*
D03*
X285925Y259154D02*
D03*
Y253642D02*
D03*
Y243406D02*
D03*
Y237894D02*
D03*
X286417Y290158D02*
D03*
Y284646D02*
D03*
Y303445D02*
D03*
Y297933D02*
D03*
X286909Y320177D02*
D03*
Y314665D02*
D03*
X391732Y297441D02*
D03*
Y302953D02*
D03*
X257874Y312205D02*
D03*
Y317717D02*
D03*
X415846Y233563D02*
D03*
Y228051D02*
D03*
X257874Y282677D02*
D03*
Y288189D02*
D03*
X258366Y266929D02*
D03*
Y272441D02*
D03*
X258366Y244291D02*
D03*
Y249803D02*
D03*
X416338Y246752D02*
D03*
Y252264D02*
D03*
X416339Y307382D02*
D03*
Y301870D02*
D03*
D97*
X431595Y483268D02*
D03*
X457579D02*
D03*
D98*
X278619Y397501D02*
D03*
X271548Y404572D02*
D03*
X264477Y411643D02*
D03*
X257406Y418714D02*
D03*
X108760Y451752D02*
D03*
X118760D02*
D03*
X108760Y441752D02*
D03*
X118760D02*
D03*
X108760Y431752D02*
D03*
X118760D02*
D03*
X108760Y421752D02*
D03*
X118760D02*
D03*
X108760Y411752D02*
D03*
X189784Y437992D02*
D03*
Y427992D02*
D03*
X179783Y437992D02*
D03*
Y427992D02*
D03*
X169783Y437992D02*
D03*
Y427992D02*
D03*
X159783Y437992D02*
D03*
X331358Y119429D02*
D03*
X321358D02*
D03*
X311358D02*
D03*
X301358D02*
D03*
X291358D02*
D03*
Y129429D02*
D03*
X301358D02*
D03*
X311358D02*
D03*
X321358D02*
D03*
X331358D02*
D03*
X220354Y480315D02*
D03*
X230354D02*
D03*
X240354D02*
D03*
X250354D02*
D03*
X260354D02*
D03*
X270354D02*
D03*
X280354D02*
D03*
X290354D02*
D03*
X300354D02*
D03*
X310354D02*
D03*
X320354D02*
D03*
X330354D02*
D03*
X340354D02*
D03*
X350354D02*
D03*
X360354D02*
D03*
X370354D02*
D03*
X380354D02*
D03*
X130020Y366732D02*
D03*
X120177D02*
D03*
X130020Y339961D02*
D03*
X120177D02*
D03*
Y348228D02*
D03*
Y358465D02*
D03*
X129921Y298721D02*
D03*
X120079D02*
D03*
X129921Y271949D02*
D03*
X120079D02*
D03*
Y280217D02*
D03*
Y290453D02*
D03*
D99*
X250335Y425785D02*
D03*
D100*
X174213Y355807D02*
D03*
X110236Y110236D02*
D03*
Y480315D02*
D03*
X480315D02*
D03*
Y110236D02*
D03*
D101*
X159783Y427992D02*
D03*
X210354Y480315D02*
D03*
D102*
X222441Y404370D02*
D03*
Y384350D02*
D03*
X346949Y456693D02*
D03*
X396811Y449311D02*
D03*
D103*
X222441Y414370D02*
D03*
Y374350D02*
D03*
D104*
X356949Y456693D02*
D03*
X386811Y449311D02*
D03*
D105*
X131063Y174534D02*
D03*
Y183550D02*
D03*
Y192565D02*
D03*
Y201581D02*
D03*
X121063Y170006D02*
D03*
Y179022D02*
D03*
Y188038D02*
D03*
Y197054D02*
D03*
X131063Y165518D02*
D03*
X121063Y206069D02*
D03*
X141063Y170006D02*
D03*
Y179022D02*
D03*
Y188038D02*
D03*
Y197054D02*
D03*
Y206069D02*
D03*
D106*
X131063Y137802D02*
D03*
Y236227D02*
D03*
D107*
X108760Y380906D02*
D03*
Y325787D02*
D03*
X108661Y312894D02*
D03*
Y257776D02*
D03*
D108*
X105217Y353346D02*
D03*
X105118Y285335D02*
D03*
D109*
X487008Y394980D02*
D03*
D110*
X480709Y350905D02*
D03*
D111*
X477362Y396555D02*
D03*
D112*
X474803Y349508D02*
D03*
D113*
X444882Y395275D02*
D03*
D114*
Y350197D02*
D03*
D115*
X444390Y355315D02*
D03*
D116*
Y359646D02*
D03*
D117*
Y363976D02*
D03*
D118*
Y368307D02*
D03*
D119*
Y372638D02*
D03*
D120*
Y376969D02*
D03*
D121*
Y381299D02*
D03*
D122*
Y385630D02*
D03*
D123*
X399311Y426870D02*
D03*
X390256D02*
D03*
X381201D02*
D03*
X355512Y396850D02*
D03*
X346457D02*
D03*
X337402D02*
D03*
X361417Y435236D02*
D03*
X352362D02*
D03*
X343307D02*
D03*
D124*
X390256Y404232D02*
D03*
X346457Y374213D02*
D03*
X352362Y412598D02*
D03*
M02*
