G04 Layer_Color=16711935*
%FSLAX25Y25*%
%MOIN*%
G70*
G01*
G75*
%ADD90C,0.00394*%
D90*
X403150Y335531D02*
X402886Y336516D01*
X402165Y337236D01*
X401181Y337500D01*
X400197Y337236D01*
X399476Y336516D01*
X399213Y335531D01*
X399476Y334547D01*
X400197Y333827D01*
X401181Y333563D01*
X402165Y333827D01*
X402886Y334547D01*
X403150Y335531D01*
X173327Y336516D02*
X173063Y337500D01*
X172343Y338221D01*
X171358Y338484D01*
X170374Y338221D01*
X169653Y337500D01*
X169390Y336516D01*
X169653Y335531D01*
X170374Y334811D01*
X171358Y334547D01*
X172343Y334811D01*
X173063Y335531D01*
X173327Y336516D01*
X237795Y354724D02*
X237531Y355709D01*
X236811Y356429D01*
X235827Y356693D01*
X234842Y356429D01*
X234122Y355709D01*
X233858Y354724D01*
X234122Y353740D01*
X234842Y353020D01*
X235827Y352756D01*
X236811Y353020D01*
X237531Y353740D01*
X237795Y354724D01*
X201378Y320866D02*
X205118D01*
X201378Y327756D02*
X205118D01*
Y320866D02*
Y327756D01*
X201378Y320866D02*
Y327756D01*
X207283Y316437D02*
X211024D01*
X207283Y323327D02*
X211024D01*
Y316437D02*
Y323327D01*
X207283Y316437D02*
Y323327D01*
X342913Y314075D02*
Y317815D01*
X336221Y314075D02*
Y317815D01*
X342913D01*
X336221Y314075D02*
X342913D01*
X330118D02*
Y317815D01*
X323425Y314075D02*
Y317815D01*
X330118D01*
X323425Y314075D02*
X330118D01*
X107382Y349508D02*
X111122D01*
X107382Y356201D02*
X111122D01*
X107382Y349508D02*
Y356201D01*
X111122Y349508D02*
Y356201D01*
X268602Y298819D02*
Y302559D01*
X261910Y298819D02*
Y302559D01*
X268602D01*
X261910Y298819D02*
X268602D01*
X258268Y317520D02*
Y321260D01*
X251575Y317520D02*
Y321260D01*
X258268D01*
X251575Y317520D02*
X258268D01*
X161516Y307677D02*
Y311417D01*
X168209Y307677D02*
Y311417D01*
X161516D02*
X168209D01*
X161516Y307677D02*
X168209D01*
X211713Y296850D02*
Y300590D01*
X218406Y296850D02*
Y300590D01*
X211713D02*
X218406D01*
X211713Y296850D02*
X218406D01*
X201870Y285039D02*
Y288779D01*
X208563Y285039D02*
Y288779D01*
X201870D02*
X208563D01*
X201870Y285039D02*
X208563D01*
X211713Y302756D02*
Y306496D01*
X218406Y302756D02*
Y306496D01*
X211713D02*
X218406D01*
X211713Y302756D02*
X218406D01*
X328248Y238287D02*
X335138D01*
X328248Y242028D02*
X335138D01*
X328248Y238287D02*
Y242028D01*
X335138Y238287D02*
Y242028D01*
X419783Y344587D02*
Y348327D01*
X412894Y344587D02*
Y348327D01*
X419783D01*
X412894Y344587D02*
X419783Y344587D01*
X420276Y240256D02*
Y243996D01*
X413386Y240256D02*
Y243996D01*
X420276D01*
X413386Y240256D02*
X420276D01*
X349508Y307579D02*
X353248D01*
X349508Y300689D02*
X353248D01*
X349508D02*
Y307579D01*
X353248Y300689D02*
Y307579D01*
X320866Y349508D02*
Y353248D01*
X327756Y349508D02*
Y353248D01*
X320866Y349508D02*
X327756D01*
X320866Y353248D02*
X327756D01*
X193898Y247638D02*
Y251378D01*
X187008Y247638D02*
Y251378D01*
X193898D01*
X187008Y247638D02*
X193898D01*
X431693Y451870D02*
X438386D01*
X431693Y455610D02*
X438386D01*
Y451870D02*
Y455610D01*
X431693Y451870D02*
Y455610D01*
X388681Y447835D02*
Y454724D01*
X384941Y447835D02*
Y454724D01*
X388681D01*
X384941Y447835D02*
X388681D01*
X344882Y339075D02*
Y345965D01*
X341142Y339075D02*
Y345965D01*
Y339075D02*
X344882D01*
X341142Y345965D02*
X344882D01*
X180610Y345079D02*
Y348819D01*
X187500Y345079D02*
Y348819D01*
X180610D02*
X187500D01*
X180610Y345079D02*
X187500D01*
X340551Y236811D02*
X347441D01*
X340551Y240551D02*
X347441D01*
X340551Y236811D02*
Y240551D01*
X347441Y236811D02*
Y240551D01*
X150689Y366240D02*
Y369980D01*
X157382Y366240D02*
Y369980D01*
X150689D02*
X157382D01*
X150689Y366240D02*
X157382D01*
X150689Y379528D02*
Y383268D01*
X157382Y379528D02*
Y383268D01*
X150689D02*
X157382D01*
X150689Y379528D02*
X157382D01*
X150098Y216634D02*
X156988D01*
X150098Y220374D02*
X156988D01*
Y216634D02*
Y220374D01*
X150098Y216634D02*
Y220374D01*
X153642Y165453D02*
X160335D01*
X153642Y169193D02*
X160335D01*
Y165453D02*
Y169193D01*
X153642Y165453D02*
Y169193D01*
X121161Y168405D02*
X127854D01*
X121161Y172146D02*
X127854D01*
Y168405D02*
Y172146D01*
X121161Y168405D02*
Y172146D01*
X133465Y172146D02*
X140157D01*
X133465Y168405D02*
X140157D01*
X133465D02*
Y172146D01*
X140157Y168405D02*
Y172146D01*
X148031Y163878D02*
Y170768D01*
X144291Y163878D02*
Y170768D01*
X148031D01*
X144291Y163878D02*
X148031D01*
X148031Y145768D02*
Y152461D01*
X144291Y145768D02*
Y152461D01*
X148031D01*
X144291Y145768D02*
X148031D01*
X428740Y434449D02*
X435433D01*
X428740Y430709D02*
X435433D01*
X428740D02*
Y434449D01*
X435433Y430709D02*
Y434449D01*
X416929Y430709D02*
X423622D01*
X416929Y434449D02*
X423622D01*
Y430709D02*
Y434449D01*
X416929Y430709D02*
Y434449D01*
X447736Y431201D02*
Y437894D01*
X443996Y431201D02*
Y437894D01*
X447736D01*
X443996Y431201D02*
X447736D01*
Y441929D02*
Y448819D01*
X443996Y441929D02*
Y448819D01*
X447736D01*
X443996Y441929D02*
X447736D01*
X247638Y330709D02*
Y337598D01*
X251378Y330709D02*
Y337598D01*
X247638D02*
X251378D01*
X247638Y330709D02*
X251378D01*
X250492Y354232D02*
X257382D01*
X250492Y350492D02*
X257382D01*
Y354232D01*
X250492Y350492D02*
Y354232D01*
X238681D02*
X245571D01*
X238681Y350492D02*
X245571D01*
Y354232D01*
X238681Y350492D02*
Y354232D01*
X274114Y351279D02*
X281004D01*
X274114Y347539D02*
X281004D01*
Y351279D01*
X274114Y347539D02*
Y351279D01*
X303150Y344882D02*
X310039D01*
X303150Y341142D02*
X310039D01*
Y344882D01*
X303150Y341142D02*
Y344882D01*
X313976Y345374D02*
X320866D01*
X313976Y341634D02*
X320866D01*
Y345374D01*
X313976Y341634D02*
Y345374D01*
X331693Y352756D02*
X338583D01*
X331693Y349016D02*
X338583D01*
Y352756D01*
X331693Y349016D02*
Y352756D01*
X344882Y324803D02*
Y331693D01*
X341142Y324803D02*
Y331693D01*
Y324803D02*
X344882D01*
X341142Y331693D02*
X344882D01*
X351772Y318406D02*
Y325295D01*
X348031Y318406D02*
Y325295D01*
Y318406D02*
X351772D01*
X348031Y325295D02*
X351772D01*
X353248Y285925D02*
Y292815D01*
X349508Y285925D02*
Y292815D01*
Y285925D02*
X353248D01*
X349508Y292815D02*
X353248D01*
X351279Y274114D02*
Y281004D01*
X347539Y274114D02*
Y281004D01*
Y274114D02*
X351279D01*
X347539Y281004D02*
X351279D01*
X353248Y251969D02*
Y258858D01*
X349508Y251969D02*
Y258858D01*
Y251969D02*
X353248D01*
X349508Y258858D02*
X353248D01*
X352854Y221358D02*
X359744D01*
X352854Y217618D02*
X359744D01*
X352854D02*
Y221358D01*
X359744Y217618D02*
Y221358D01*
X281988Y236811D02*
X288878D01*
X281988Y240551D02*
X288878D01*
X281988Y236811D02*
Y240551D01*
X288878Y236811D02*
Y240551D01*
X312992Y239272D02*
X319882D01*
X312992Y243012D02*
X319882D01*
X312992Y239272D02*
Y243012D01*
X319882Y239272D02*
Y243012D01*
X262303Y212992D02*
X269193D01*
X262303Y209252D02*
X269193D01*
X262303D02*
Y212992D01*
X269193Y209252D02*
Y212992D01*
X253937Y239272D02*
X260827D01*
X253937Y243012D02*
X260827D01*
X253937Y239272D02*
Y243012D01*
X260827Y239272D02*
Y243012D01*
X243110Y218898D02*
X250000D01*
X243110Y215158D02*
X250000D01*
X243110D02*
Y218898D01*
X250000Y215158D02*
Y218898D01*
X229823D02*
X236713D01*
X229823Y215158D02*
X236713D01*
X229823D02*
Y218898D01*
X236713Y215158D02*
Y218898D01*
X236319Y246063D02*
Y252953D01*
X240059Y246063D02*
Y252953D01*
X236319D02*
X240059D01*
X236319Y246063D02*
X240059D01*
X236811Y270669D02*
Y277559D01*
X240551Y270669D02*
Y277559D01*
X236811D02*
X240551D01*
X236811Y270669D02*
X240551D01*
X247146Y341043D02*
Y347933D01*
X250886Y341043D02*
Y347933D01*
X247146D02*
X250886D01*
X247146Y341043D02*
X250886D01*
X239272Y310531D02*
Y317421D01*
X243012Y310531D02*
Y317421D01*
X239272D02*
X243012D01*
X239272Y310531D02*
X243012D01*
X397638Y251279D02*
Y339075D01*
X437795Y251279D02*
Y339075D01*
X397638D02*
X437795D01*
X397638Y251279D02*
X437795D01*
X377559Y355807D02*
X381299D01*
X377559Y362697D02*
X381299D01*
X377559Y355807D02*
Y362697D01*
X381299Y355807D02*
Y362697D01*
X371161Y357283D02*
X374902D01*
X371161Y350394D02*
X374902D01*
Y357283D01*
X371161Y350394D02*
Y357283D01*
X167815Y320374D02*
X183563D01*
X167815Y340059D02*
X183563D01*
Y320374D02*
Y340059D01*
X167815Y320374D02*
Y340059D01*
X232283Y232283D02*
Y358268D01*
X358268Y232283D02*
Y358268D01*
X232283D02*
X358268D01*
X232283Y232283D02*
X358268D01*
X432087Y462008D02*
X438976D01*
X432087Y458268D02*
X438976D01*
X432087D02*
Y462008D01*
X438976Y458268D02*
Y462008D01*
X166437Y181595D02*
Y188484D01*
X170177Y181595D02*
Y188484D01*
X166437Y181595D02*
X170177D01*
X166437Y188484D02*
X170177D01*
X447933Y294783D02*
X451673D01*
X447933Y301673D02*
X451673D01*
X447933Y294783D02*
Y301673D01*
X451673Y294783D02*
Y301673D01*
X448425Y312992D02*
X452165D01*
X448425Y319882D02*
X452165D01*
X448425Y312992D02*
Y319882D01*
X452165Y312992D02*
Y319882D01*
X407382Y312992D02*
Y319882D01*
X403642Y312992D02*
Y319882D01*
Y312992D02*
X407382D01*
X403642Y319882D02*
X407382D01*
X403642Y302165D02*
X407382D01*
X403642Y295276D02*
X407382D01*
X403642D02*
Y302165D01*
X407382Y295276D02*
Y302165D01*
X237795Y336614D02*
X241535D01*
X237795Y343504D02*
X241535D01*
Y336614D02*
Y343504D01*
X237795Y336614D02*
Y343504D01*
X239272Y321358D02*
X243012D01*
X239272Y328248D02*
X243012D01*
Y321358D02*
Y328248D01*
X239272Y321358D02*
Y328248D01*
X239272Y281496D02*
X243012D01*
X239272Y288386D02*
X243012D01*
Y281496D02*
Y288386D01*
X239272Y281496D02*
Y288386D01*
X239272Y257874D02*
X243012D01*
X239272Y264764D02*
X243012D01*
Y257874D02*
Y264764D01*
X239272Y257874D02*
Y264764D01*
X242126Y239272D02*
Y243012D01*
X249016Y239272D02*
Y243012D01*
X242126Y239272D02*
X249016D01*
X242126Y243012D02*
X249016D01*
X308563Y244193D02*
Y247933D01*
X301673Y244193D02*
Y247933D01*
X308563D01*
X301673Y244193D02*
X308563D01*
X274114Y239272D02*
Y243012D01*
X267224Y239272D02*
Y243012D01*
X274114D01*
X267224Y239272D02*
X274114D01*
X329724Y244193D02*
Y247933D01*
X322835Y244193D02*
Y247933D01*
X329724D01*
X322835Y244193D02*
X329724D01*
X350492Y248031D02*
X354232D01*
X350492Y241142D02*
X354232D01*
X350492D02*
Y248031D01*
X354232Y241142D02*
Y248031D01*
X347539Y270177D02*
X351279D01*
X347539Y263287D02*
X351279D01*
X347539D02*
Y270177D01*
X351279Y263287D02*
Y270177D01*
X350000Y339075D02*
X353740D01*
X350000Y332185D02*
X353740D01*
X350000D02*
Y339075D01*
X353740Y332185D02*
Y339075D01*
X295768Y347539D02*
Y351279D01*
X302658Y347539D02*
Y351279D01*
X295768Y347539D02*
X302658D01*
X295768Y351279D02*
X302658D01*
X284449Y347539D02*
Y351279D01*
X291339Y347539D02*
Y351279D01*
X284449Y347539D02*
X291339D01*
X284449Y351279D02*
X291339D01*
X263779Y347539D02*
Y351279D01*
X270669Y347539D02*
Y351279D01*
X263779Y347539D02*
X270669D01*
X263779Y351279D02*
X270669D01*
X211713Y352165D02*
X215453D01*
X211713Y345276D02*
X215453D01*
Y352165D01*
X211713Y345276D02*
Y352165D01*
X217126Y351378D02*
X220866D01*
X217126Y358268D02*
X220866D01*
X217126Y351378D02*
Y358268D01*
X220866Y351378D02*
Y358268D01*
X210236Y230807D02*
X213976D01*
X210236Y237697D02*
X213976D01*
X210236Y230807D02*
Y237697D01*
X213976Y230807D02*
Y237697D01*
X215650Y231791D02*
X219390D01*
X215650Y224902D02*
X219390D01*
Y231791D01*
X215650Y224902D02*
Y231791D01*
X372146Y221949D02*
X375886D01*
X372146Y228839D02*
X375886D01*
X372146Y221949D02*
Y228839D01*
X375886Y221949D02*
Y228839D01*
X473032Y156595D02*
X476772D01*
X473032Y163287D02*
X476772D01*
X473032Y156595D02*
Y163287D01*
X476772Y156595D02*
Y163287D01*
X479429Y162992D02*
X483169D01*
X479429Y169685D02*
X483169D01*
X479429Y162992D02*
Y169685D01*
X483169Y162992D02*
Y169685D01*
X377559Y223425D02*
X381299D01*
X377559Y216535D02*
X381299D01*
Y223425D01*
X377559Y216535D02*
Y223425D01*
X167913Y292815D02*
X171653D01*
X167913Y299705D02*
X171653D01*
X167913Y292815D02*
Y299705D01*
X171653Y292815D02*
Y299705D01*
X178543Y290650D02*
Y300886D01*
X191535Y290650D02*
Y300886D01*
X178543D02*
X191535D01*
X178543Y290650D02*
X191535D01*
X162992Y271654D02*
X166732D01*
X162992Y264764D02*
X166732D01*
Y271654D01*
X162992Y264764D02*
Y271654D01*
X470079Y387894D02*
Y391634D01*
X476772Y387894D02*
Y391634D01*
X470079D02*
X476772D01*
X470079Y387894D02*
X476772D01*
X474508Y380020D02*
Y383760D01*
X481201Y380020D02*
Y383760D01*
X474508D02*
X481201D01*
X474508Y380020D02*
X481201D01*
X201181Y335728D02*
Y339469D01*
X194488Y335728D02*
Y339469D01*
X201181D01*
X194488Y335728D02*
X201181D01*
X342913Y303740D02*
Y307480D01*
X336221Y303740D02*
Y307480D01*
X342913D01*
X336221Y303740D02*
X342913D01*
X151673Y339961D02*
X155413D01*
X151673Y333268D02*
X155413D01*
X151673D02*
Y339961D01*
X155413Y333268D02*
Y339961D01*
X257874Y342913D02*
X264764D01*
X257874Y339173D02*
X264764D01*
Y342913D01*
X257874Y339173D02*
Y342913D01*
X342913Y308661D02*
Y312402D01*
X336221Y308661D02*
Y312402D01*
X342913D01*
X336221Y308661D02*
X342913D01*
X330118D02*
Y312402D01*
X323425Y308661D02*
Y312402D01*
X330118D01*
X323425Y308661D02*
X330118D01*
Y303740D02*
Y307480D01*
X323425Y303740D02*
Y307480D01*
X330118D01*
X323425Y303740D02*
X330118D01*
X106398Y329724D02*
X110138D01*
X106398Y336614D02*
X110138D01*
X106398Y329724D02*
Y336614D01*
X110138Y329724D02*
Y336614D01*
X154134Y306102D02*
X157874D01*
X154134Y312992D02*
X157874D01*
Y306102D02*
Y312992D01*
X154134Y306102D02*
Y312992D01*
M02*
