M48
;Layer_Color=9474304
;FILE_FORMAT=2:5
INCH,TZ
;TYPE=PLATED
T1F00S00C0.01181
T2F00S00C0.02800
T3F00S00C0.03150
T4F00S00C0.03543
T5F00S00C0.03937
T7F00S00C0.11811
%
T01
X313484Y245079
X318898Y244587
X323327Y250000
X329232
X328740Y236713
X334646
X341535Y242618
X346949
X355807Y242126
X355315Y247047
X346949Y252461
Y258366
X345472Y263779
Y269685
Y274606
Y280512
X346949Y286417
Y292815
X347441Y301181
X347933Y307087
X341043Y300197
X333169Y305610
Y310531
X400098Y311024
X400787Y301476
X400591Y295276
X389764Y253937
X369587Y226870
X358760Y223425
X448819Y307579
X308071Y250000
X302165
X287894Y242618
X282480
X273130Y245079
X267717Y245571
X260335
X254429
X248524Y245079
X242126Y246555
Y252461
X245571Y259350
Y264272
X242618Y271161
Y277067
X245079Y282480
Y287894
X248031Y296260
X246555Y299705
X242126Y300197
X235728Y306102
X244587Y311516
X221949Y284449
X220965Y281496
X218012Y278543
X220472Y275590
Y272146
X189961Y268701
X186024
Y276575
X182087Y272638
Y264764
X170276Y262795
X187992Y254921
X192913Y254429
X241634Y237205
X245079Y221949
X230315
X262795Y236713
X160925Y218504
X157972Y207185
X162402Y289862
X153051Y302658
X154035Y268701
X144685Y328248
X153543Y343504
X151575Y387795
X103347Y313976
X173228Y337598
X187205Y341732
X192913Y332677
X191929Y322342
X198100Y321585
X219980Y325295
X218996Y334154
X222441Y340551
X236713Y337598
X235728Y329724
X244096Y328251
X244587Y322342
Y316929
X248524Y319882
X254921Y327264
X253445Y330709
Y336122
X258366Y337106
X264272Y337598
X274606Y331693
Y317913
Y345965
X280512
X285433Y344980
X290354
X296998Y353839
X302165
X309547Y346949
X303642Y339567
X268209Y354823
X264272
X249016Y355315
X244587Y355807
X239665
X228839Y356791
X243602Y343012
X253445Y343504
Y347441
X200291Y368114
X321358Y347933
X327264Y347441
X333661Y354331
X336614Y355807
X346949Y344488
Y340059
X355315Y338090
Y332677
X353592Y324557
X353839Y318898
X339567Y325295
Y331201
X329724Y321850
X333169Y315945
X319882Y339567
X314469
X361614Y358366
X395472Y344783
X401575Y329724
X401083Y320374
X439468Y341043
X397638Y458661
X386319
X225886Y502461
T02
X361713Y192421
X371063Y193898
X377953Y192421
X383858Y228346
X427658Y203740
X213090Y197835
X184055Y210630
X178150Y178642
X269685Y323327
X217028Y388287
X384350Y350886
X453248Y351870
X447835Y365650
X217520Y502461
T03
X415354Y148130
X478839Y264272
X459154Y264272
X414862Y205217
X414862Y185531
X415354Y167815
X138445Y247559
Y257559
Y267559
Y277559
Y287559
X128445
Y277559
Y267559
Y257559
Y247559
X128779Y303327
X138779
Y313327
Y323327
Y333327
Y343327
X128779
Y333327
Y323327
Y313327
X412894Y478839
X432579Y478839
T04
X200354Y108602
Y118602
X210354
Y108602
X220354
Y118602
X230354
Y108602
X240354
Y118602
X250354
Y108602
X260354
Y118602
X270354
Y108602
X280354
Y118602
X290354
Y108602
X300354
Y118602
X310354
Y108602
X320354
Y118602
X330354
Y108602
X340354
Y118602
X350354
Y108602
X360354
Y118602
X370354
Y108602
X380354
Y118602
X390354
Y108602
X474902Y204409
Y214409
Y224410
Y234409
X464902
Y224410
Y214409
Y204409
X390197Y471791
X380197
X370197
X360197
X350197
X340197
X330197
X320197
Y481791
X330197
X340197
X350197
X360197
X370197
X380197
X390197
X310197
X300197
X290197
X280197
X270197
X260197
X250197
X240197
X230197
X220197
X210197
X200197
Y471791
X210197
X220197
X230197
X240197
X250197
X260197
X270197
X280197
X290197
X300197
X310197
T05
X478346Y410768
Y420768
Y430768
T07
X112205Y109744
X480807Y110728
X112697Y472933
M30
