G04 Layer_Physical_Order=2*
G04 Layer_Color=16711680*
%FSLAX25Y25*%
%MOIN*%
G70*
G01*
G75*
%ADD10R,0.03543X0.02756*%
%ADD11R,0.02756X0.03543*%
%ADD13R,0.03543X0.03150*%
%ADD14R,0.03150X0.03543*%
%ADD15R,0.05905X0.05905*%
%ADD22R,0.03543X0.03150*%
%ADD33C,0.01181*%
%ADD34C,0.00787*%
%ADD35C,0.01968*%
%ADD36C,0.03937*%
%ADD37R,0.05905X0.15748*%
%ADD38R,0.05905X0.13780*%
%ADD39R,0.13780X0.05905*%
%ADD40C,0.05315*%
%ADD41R,0.05315X0.05315*%
%ADD42C,0.07874*%
%ADD43C,0.05905*%
%ADD44R,0.05905X0.05905*%
%ADD45R,0.05315X0.05315*%
%ADD46C,0.15748*%
%ADD47C,0.02362*%
%ADD48C,0.05000*%
D10*
X153543Y339567D02*
D03*
Y333661D02*
D03*
D11*
X342520Y315945D02*
D03*
X336614D02*
D03*
X329724D02*
D03*
X323819D02*
D03*
X268209Y300689D02*
D03*
X262303D02*
D03*
X257874Y319390D02*
D03*
X251969D02*
D03*
X200787Y337598D02*
D03*
X194882D02*
D03*
X342520Y305610D02*
D03*
X336614D02*
D03*
X342520Y310531D02*
D03*
X336614D02*
D03*
X329724D02*
D03*
X323819D02*
D03*
X329724Y305610D02*
D03*
X323819D02*
D03*
D13*
X203248Y321555D02*
D03*
Y327067D02*
D03*
X209154Y317126D02*
D03*
Y322638D02*
D03*
X351378Y306890D02*
D03*
Y301378D02*
D03*
X343012Y339764D02*
D03*
Y345276D02*
D03*
X249508Y336910D02*
D03*
Y331398D02*
D03*
X343012Y325492D02*
D03*
Y331004D02*
D03*
X349902Y319094D02*
D03*
Y324606D02*
D03*
X351378Y286614D02*
D03*
Y292126D02*
D03*
X349409Y274803D02*
D03*
Y280315D02*
D03*
X351378Y252658D02*
D03*
Y258169D02*
D03*
X238189Y252264D02*
D03*
Y246752D02*
D03*
X238681Y276870D02*
D03*
Y271358D02*
D03*
X249016Y347244D02*
D03*
Y341732D02*
D03*
X241142Y316732D02*
D03*
Y311221D02*
D03*
X405512Y313681D02*
D03*
Y319193D02*
D03*
Y301476D02*
D03*
Y295965D02*
D03*
X239665Y337303D02*
D03*
Y342815D02*
D03*
X241142Y322047D02*
D03*
Y327559D02*
D03*
X241142Y282185D02*
D03*
Y287697D02*
D03*
X241142Y258563D02*
D03*
Y264075D02*
D03*
X352362Y247342D02*
D03*
Y241831D02*
D03*
X349409Y269488D02*
D03*
Y263976D02*
D03*
X351870Y338386D02*
D03*
Y332874D02*
D03*
X156004Y306791D02*
D03*
Y312303D02*
D03*
D14*
X328937Y240158D02*
D03*
X334449D02*
D03*
X419095Y346457D02*
D03*
X413583D02*
D03*
X419587Y242126D02*
D03*
X414075D02*
D03*
X321555Y351378D02*
D03*
X327067D02*
D03*
X193209Y249508D02*
D03*
X187697D02*
D03*
X341240Y238681D02*
D03*
X346752D02*
D03*
X256693Y352362D02*
D03*
X251181D02*
D03*
X244882D02*
D03*
X239370D02*
D03*
X280315Y349409D02*
D03*
X274803D02*
D03*
X309350Y343012D02*
D03*
X303839D02*
D03*
X320177Y343504D02*
D03*
X314665D02*
D03*
X337894Y350886D02*
D03*
X332382D02*
D03*
X282677Y238681D02*
D03*
X288189D02*
D03*
X313681Y241142D02*
D03*
X319193D02*
D03*
X254626D02*
D03*
X260138D02*
D03*
X242815Y241142D02*
D03*
X248327D02*
D03*
X307874Y246063D02*
D03*
X302362D02*
D03*
X273425Y241142D02*
D03*
X267913D02*
D03*
X329035Y246063D02*
D03*
X323524D02*
D03*
X296457Y349409D02*
D03*
X301969D02*
D03*
X285138D02*
D03*
X290650D02*
D03*
X264469D02*
D03*
X269980D02*
D03*
X264075Y341043D02*
D03*
X258563D02*
D03*
D15*
X200197Y471791D02*
D03*
X200354Y108602D02*
D03*
D22*
X115650Y307087D02*
D03*
X107776Y310827D02*
D03*
Y303346D02*
D03*
D33*
X342028Y306594D02*
X343012Y305610D01*
X342028Y306594D02*
Y315945D01*
X231791Y287894D02*
X245079D01*
X329724Y310531D02*
X336614D01*
X244882Y351772D02*
X249213Y347441D01*
X329724Y305610D02*
X336614D01*
X138779Y333327D02*
X157146D01*
X154213Y303327D02*
X167815Y316929D01*
X180118D02*
X211614D01*
X448819Y307579D02*
X451279Y310039D01*
X459154D01*
X239370Y337598D02*
X239665Y337303D01*
X235728Y341240D02*
X239370Y337598D01*
X245079Y287894D02*
X255413D01*
X268209Y300689D01*
X210197Y446417D02*
Y471791D01*
X151575Y387795D02*
X210197Y446417D01*
X228346Y284449D02*
X231791Y287894D01*
X228346Y268701D02*
Y284449D01*
Y268701D02*
X232776Y264272D01*
X401575Y346457D02*
X413583D01*
X397146D02*
X401575D01*
Y329724D02*
Y346457D01*
X414075Y305118D02*
Y345965D01*
X413583Y346457D02*
X414075Y345965D01*
X405512Y313681D02*
X414075Y305118D01*
Y287402D02*
Y305118D01*
X405512Y295965D02*
X414075Y287402D01*
Y242126D02*
Y287402D01*
X395472Y344783D02*
X397146Y346457D01*
X243602Y343012D02*
X244096Y342518D01*
Y328251D02*
Y342518D01*
X236713Y337598D02*
X239370D01*
X127978Y277559D02*
X128445D01*
X127461D02*
X127978D01*
X230315Y221949D02*
X245079D01*
X254429Y241339D02*
X254626Y241142D01*
X254429Y241339D02*
Y245571D01*
X404823Y295276D02*
X405512Y295965D01*
X400591Y295276D02*
X404823D01*
X400098Y311024D02*
Y311516D01*
X402264Y313681D01*
X405512D01*
X426673Y365650D02*
X447835D01*
X413583Y352559D02*
X426673Y365650D01*
X413583Y346457D02*
Y352559D01*
X228839Y356791D02*
X231791Y359744D01*
X241142D01*
X244587Y356299D01*
Y355807D02*
Y356299D01*
X371063Y193898D02*
Y211122D01*
X358760Y223425D02*
X371063Y211122D01*
X358760Y223425D02*
X362205Y226870D01*
X369587D01*
X185039Y236221D02*
X193209Y244390D01*
X139784Y236221D02*
X185039D01*
X128445Y247559D02*
X139784Y236221D01*
X193209Y244390D02*
Y249508D01*
X128760Y303346D02*
X128779Y303327D01*
X107776Y303346D02*
X128760D01*
X434055Y346457D02*
X439468Y341043D01*
X419095Y346457D02*
X434055D01*
X400787Y301476D02*
X405512D01*
X401083Y320374D02*
X402264Y319193D01*
X405512D01*
X426181Y205217D02*
X427658Y203740D01*
X459154Y257382D02*
Y264272D01*
X443898Y242126D02*
X459154Y257382D01*
X419587Y242126D02*
X443898D01*
X234547Y322047D02*
X241142D01*
X226870Y329724D02*
X234547Y322047D01*
X216535Y329724D02*
X226870D01*
X213878Y327067D02*
X216535Y329724D01*
X203248Y327067D02*
X213878D01*
X203248D02*
X207677Y322638D01*
X209154D01*
X144685Y328248D02*
X156004Y316929D01*
Y312303D02*
Y316929D01*
X254429Y245571D02*
Y254921D01*
X251969Y252461D02*
X253937Y254429D01*
X254626Y236319D02*
Y241142D01*
Y231496D02*
Y236319D01*
X255020Y236713D01*
X262795D01*
X244882Y351772D02*
Y352362D01*
X264272Y337598D02*
X268701D01*
X274606Y331693D01*
X346260Y319094D02*
X349902D01*
X343012Y322342D02*
X346260Y319094D01*
X343012Y322342D02*
Y325492D01*
X329724Y335138D02*
Y336614D01*
Y335138D02*
X339567Y325295D01*
X332874Y339764D02*
X337894Y344783D01*
X329724Y336614D02*
X332874Y339764D01*
X343012D01*
X337894Y344783D02*
Y350886D01*
X322835Y336614D02*
X329724D01*
X319882Y339567D02*
X322835Y336614D01*
X319882Y339469D02*
Y339567D01*
X313091Y332677D02*
X319882Y339469D01*
X309350Y336417D02*
X313091Y332677D01*
X309350Y336417D02*
Y343012D01*
X305118Y332185D02*
X309350Y336417D01*
X288386Y332185D02*
X305118D01*
X280512Y340059D02*
X288386Y332185D01*
X280512Y340059D02*
Y345965D01*
X341535Y286417D02*
X346949D01*
X339567Y284449D02*
X341535Y286417D01*
X339567Y274606D02*
Y284449D01*
Y274606D02*
X345472D01*
X325787Y260827D02*
X339567Y274606D01*
X333858Y252756D02*
X334154Y252461D01*
X346949D01*
X333858Y245079D02*
Y252756D01*
X325787Y260827D02*
X333858Y252756D01*
X313484Y260827D02*
X325787D01*
X339075Y245079D02*
X341535Y242618D01*
X333858Y245079D02*
X339075D01*
X328937Y240158D02*
X333858Y245079D01*
X313484D02*
Y260827D01*
X306102Y268209D02*
X313484Y260827D01*
X282480Y242618D02*
Y268209D01*
X275590Y341043D02*
X280512Y345965D01*
X264075Y341043D02*
X275590D01*
X259154Y345965D02*
X264075Y341043D01*
X254921Y345965D02*
X259154D01*
X253445Y347441D02*
X254921Y345965D01*
X241142Y327559D02*
X241833Y328251D01*
X244096D01*
X278051Y326772D02*
X304626Y300197D01*
X248524Y319882D02*
X251476D01*
X244587Y316929D02*
X246063D01*
X241339D02*
X244587D01*
X254831Y334736D02*
X259348D01*
X253445Y336122D02*
X254831Y334736D01*
X259348D02*
X259749Y335138D01*
X261811D02*
X264272Y337598D01*
X259749Y335138D02*
X261811D01*
X245079Y221949D02*
X254626Y231496D01*
X242618Y277067D02*
X269685D01*
X273130Y273622D01*
X242126Y252461D02*
X251969D01*
X235728Y341240D02*
Y346457D01*
X239370Y350098D01*
Y352362D01*
X318898Y241437D02*
X319193Y241142D01*
X318898Y241437D02*
Y244587D01*
X313484Y241339D02*
X313681Y241142D01*
X313484Y241339D02*
Y245079D01*
X333169Y315945D02*
X333169Y315945D01*
X336122D01*
X325295Y321850D02*
X329724D01*
X323819Y320374D02*
X325295Y321850D01*
X323819Y315945D02*
Y320374D01*
Y310531D02*
Y315945D01*
Y305610D02*
Y310531D01*
X329724Y315945D02*
X329724Y315945D01*
X333169D01*
X290354Y349114D02*
X290650Y349409D01*
X290354Y344980D02*
Y349114D01*
X285138Y349409D02*
X285433Y349114D01*
Y344980D02*
Y349114D01*
X320177Y339862D02*
Y343504D01*
X319882Y339567D02*
X320177Y339862D01*
X314469Y343307D02*
X314665Y343504D01*
X314469Y339567D02*
Y343307D01*
X309350Y343012D02*
X309547Y343209D01*
Y346949D01*
X301969Y349409D02*
X302165Y349606D01*
Y353839D01*
X296457Y349409D02*
X296998Y349951D01*
Y353839D01*
X303642Y342815D02*
X303839Y343012D01*
X303642Y339567D02*
Y342815D01*
X160098Y287559D02*
X162402Y289862D01*
X138445Y287559D02*
X160098D01*
X137303Y295768D02*
X164862D01*
X171260Y302165D01*
X207677D01*
X209154Y303642D01*
X248031D01*
X250984Y300689D01*
Y298228D02*
Y300689D01*
X249016Y296260D02*
X250984Y298228D01*
X248031Y296260D02*
X249016D01*
X168307Y285925D02*
X191929D01*
X203248Y297244D01*
X244094D01*
X246555Y299705D01*
X138445Y267559D02*
X146004D01*
X166831Y288386D01*
X189961D01*
X201772Y300197D01*
X242126D01*
X170153Y306102D02*
X235728D01*
X163755Y299705D02*
X170153Y306102D01*
X148130Y299705D02*
X163755D01*
X146653Y301181D02*
X148130Y299705D01*
X167815Y316929D02*
Y336614D01*
X261811Y301181D02*
X262303Y300689D01*
X261811Y301181D02*
Y303150D01*
X235728Y306102D02*
X258858D01*
X146653Y301181D02*
Y315453D01*
X138779Y323327D02*
X146653Y315453D01*
X304626Y300197D02*
X341043D01*
X258858Y306102D02*
X261811Y303150D01*
X133858Y299213D02*
X137303Y295768D01*
X133858Y299213D02*
Y318248D01*
X128779Y323327D02*
X133858Y318248D01*
X251476Y319882D02*
X251969Y319390D01*
X167815Y336614D02*
X173228Y342028D01*
X176181Y339075D01*
Y327264D02*
Y339075D01*
Y327264D02*
X181102Y322342D01*
X191929D01*
X173228Y323819D02*
Y337598D01*
Y323819D02*
X180118Y316929D01*
X191929Y322342D02*
X203740Y334154D01*
X260138Y241142D02*
X260335Y241339D01*
Y245571D01*
X248327Y241142D02*
X248524Y241339D01*
Y245079D01*
X241634Y237205D02*
X242815Y238386D01*
Y241142D01*
X235236Y476831D02*
X240197Y481791D01*
X235236Y462598D02*
Y476831D01*
X200291Y427653D02*
X235236Y462598D01*
X200291Y368114D02*
Y427653D01*
X321358Y351181D02*
X321555Y351378D01*
X321358Y347933D02*
Y351181D01*
X327067Y351378D02*
X327264Y351181D01*
Y347441D02*
Y351181D01*
X192913Y249803D02*
X193209Y249508D01*
X192913Y249803D02*
Y254429D01*
X187697Y249508D02*
X187992Y249803D01*
Y254921D01*
X186024Y276575D02*
X203740D01*
X211614Y284449D01*
X221949D01*
X213583Y281496D02*
X220965D01*
X206291Y274205D02*
X213583Y281496D01*
X183653Y274205D02*
X206291D01*
X182087Y272638D02*
X183653Y274205D01*
X211122Y271654D02*
X218012Y278543D01*
X188976Y271654D02*
X211122D01*
X186024Y268701D02*
X188976Y271654D01*
X213583Y268701D02*
X220472Y275590D01*
X189961Y268701D02*
X213583D01*
X188572Y264764D02*
X189557Y263779D01*
X182087Y264764D02*
X188572D01*
X212106Y263779D02*
X220472Y272146D01*
X189557Y263779D02*
X212106D01*
X336614Y352165D02*
X337894Y350886D01*
X336614Y352165D02*
Y355807D01*
X332382Y350886D02*
X333661Y352165D01*
Y354331D01*
X241142Y316732D02*
X241339Y316929D01*
X241142Y311221D02*
X241437Y311516D01*
X244587D01*
X241142Y322047D02*
X241437Y322342D01*
X249508Y330413D02*
X249803Y330709D01*
X253445D01*
X239665Y342815D02*
X239862Y343012D01*
X243602D01*
X249213Y347441D02*
X253445D01*
X251673Y341732D02*
X253445Y343504D01*
X249016Y341732D02*
X251673D01*
X241142Y282185D02*
X241437Y282480D01*
X245079D01*
X238681Y271358D02*
X238878Y271161D01*
X242618D01*
X238681Y276870D02*
X238878Y277067D01*
X242618D01*
X241142Y258563D02*
X241929Y259350D01*
X245571D01*
X241339Y264272D02*
X245571D01*
X238189Y246752D02*
X238386Y246555D01*
X242126D01*
X238189Y252264D02*
X238386Y252461D01*
X242126D01*
X154035Y268701D02*
Y271654D01*
X168307Y285925D01*
X200787Y336122D02*
Y337598D01*
X115650Y307087D02*
X122539D01*
X128779Y313327D01*
X103347Y311024D02*
Y313976D01*
Y311024D02*
X103543Y310827D01*
X239665Y352658D02*
Y355807D01*
X239370Y352362D02*
X239665Y352658D01*
X244587Y352658D02*
Y355807D01*
Y352658D02*
X244882Y352362D01*
X249016Y354528D02*
X251181Y352362D01*
X249016Y354528D02*
Y355315D01*
X347441Y301181D02*
X351181D01*
X351378Y301378D01*
X343012Y305610D02*
X346457D01*
X347933Y307087D01*
X348130Y306890D02*
X351378D01*
X347933Y307087D02*
X348130Y306890D01*
X147146Y339567D02*
X153543D01*
X145669Y338090D02*
X147146Y339567D01*
X133543Y338090D02*
X145669D01*
X128779Y333327D02*
X133543Y338090D01*
X249508Y335925D02*
X249705Y336122D01*
X253445D01*
X264075Y337795D02*
Y341043D01*
Y337795D02*
X264272Y337598D01*
X258366Y337106D02*
Y340846D01*
X258563Y341043D01*
X264272Y349606D02*
Y354823D01*
Y349606D02*
X264469Y349409D01*
X269980D02*
Y352067D01*
X268209Y353839D02*
X269980Y352067D01*
X268209Y353839D02*
Y354823D01*
X274606Y345965D02*
Y349213D01*
X274803Y349409D01*
X280512Y345965D02*
Y349213D01*
X280315Y349409D02*
X280512Y349213D01*
X253445Y347441D02*
X256890Y350886D01*
Y352165D01*
X273130Y241437D02*
Y245079D01*
Y241437D02*
X273425Y241142D01*
X282480Y238878D02*
Y242618D01*
Y238878D02*
X282677Y238681D01*
X287894Y238976D02*
Y242618D01*
Y238976D02*
X288189Y238681D01*
X302165Y246260D02*
Y250000D01*
Y246260D02*
X302362Y246063D01*
X308071Y246260D02*
Y250000D01*
X307874Y246063D02*
X308071Y246260D01*
X328740Y236713D02*
Y239961D01*
X328937Y240158D01*
X334646Y236713D02*
Y239961D01*
X334449Y240158D02*
X334646Y239961D01*
X323327Y246260D02*
Y250000D01*
X329232Y246260D02*
Y250000D01*
X329035Y246063D02*
X329232Y246260D01*
X341535Y238976D02*
Y242618D01*
X341240Y238681D02*
X341535Y238976D01*
X346949Y238878D02*
Y242618D01*
X346752Y238681D02*
X346949Y238878D01*
X352658Y242126D02*
X355807D01*
X352362Y241831D02*
X352658Y242126D01*
X352658Y247047D02*
X355315D01*
X352362Y247342D02*
X352658Y247047D01*
X346949Y252461D02*
X351181D01*
X351378Y252658D01*
X346949Y258366D02*
X351181D01*
X351378Y258169D01*
X345472Y269685D02*
X349213D01*
X349409Y269488D01*
X345472Y274606D02*
X349213D01*
X349409Y274803D01*
X345472Y280512D02*
X349213D01*
X349409Y280315D01*
X346949Y286417D02*
X351181D01*
X351378Y286614D01*
X346949Y292815D02*
X350689D01*
X351378Y292126D01*
X350098Y318898D02*
X353839D01*
X349902Y319094D02*
X350098Y318898D01*
X349951Y324557D02*
X353592D01*
X349902Y324606D02*
X349951Y324557D01*
X339567Y325295D02*
X342815D01*
X343012Y325492D01*
X339567Y331201D02*
X342815D01*
X343012Y331004D01*
X352067Y332677D02*
X355315D01*
X351870Y332874D02*
X352067Y332677D01*
X352165Y338090D02*
X355315D01*
X351870Y338386D02*
X352165Y338090D01*
X343307Y340059D02*
X346949D01*
X343012Y339764D02*
X343307Y340059D01*
X343799Y344488D02*
X346949D01*
X343012Y345276D02*
X343799Y344488D01*
X358858Y358366D02*
X361614D01*
X351378Y350886D02*
X358858Y358366D01*
X337894Y350886D02*
X351378D01*
X174705Y249508D02*
X187697D01*
X170276Y253937D02*
X174705Y249508D01*
X170276Y253937D02*
Y262795D01*
X218504Y210630D02*
X218996Y210138D01*
X211614Y316929D02*
X219980Y325295D01*
X198130Y321555D02*
X203248D01*
X203740Y334154D02*
X218996D01*
X187205Y341732D02*
X190748D01*
X194882Y337598D01*
X197343Y332677D02*
X200787Y336122D01*
X192913Y332677D02*
X197343D01*
X157146Y333327D02*
X168307Y344488D01*
X213090D01*
X223917Y333661D01*
X230807D01*
X241437Y322342D02*
X244587D01*
X246063Y316929D02*
X248031Y314961D01*
X274606D01*
D34*
X254921Y326878D02*
X277945D01*
X233760Y331693D02*
X235728Y329724D01*
X232776Y331693D02*
X233760D01*
X230807Y333661D02*
X232776Y331693D01*
X277945Y326878D02*
X278051Y326772D01*
D35*
X475394Y433720D02*
Y486024D01*
X459449D02*
X475394D01*
X267717Y227854D02*
Y245571D01*
X232776Y264272D02*
X241339D01*
X323327Y228346D02*
Y246260D01*
X345472Y263779D02*
X359252D01*
X265748Y319390D02*
X269685Y323327D01*
X257874Y319390D02*
X265748D01*
X354085Y235482D02*
X355807Y237205D01*
X346949Y228346D02*
X354085Y235482D01*
X377953Y192421D02*
Y229823D01*
X372293Y235482D02*
X377953Y229823D01*
X354085Y235482D02*
X372293D01*
X323327Y228346D02*
X346949D01*
X312992D02*
X323327D01*
X302362Y238976D02*
X312992Y228346D01*
X355807Y237205D02*
Y242126D01*
X302362Y238976D02*
Y246063D01*
X305118Y218504D02*
X331201Y192421D01*
X294291Y229331D02*
X305118Y218504D01*
X331201Y192421D02*
X361713D01*
X103347Y302191D02*
X127978Y277559D01*
X103347Y302191D02*
Y311024D01*
X153543Y339567D02*
X153543Y339567D01*
Y343504D01*
X220965Y231791D02*
X244587D01*
X215059D02*
X220965D01*
Y219980D02*
Y231791D01*
Y219980D02*
X226870Y214075D01*
X253937D01*
X267717Y227854D01*
X212106Y234744D02*
X228839Y251476D01*
X199803Y222441D02*
X212106Y234744D01*
X215059Y231791D01*
X244587D02*
X248327Y235531D01*
Y241142D01*
X228839Y260335D02*
X232776Y264272D01*
X228839Y251476D02*
Y260335D01*
X168799Y222441D02*
X199803D01*
X189469Y129488D02*
X200354Y118602D01*
X168799Y150157D02*
X189469Y129488D01*
X379468D02*
X390354Y118602D01*
X189469Y129488D02*
X379468D01*
X442421Y341043D02*
X453248Y351870D01*
X439468Y341043D02*
X442421D01*
X469980Y247539D02*
Y422402D01*
Y239331D02*
Y247539D01*
X438976Y183563D02*
Y227854D01*
X458661Y247539D01*
X469980D01*
X178150Y178642D02*
X207677Y149114D01*
X157972Y215551D02*
X160925Y218504D01*
X157972Y207185D02*
Y215551D01*
X218996Y210138D02*
X231791Y197343D01*
X283957D01*
X305118Y218504D01*
X274606Y276083D02*
X298228D01*
X274606D02*
Y314961D01*
Y275098D02*
Y276083D01*
X273130Y273622D02*
X274606Y275098D01*
X254429Y254921D02*
X273130Y273622D01*
X253937Y254429D02*
X254429Y254921D01*
X294291Y268209D02*
X306102D01*
X282480D02*
X294291D01*
X298228Y276083D02*
X306102Y268209D01*
X294291D02*
X294291Y268209D01*
Y229331D02*
Y268209D01*
X375000Y177165D02*
X383858Y186024D01*
X233760Y177165D02*
X375000D01*
X213090Y197835D02*
X233760Y177165D01*
X384350Y350886D02*
Y366634D01*
X362697Y388287D02*
X384350Y366634D01*
X217028Y388287D02*
X362697D01*
X383858Y228346D02*
X384350Y228839D01*
Y350886D01*
X383858Y186024D02*
X414370D01*
X383858D02*
Y228346D01*
X414370Y186024D02*
X414862Y185531D01*
X118602Y323150D02*
X128779Y333327D01*
X118602Y315453D02*
Y323150D01*
X113976Y310827D02*
X118602Y315453D01*
X107776Y310827D02*
X113976D01*
X103543D02*
X107776D01*
X184055Y210630D02*
X218504D01*
X207677Y149114D02*
X365158D01*
X395972Y179929D01*
X435343D01*
X438976Y183563D01*
X474902Y201279D02*
Y204409D01*
X441437Y167815D02*
X474902Y201279D01*
X415354Y167815D02*
X441437D01*
X198100Y321585D02*
X198130Y321555D01*
X469980Y239331D02*
X474902Y234409D01*
X469980Y422402D02*
X478346Y430768D01*
X475394Y433720D02*
X478346Y430768D01*
X452264Y478839D02*
X459449Y486024D01*
X432579Y478839D02*
X452264D01*
X386319Y458661D02*
X397638D01*
X116142Y266240D02*
X127461Y277559D01*
X116142Y239665D02*
Y266240D01*
Y239665D02*
X126969Y228839D01*
X162402D01*
X168799Y222441D01*
Y150157D02*
Y222441D01*
X390354Y108602D02*
Y118602D01*
X412894D01*
X484252Y189961D01*
Y215059D01*
X474902Y224410D02*
X484252Y215059D01*
X474902Y224410D02*
X481299Y230807D01*
Y261811D01*
X478839Y264272D02*
X481299Y261811D01*
X478839Y264272D02*
Y398622D01*
X485728Y405512D01*
Y413386D01*
X478346Y420768D02*
X485728Y413386D01*
X401575Y242126D02*
X414075D01*
X389764Y253937D02*
X401575Y242126D01*
X355807Y242126D02*
X361713Y248031D01*
Y261319D01*
X359252Y263779D02*
X361713Y261319D01*
Y302165D01*
X351378Y301378D02*
X360925D01*
X361713Y302165D01*
Y332677D01*
X355315D02*
X361713D01*
Y347441D01*
X367126Y352854D01*
Y361221D01*
X360728Y367618D02*
X367126Y361221D01*
X333661Y367618D02*
X360728D01*
X327067Y361024D02*
X333661Y367618D01*
X327067Y351378D02*
Y361024D01*
X290650Y359055D02*
X299213Y367618D01*
X290650Y349409D02*
Y359055D01*
X302165Y353839D02*
Y367618D01*
X299213Y367618D02*
X333661D01*
X268701D02*
X299213D01*
X268701Y355315D02*
Y367618D01*
X268209Y354823D02*
X268701Y355315D01*
X226378Y367618D02*
X268701D01*
X223425Y364665D02*
X226378Y367618D01*
X223425Y341535D02*
Y364665D01*
X222441Y340551D02*
X223425Y341535D01*
X274606Y314961D02*
Y317913D01*
D36*
X459154Y310039D02*
Y345965D01*
Y264272D02*
Y310039D01*
X453248Y351870D02*
X459154Y345965D01*
X200197Y471791D02*
Y481791D01*
X414862Y205217D02*
X426181D01*
D37*
X463705Y467520D02*
D03*
D38*
X487205D02*
D03*
D39*
X475516Y486024D02*
D03*
D40*
X412894Y478839D02*
D03*
X459154Y264272D02*
D03*
X414862Y205217D02*
D03*
X415354Y148130D02*
D03*
D41*
X432579Y478839D02*
D03*
X478839Y264272D02*
D03*
D42*
X478346Y410768D02*
D03*
Y420768D02*
D03*
Y430768D02*
D03*
D43*
X138445Y287559D02*
D03*
Y277559D02*
D03*
Y267559D02*
D03*
Y257559D02*
D03*
Y247559D02*
D03*
X128445D02*
D03*
Y257559D02*
D03*
Y267559D02*
D03*
Y277559D02*
D03*
Y287559D02*
D03*
X138779Y343327D02*
D03*
Y333327D02*
D03*
Y323327D02*
D03*
Y313327D02*
D03*
Y303327D02*
D03*
X128779D02*
D03*
Y313327D02*
D03*
Y323327D02*
D03*
Y333327D02*
D03*
Y343327D02*
D03*
X464902Y234409D02*
D03*
X474902D02*
D03*
X464902Y224410D02*
D03*
X474902D02*
D03*
X464902Y214409D02*
D03*
X474902D02*
D03*
X464902Y204409D02*
D03*
X200197Y481791D02*
D03*
X210197Y471791D02*
D03*
Y481791D02*
D03*
X220197Y471791D02*
D03*
Y481791D02*
D03*
X230197Y471791D02*
D03*
Y481791D02*
D03*
X240197Y471791D02*
D03*
Y481791D02*
D03*
X250197Y471791D02*
D03*
Y481791D02*
D03*
X260197Y471791D02*
D03*
Y481791D02*
D03*
X270197Y471791D02*
D03*
Y481791D02*
D03*
X280197Y471791D02*
D03*
Y481791D02*
D03*
X290197Y471791D02*
D03*
Y481791D02*
D03*
X300197Y471791D02*
D03*
Y481791D02*
D03*
X310197Y471791D02*
D03*
Y481791D02*
D03*
X320197Y471791D02*
D03*
Y481791D02*
D03*
X330197Y471791D02*
D03*
Y481791D02*
D03*
X340197Y471791D02*
D03*
Y481791D02*
D03*
X350197Y471791D02*
D03*
Y481791D02*
D03*
X360197Y471791D02*
D03*
Y481791D02*
D03*
X370197Y471791D02*
D03*
Y481791D02*
D03*
X380197Y471791D02*
D03*
Y481791D02*
D03*
X390197Y471791D02*
D03*
Y481791D02*
D03*
X200354Y118602D02*
D03*
X210354Y108602D02*
D03*
Y118602D02*
D03*
X220354Y108602D02*
D03*
Y118602D02*
D03*
X230354Y108602D02*
D03*
Y118602D02*
D03*
X240354Y108602D02*
D03*
Y118602D02*
D03*
X250354Y108602D02*
D03*
Y118602D02*
D03*
X260354Y108602D02*
D03*
Y118602D02*
D03*
X270354Y108602D02*
D03*
Y118602D02*
D03*
X280354Y108602D02*
D03*
Y118602D02*
D03*
X290354Y108602D02*
D03*
Y118602D02*
D03*
X300354Y108602D02*
D03*
Y118602D02*
D03*
X310354Y108602D02*
D03*
Y118602D02*
D03*
X320354Y108602D02*
D03*
Y118602D02*
D03*
X330354Y108602D02*
D03*
Y118602D02*
D03*
X340354Y108602D02*
D03*
Y118602D02*
D03*
X350354Y108602D02*
D03*
Y118602D02*
D03*
X360354Y108602D02*
D03*
Y118602D02*
D03*
X370354Y108602D02*
D03*
Y118602D02*
D03*
X380354Y108602D02*
D03*
Y118602D02*
D03*
X390354Y108602D02*
D03*
Y118602D02*
D03*
D44*
X474902Y204409D02*
D03*
D45*
X414862Y185531D02*
D03*
X415354Y167815D02*
D03*
D46*
X112205Y109744D02*
D03*
X480807Y110728D02*
D03*
X112697Y472933D02*
D03*
D47*
X448819Y307579D02*
D03*
X401575Y329724D02*
D03*
X395472Y344783D02*
D03*
X236713Y337598D02*
D03*
X254921Y327264D02*
D03*
X235728Y329724D02*
D03*
X230315Y221949D02*
D03*
X153543Y343504D02*
D03*
X400591Y295276D02*
D03*
X400098Y311024D02*
D03*
X228839Y356791D02*
D03*
X369587Y226870D02*
D03*
X358760Y223425D02*
D03*
X439468Y341043D02*
D03*
X400787Y301476D02*
D03*
X401083Y320374D02*
D03*
X144685Y328248D02*
D03*
X160925Y218504D02*
D03*
X157972Y207185D02*
D03*
X262795Y236713D02*
D03*
X274606Y331693D02*
D03*
X244096Y328251D02*
D03*
X248524Y319882D02*
D03*
X244587Y316929D02*
D03*
X245079Y221949D02*
D03*
X313484Y245079D02*
D03*
X318898Y244587D02*
D03*
X290354Y344980D02*
D03*
X285433D02*
D03*
X309547Y346949D02*
D03*
X296998Y353839D02*
D03*
X302165D02*
D03*
X303642Y339567D02*
D03*
X319882D02*
D03*
X314469D02*
D03*
X162402Y289862D02*
D03*
X153051Y302658D02*
D03*
X341043Y300197D02*
D03*
X235728Y306102D02*
D03*
X246555Y299705D02*
D03*
X248031Y296260D02*
D03*
X242126Y300197D02*
D03*
X173228Y337598D02*
D03*
X191929Y322342D02*
D03*
X219980Y325295D02*
D03*
X254429Y245571D02*
D03*
X260335D02*
D03*
X248524Y245079D02*
D03*
X241634Y237205D02*
D03*
X151575Y387795D02*
D03*
X200291Y368114D02*
D03*
X321358Y347933D02*
D03*
X327264Y347441D02*
D03*
X192913Y254429D02*
D03*
X187992Y254921D02*
D03*
X220965Y281496D02*
D03*
X218012Y278543D02*
D03*
X221949Y284449D02*
D03*
X220472Y275590D02*
D03*
Y272146D02*
D03*
X182087Y272638D02*
D03*
X189961Y268701D02*
D03*
X186024D02*
D03*
Y276575D02*
D03*
X182087Y264764D02*
D03*
X333661Y354331D02*
D03*
X336614Y355807D02*
D03*
X244587Y311516D02*
D03*
X253445Y330709D02*
D03*
X243602Y343012D02*
D03*
X253445Y343504D02*
D03*
Y347441D02*
D03*
X245079Y287894D02*
D03*
Y282480D02*
D03*
X242618Y277067D02*
D03*
Y271161D02*
D03*
X245571Y259350D02*
D03*
Y264272D02*
D03*
X242126Y246555D02*
D03*
Y252461D02*
D03*
X225886Y502461D02*
D03*
X154035Y268701D02*
D03*
X103347Y313976D02*
D03*
X244587Y355807D02*
D03*
X239665D02*
D03*
X249016Y355315D02*
D03*
X347441Y301181D02*
D03*
X347933Y307087D02*
D03*
X333169Y305610D02*
D03*
X329724Y321850D02*
D03*
X333169Y310531D02*
D03*
X253445Y336122D02*
D03*
X264272Y337598D02*
D03*
X258366Y337106D02*
D03*
X264272Y354823D02*
D03*
X268209D02*
D03*
X274606Y345965D02*
D03*
X280512D02*
D03*
X267717Y245571D02*
D03*
X273130Y245079D02*
D03*
X287894Y242618D02*
D03*
X282480D02*
D03*
X308071Y250000D02*
D03*
X302165D02*
D03*
X328740Y236713D02*
D03*
X334646D02*
D03*
X329232Y250000D02*
D03*
X323327D02*
D03*
X346949Y242618D02*
D03*
X341535D02*
D03*
X355807Y242126D02*
D03*
X355315Y247047D02*
D03*
X346949Y252461D02*
D03*
Y258366D02*
D03*
X345472Y263779D02*
D03*
Y269685D02*
D03*
Y274606D02*
D03*
Y280512D02*
D03*
X346949Y292815D02*
D03*
Y286417D02*
D03*
X353592Y324557D02*
D03*
X353839Y318898D02*
D03*
X339567Y331201D02*
D03*
Y325295D02*
D03*
X355315Y332677D02*
D03*
Y338090D02*
D03*
X346949Y344488D02*
D03*
Y340059D02*
D03*
X333169Y315945D02*
D03*
X361614Y358366D02*
D03*
X170276Y262795D02*
D03*
X198100Y321585D02*
D03*
X397638Y458661D02*
D03*
X386319D02*
D03*
X389764Y253937D02*
D03*
X218996Y334154D02*
D03*
X187205Y341732D02*
D03*
X192913Y332677D02*
D03*
X222441Y340551D02*
D03*
X274606Y317913D02*
D03*
X244587Y322342D02*
D03*
D48*
X269685Y323327D02*
D03*
X377953Y192421D02*
D03*
X447835Y365650D02*
D03*
X371063Y193898D02*
D03*
X453248Y351870D02*
D03*
X427658Y203740D02*
D03*
X178150Y178642D02*
D03*
X213090Y197835D02*
D03*
X361713Y192421D02*
D03*
X217028Y388287D02*
D03*
X384350Y350886D02*
D03*
X383858Y228346D02*
D03*
X217520Y502461D02*
D03*
X184055Y210630D02*
D03*
M02*
