G04 Layer_Color=16711935*
%FSLAX25Y25*%
%MOIN*%
G70*
G01*
G75*
%ADD42C,0.07874*%
%ADD57R,0.07559X0.06772*%
%ADD58R,0.06772X0.07559*%
%ADD60R,0.07559X0.07165*%
%ADD61R,0.07165X0.07559*%
%ADD62R,0.09921X0.09921*%
%ADD69R,0.07559X0.07165*%
%ADD80R,0.09921X0.19764*%
%ADD81R,0.09921X0.17795*%
%ADD82R,0.17795X0.09921*%
%ADD83C,0.09331*%
%ADD84R,0.09331X0.09331*%
%ADD85C,0.09921*%
%ADD86R,0.09921X0.09921*%
%ADD87R,0.09331X0.09331*%
%ADD88C,0.19764*%
%ADD89C,0.09016*%
D42*
X478346Y410768D02*
D03*
Y420768D02*
D03*
Y430768D02*
D03*
D57*
X153543Y339567D02*
D03*
Y333661D02*
D03*
D58*
X342520Y315945D02*
D03*
X336614D02*
D03*
X329724D02*
D03*
X323819D02*
D03*
X268209Y300689D02*
D03*
X262303D02*
D03*
X257874Y319390D02*
D03*
X251969D02*
D03*
X200787Y337598D02*
D03*
X194882D02*
D03*
X342520Y305610D02*
D03*
X336614D02*
D03*
X342520Y310531D02*
D03*
X336614D02*
D03*
X329724D02*
D03*
X323819D02*
D03*
X329724Y305610D02*
D03*
X323819D02*
D03*
D60*
X203248Y321555D02*
D03*
Y327067D02*
D03*
X209154Y317126D02*
D03*
Y322638D02*
D03*
X351378Y306890D02*
D03*
Y301378D02*
D03*
X343012Y339764D02*
D03*
Y345276D02*
D03*
X249508Y336910D02*
D03*
Y331398D02*
D03*
X343012Y325492D02*
D03*
Y331004D02*
D03*
X349902Y319094D02*
D03*
Y324606D02*
D03*
X351378Y286614D02*
D03*
Y292126D02*
D03*
X349409Y274803D02*
D03*
Y280315D02*
D03*
X351378Y252658D02*
D03*
Y258169D02*
D03*
X238189Y252264D02*
D03*
Y246752D02*
D03*
X238681Y276870D02*
D03*
Y271358D02*
D03*
X249016Y347244D02*
D03*
Y341732D02*
D03*
X241142Y316732D02*
D03*
Y311221D02*
D03*
X405512Y313681D02*
D03*
Y319193D02*
D03*
Y301476D02*
D03*
Y295965D02*
D03*
X239665Y337303D02*
D03*
Y342815D02*
D03*
X241142Y322047D02*
D03*
Y327559D02*
D03*
X241142Y282185D02*
D03*
Y287697D02*
D03*
X241142Y258563D02*
D03*
Y264075D02*
D03*
X352362Y247342D02*
D03*
Y241831D02*
D03*
X349409Y269488D02*
D03*
Y263976D02*
D03*
X351870Y338386D02*
D03*
Y332874D02*
D03*
X156004Y306791D02*
D03*
Y312303D02*
D03*
D61*
X328937Y240158D02*
D03*
X334449D02*
D03*
X419095Y346457D02*
D03*
X413583D02*
D03*
X419587Y242126D02*
D03*
X414075D02*
D03*
X321555Y351378D02*
D03*
X327067D02*
D03*
X193209Y249508D02*
D03*
X187697D02*
D03*
X341240Y238681D02*
D03*
X346752D02*
D03*
X256693Y352362D02*
D03*
X251181D02*
D03*
X244882D02*
D03*
X239370D02*
D03*
X280315Y349409D02*
D03*
X274803D02*
D03*
X309350Y343012D02*
D03*
X303839D02*
D03*
X320177Y343504D02*
D03*
X314665D02*
D03*
X337894Y350886D02*
D03*
X332382D02*
D03*
X282677Y238681D02*
D03*
X288189D02*
D03*
X313681Y241142D02*
D03*
X319193D02*
D03*
X254626D02*
D03*
X260138D02*
D03*
X242815Y241142D02*
D03*
X248327D02*
D03*
X307874Y246063D02*
D03*
X302362D02*
D03*
X273425Y241142D02*
D03*
X267913D02*
D03*
X329035Y246063D02*
D03*
X323524D02*
D03*
X296457Y349409D02*
D03*
X301969D02*
D03*
X285138D02*
D03*
X290650D02*
D03*
X264469D02*
D03*
X269980D02*
D03*
X264075Y341043D02*
D03*
X258563D02*
D03*
D62*
X200197Y471791D02*
D03*
X200354Y108602D02*
D03*
D69*
X115650Y307087D02*
D03*
X107776Y310827D02*
D03*
Y303346D02*
D03*
D80*
X463705Y467520D02*
D03*
D81*
X487205D02*
D03*
D82*
X475516Y486024D02*
D03*
D83*
X412894Y478839D02*
D03*
X459154Y264272D02*
D03*
X414862Y205217D02*
D03*
X415354Y148130D02*
D03*
D84*
X432579Y478839D02*
D03*
X478839Y264272D02*
D03*
D85*
X138445Y287559D02*
D03*
Y277559D02*
D03*
Y267559D02*
D03*
Y257559D02*
D03*
Y247559D02*
D03*
X128445D02*
D03*
Y257559D02*
D03*
Y267559D02*
D03*
Y277559D02*
D03*
Y287559D02*
D03*
X138779Y343327D02*
D03*
Y333327D02*
D03*
Y323327D02*
D03*
Y313327D02*
D03*
Y303327D02*
D03*
X128779D02*
D03*
Y313327D02*
D03*
Y323327D02*
D03*
Y333327D02*
D03*
Y343327D02*
D03*
X464902Y234409D02*
D03*
X474902D02*
D03*
X464902Y224410D02*
D03*
X474902D02*
D03*
X464902Y214409D02*
D03*
X474902D02*
D03*
X464902Y204409D02*
D03*
X200197Y481791D02*
D03*
X210197Y471791D02*
D03*
Y481791D02*
D03*
X220197Y471791D02*
D03*
Y481791D02*
D03*
X230197Y471791D02*
D03*
Y481791D02*
D03*
X240197Y471791D02*
D03*
Y481791D02*
D03*
X250197Y471791D02*
D03*
Y481791D02*
D03*
X260197Y471791D02*
D03*
Y481791D02*
D03*
X270197Y471791D02*
D03*
Y481791D02*
D03*
X280197Y471791D02*
D03*
Y481791D02*
D03*
X290197Y471791D02*
D03*
Y481791D02*
D03*
X300197Y471791D02*
D03*
Y481791D02*
D03*
X310197Y471791D02*
D03*
Y481791D02*
D03*
X320197Y471791D02*
D03*
Y481791D02*
D03*
X330197Y471791D02*
D03*
Y481791D02*
D03*
X340197Y471791D02*
D03*
Y481791D02*
D03*
X350197Y471791D02*
D03*
Y481791D02*
D03*
X360197Y471791D02*
D03*
Y481791D02*
D03*
X370197Y471791D02*
D03*
Y481791D02*
D03*
X380197Y471791D02*
D03*
Y481791D02*
D03*
X390197Y471791D02*
D03*
Y481791D02*
D03*
X200354Y118602D02*
D03*
X210354Y108602D02*
D03*
Y118602D02*
D03*
X220354Y108602D02*
D03*
Y118602D02*
D03*
X230354Y108602D02*
D03*
Y118602D02*
D03*
X240354Y108602D02*
D03*
Y118602D02*
D03*
X250354Y108602D02*
D03*
Y118602D02*
D03*
X260354Y108602D02*
D03*
Y118602D02*
D03*
X270354Y108602D02*
D03*
Y118602D02*
D03*
X280354Y108602D02*
D03*
Y118602D02*
D03*
X290354Y108602D02*
D03*
Y118602D02*
D03*
X300354Y108602D02*
D03*
Y118602D02*
D03*
X310354Y108602D02*
D03*
Y118602D02*
D03*
X320354Y108602D02*
D03*
Y118602D02*
D03*
X330354Y108602D02*
D03*
Y118602D02*
D03*
X340354Y108602D02*
D03*
Y118602D02*
D03*
X350354Y108602D02*
D03*
Y118602D02*
D03*
X360354Y108602D02*
D03*
Y118602D02*
D03*
X370354Y108602D02*
D03*
Y118602D02*
D03*
X380354Y108602D02*
D03*
Y118602D02*
D03*
X390354Y108602D02*
D03*
Y118602D02*
D03*
D86*
X474902Y204409D02*
D03*
D87*
X414862Y185531D02*
D03*
X415354Y167815D02*
D03*
D88*
X112205Y109744D02*
D03*
X480807Y110728D02*
D03*
X112697Y472933D02*
D03*
D89*
X269685Y323327D02*
D03*
X377953Y192421D02*
D03*
X447835Y365650D02*
D03*
X371063Y193898D02*
D03*
X453248Y351870D02*
D03*
X427658Y203740D02*
D03*
X178150Y178642D02*
D03*
X213090Y197835D02*
D03*
X361713Y192421D02*
D03*
X217028Y388287D02*
D03*
X384350Y350886D02*
D03*
X383858Y228346D02*
D03*
X217520Y502461D02*
D03*
X184055Y210630D02*
D03*
M02*
