G04 Layer_Color=32896*
%FSLAX25Y25*%
%MOIN*%
G70*
G01*
G75*
%ADD34C,0.00787*%
%ADD51C,0.01000*%
%ADD53C,0.01000*%
D34*
X338779Y317323D02*
X340354D01*
X338779Y314567D02*
X340354D01*
X325984Y317323D02*
X327559D01*
X325984Y314567D02*
X327559D01*
X264469Y302067D02*
X266043D01*
X264469Y299311D02*
X266043D01*
X254134Y320768D02*
X255709D01*
X254134Y318012D02*
X255709D01*
X197047Y338976D02*
X198622D01*
X197047Y336221D02*
X198622D01*
X338779Y306988D02*
X340354D01*
X338779Y304232D02*
X340354D01*
X152165Y335827D02*
Y337402D01*
X154921Y335827D02*
Y337402D01*
X338779Y311910D02*
X340354D01*
X338779Y309154D02*
X340354D01*
X325984Y311910D02*
X327559D01*
X325984Y309154D02*
X327559D01*
X325984Y306988D02*
X327559D01*
X325984Y304232D02*
X327559D01*
D51*
X110925Y302953D02*
D03*
D53*
X109153Y305512D02*
Y308661D01*
X114665Y301378D02*
Y304921D01*
X109153Y301378D02*
X114665D01*
Y309252D02*
Y312992D01*
X109153D02*
X114665D01*
X194820Y327341D02*
X195820Y328341D01*
X197819D01*
X198819Y327341D01*
Y323342D01*
X197819Y322342D01*
X195820D01*
X194820Y323342D01*
X192821Y322342D02*
X190822D01*
X191821D01*
Y328341D01*
X192821Y327341D01*
X187822D02*
X186823Y328341D01*
X184823D01*
X183824Y327341D01*
Y326341D01*
X184823Y325342D01*
X183824Y324342D01*
Y323342D01*
X184823Y322342D01*
X186823D01*
X187822Y323342D01*
Y324342D01*
X186823Y325342D01*
X187822Y326341D01*
Y327341D01*
X186823Y325342D02*
X184823D01*
X216966Y333246D02*
X217966Y334246D01*
X219965D01*
X220965Y333246D01*
Y329248D01*
X219965Y328248D01*
X217966D01*
X216966Y329248D01*
X214967Y328248D02*
X212967D01*
X213967D01*
Y334246D01*
X214967Y333246D01*
X205969Y334246D02*
X207969Y333246D01*
X209968Y331247D01*
Y329248D01*
X208968Y328248D01*
X206969D01*
X205969Y329248D01*
Y330247D01*
X206969Y331247D01*
X209968D01*
X428211Y343919D02*
X427212Y342919D01*
X425212D01*
X424213Y343919D01*
Y347918D01*
X425212Y348917D01*
X427212D01*
X428211Y347918D01*
X434209Y348917D02*
X430211D01*
X434209Y344919D01*
Y343919D01*
X433210Y342919D01*
X431210D01*
X430211Y343919D01*
X440207Y348917D02*
X436209D01*
X440207Y344919D01*
Y343919D01*
X439208Y342919D01*
X437208D01*
X436209Y343919D01*
X154929Y344579D02*
Y350577D01*
X151930D01*
X150930Y349577D01*
Y347578D01*
X151930Y346578D01*
X154929D01*
X152930D02*
X150930Y344579D01*
X144932D02*
X148931D01*
X144932Y348577D01*
Y349577D01*
X145932Y350577D01*
X147931D01*
X148931Y349577D01*
X142933Y350577D02*
X138934D01*
Y349577D01*
X142933Y345578D01*
Y344579D01*
X258800Y324800D02*
Y330798D01*
X255801D01*
X254801Y329798D01*
Y327799D01*
X255801Y326799D01*
X258800D01*
X256801D02*
X254801Y324800D01*
X248803D02*
X252802D01*
X248803Y328799D01*
Y329798D01*
X249803Y330798D01*
X251802D01*
X252802Y329798D01*
X242805Y330798D02*
X244805Y329798D01*
X246804Y327799D01*
Y325800D01*
X245804Y324800D01*
X243805D01*
X242805Y325800D01*
Y326799D01*
X243805Y327799D01*
X246804D01*
X269171Y306092D02*
Y312090D01*
X266172D01*
X265172Y311090D01*
Y309091D01*
X266172Y308091D01*
X269171D01*
X267172D02*
X265172Y306092D01*
X259174D02*
X263173D01*
X259174Y310091D01*
Y311090D01*
X260174Y312090D01*
X262173D01*
X263173Y311090D01*
X253176Y312090D02*
X257175D01*
Y309091D01*
X255175Y310091D01*
X254176D01*
X253176Y309091D01*
Y307092D01*
X254176Y306092D01*
X256175D01*
X257175Y307092D01*
X201708Y342969D02*
Y348967D01*
X198709D01*
X197709Y347967D01*
Y345968D01*
X198709Y344968D01*
X201708D01*
X199708D02*
X197709Y342969D01*
X195710D02*
X193710D01*
X194710D01*
Y348967D01*
X195710Y347967D01*
X187712Y342969D02*
Y348967D01*
X190711Y345968D01*
X186713D01*
X153350Y322485D02*
X154350Y323485D01*
X156349D01*
X157349Y322485D01*
Y318487D01*
X156349Y317487D01*
X154350D01*
X153350Y318487D01*
X151351Y317487D02*
X149351D01*
X150351D01*
Y323485D01*
X151351Y322485D01*
X146352Y323485D02*
X142353D01*
Y322485D01*
X146352Y318487D01*
Y317487D01*
X182148Y254844D02*
X181149Y253844D01*
X179149D01*
X178150Y254844D01*
Y258843D01*
X179149Y259842D01*
X181149D01*
X182148Y258843D01*
X184148Y259842D02*
X186147D01*
X185147D01*
Y253844D01*
X184148Y254844D01*
X189146Y259842D02*
X191145D01*
X190146D01*
Y253844D01*
X189146Y254844D01*
X299705Y298721D02*
Y304718D01*
X296706D01*
X295706Y303719D01*
Y301719D01*
X296706Y300720D01*
X299705D01*
X297705D02*
X295706Y298721D01*
X293707D02*
X291707D01*
X292707D01*
Y304718D01*
X293707Y303719D01*
X288708D02*
X287709Y304718D01*
X285709D01*
X284710Y303719D01*
Y302719D01*
X285709Y301719D01*
X284710Y300720D01*
Y299720D01*
X285709Y298721D01*
X287709D01*
X288708Y299720D01*
Y300720D01*
X287709Y301719D01*
X288708Y302719D01*
Y303719D01*
X287709Y301719D02*
X285709D01*
X318898Y298721D02*
Y304718D01*
X315899D01*
X314899Y303719D01*
Y301719D01*
X315899Y300720D01*
X318898D01*
X316898D02*
X314899Y298721D01*
X308901D02*
X312900D01*
X308901Y302719D01*
Y303719D01*
X309901Y304718D01*
X311900D01*
X312900Y303719D01*
X306902Y298721D02*
X304902D01*
X305902D01*
Y304718D01*
X306902Y303719D01*
X299705Y306594D02*
Y312593D01*
X296706D01*
X295706Y311593D01*
Y309594D01*
X296706Y308594D01*
X299705D01*
X297705D02*
X295706Y306594D01*
X293707D02*
X291707D01*
X292707D01*
Y312593D01*
X293707Y311593D01*
X288708Y307594D02*
X287709Y306594D01*
X285709D01*
X284710Y307594D01*
Y311593D01*
X285709Y312593D01*
X287709D01*
X288708Y311593D01*
Y310593D01*
X287709Y309594D01*
X284710D01*
X319390Y306594D02*
Y312593D01*
X316391D01*
X315391Y311593D01*
Y309594D01*
X316391Y308594D01*
X319390D01*
X317390D02*
X315391Y306594D01*
X309393D02*
X313392D01*
X309393Y310593D01*
Y311593D01*
X310393Y312593D01*
X312392D01*
X313392Y311593D01*
X303395Y306594D02*
X307394D01*
X303395Y310593D01*
Y311593D01*
X304395Y312593D01*
X306394D01*
X307394Y311593D01*
X299705Y314961D02*
Y320959D01*
X296706D01*
X295706Y319959D01*
Y317960D01*
X296706Y316960D01*
X299705D01*
X297705D02*
X295706Y314961D01*
X289708D02*
X293707D01*
X289708Y318959D01*
Y319959D01*
X290708Y320959D01*
X292707D01*
X293707Y319959D01*
X287709D02*
X286709Y320959D01*
X284710D01*
X283710Y319959D01*
Y315960D01*
X284710Y314961D01*
X286709D01*
X287709Y315960D01*
Y319959D01*
X318878Y314871D02*
Y320869D01*
X315879D01*
X314879Y319869D01*
Y317870D01*
X315879Y316870D01*
X318878D01*
X316879D02*
X314879Y314871D01*
X308881D02*
X312880D01*
X308881Y318870D01*
Y319869D01*
X309881Y320869D01*
X311880D01*
X312880Y319869D01*
X306882D02*
X305882Y320869D01*
X303883D01*
X302883Y319869D01*
Y318870D01*
X303883Y317870D01*
X304883D01*
X303883D01*
X302883Y316870D01*
Y315871D01*
X303883Y314871D01*
X305882D01*
X306882Y315871D01*
X116810Y322484D02*
Y316486D01*
X113811D01*
X112812Y317485D01*
Y321484D01*
X113811Y322484D01*
X116810D01*
X106814Y316486D02*
X110812D01*
X106814Y320484D01*
Y321484D01*
X107813Y322484D01*
X109812D01*
X110812Y321484D01*
X421690Y300766D02*
X422690Y301766D01*
X424689D01*
X425689Y300766D01*
Y296767D01*
X424689Y295768D01*
X422690D01*
X421690Y296767D01*
X415692Y295768D02*
X419691D01*
X415692Y299766D01*
Y300766D01*
X416692Y301766D01*
X418691D01*
X419691Y300766D01*
X413693D02*
X412693Y301766D01*
X410694D01*
X409694Y300766D01*
Y299766D01*
X410694Y298767D01*
X411693D01*
X410694D01*
X409694Y297767D01*
Y296767D01*
X410694Y295768D01*
X412693D01*
X413693Y296767D01*
X419230Y237282D02*
X420229Y238281D01*
X422229D01*
X423228Y237282D01*
Y233283D01*
X422229Y232283D01*
X420229D01*
X419230Y233283D01*
X413232Y232283D02*
X417230D01*
X413232Y236282D01*
Y237282D01*
X414231Y238281D01*
X416231D01*
X417230Y237282D01*
X411232Y232283D02*
X409233D01*
X410232D01*
Y238281D01*
X411232Y237282D01*
X421690Y318483D02*
X422690Y319482D01*
X424689D01*
X425689Y318483D01*
Y314484D01*
X424689Y313484D01*
X422690D01*
X421690Y314484D01*
X415692Y313484D02*
X419691D01*
X415692Y317483D01*
Y318483D01*
X416692Y319482D01*
X418691D01*
X419691Y318483D01*
X410694Y313484D02*
Y319482D01*
X413693Y316483D01*
X409694D01*
M02*
