G04 Layer_Color=32768*
%FSLAX25Y25*%
%MOIN*%
G70*
G01*
G75*
%ADD90C,0.00394*%
%ADD92C,0.00197*%
D90*
X201083Y319587D02*
X205413D01*
X201083Y329035D02*
X205413D01*
Y319587D02*
Y329035D01*
X201083Y319587D02*
Y329035D01*
X203248Y322441D02*
Y326181D01*
X201378Y324311D02*
X205118D01*
X206988Y315158D02*
X211319D01*
X206988Y324606D02*
X211319D01*
Y315158D02*
Y324606D01*
X206988Y315158D02*
Y324606D01*
X209154Y318012D02*
Y321752D01*
X207283Y319882D02*
X211024D01*
X344291Y313779D02*
Y318110D01*
X334842Y313779D02*
Y318110D01*
X344291D01*
X334842Y313779D02*
X344291D01*
X337697Y315945D02*
X341437D01*
X339567Y314075D02*
Y317815D01*
X331496Y313779D02*
Y318110D01*
X322047Y313779D02*
Y318110D01*
X331496D01*
X322047Y313779D02*
X331496D01*
X324902Y315945D02*
X328642D01*
X326772Y314075D02*
Y317815D01*
X107087Y348130D02*
X111417D01*
X107087Y357579D02*
X111417D01*
X107087Y348130D02*
Y357579D01*
X111417Y348130D02*
Y357579D01*
X109252Y350984D02*
Y354724D01*
X107382Y352854D02*
X111122D01*
X269980Y298524D02*
Y302854D01*
X260531Y298524D02*
Y302854D01*
X269980D01*
X260531Y298524D02*
X269980D01*
X263386Y300689D02*
X267126D01*
X265256Y298819D02*
Y302559D01*
X259646Y317224D02*
Y321555D01*
X250197Y317224D02*
Y321555D01*
X259646D01*
X250197Y317224D02*
X259646D01*
X253051Y319390D02*
X256791D01*
X254921Y317520D02*
Y321260D01*
X160138Y307382D02*
Y311713D01*
X169587Y307382D02*
Y311713D01*
X160138D02*
X169587D01*
X160138Y307382D02*
X169587D01*
X162992Y309547D02*
X166732D01*
X164862Y307677D02*
Y311417D01*
X210335Y296555D02*
Y300886D01*
X219783Y296555D02*
Y300886D01*
X210335D02*
X219783D01*
X210335Y296555D02*
X219783D01*
X213189Y298721D02*
X216929D01*
X215059Y296850D02*
Y300590D01*
X200492Y284744D02*
Y289075D01*
X209941Y284744D02*
Y289075D01*
X200492D02*
X209941D01*
X200492Y284744D02*
X209941D01*
X203346Y286910D02*
X207087D01*
X205217Y285039D02*
Y288779D01*
X210335Y302461D02*
Y306791D01*
X219783Y302461D02*
Y306791D01*
X210335D02*
X219783D01*
X210335Y302461D02*
X219783D01*
X213189Y304626D02*
X216929D01*
X215059Y302756D02*
Y306496D01*
X331693Y238287D02*
Y242028D01*
X329823Y240158D02*
X333563D01*
X326969Y237992D02*
X336417D01*
X326969Y242323D02*
X336417D01*
X326969Y237992D02*
Y242323D01*
X336417Y237992D02*
Y242323D01*
X421063Y344291D02*
Y348622D01*
X411614Y344291D02*
Y348622D01*
X421063Y348622D01*
X411614Y344291D02*
X421063D01*
X414468Y346457D02*
X418209D01*
X416339Y344587D02*
Y348327D01*
X421555Y239961D02*
Y244291D01*
X412106Y239961D02*
Y244291D01*
X421555D01*
X412106Y239961D02*
X421555D01*
X414961Y242126D02*
X418701D01*
X416831Y240256D02*
Y243996D01*
X349213Y308858D02*
X353543D01*
X349213Y299410D02*
X353543D01*
X349213D02*
Y308858D01*
X353543Y299410D02*
Y308858D01*
X351378Y302264D02*
Y306004D01*
X349508Y304134D02*
X353248D01*
X319587Y349213D02*
Y353543D01*
X329035Y349213D02*
Y353543D01*
X319587Y349213D02*
X329035D01*
X319587Y353543D02*
X329035D01*
X322441Y351378D02*
X326181D01*
X324311Y349508D02*
Y353248D01*
X195177Y247342D02*
Y251673D01*
X185728Y247342D02*
Y251673D01*
X195177D01*
X185728Y247342D02*
X195177D01*
X188583Y249508D02*
X192323D01*
X190453Y247638D02*
Y251378D01*
X435039Y451870D02*
Y455610D01*
X433169Y453740D02*
X436909D01*
X430315Y451575D02*
X439764D01*
X430315Y455905D02*
X439764D01*
Y451575D02*
Y455905D01*
X430315Y451575D02*
Y455905D01*
X384941Y451279D02*
X388681D01*
X386811Y449409D02*
Y453150D01*
X388976Y446555D02*
Y456004D01*
X384646Y446555D02*
Y456004D01*
X388976D01*
X384646Y446555D02*
X388976D01*
X341142Y342520D02*
X344882D01*
X343012Y340650D02*
Y344390D01*
X345177Y337795D02*
Y347244D01*
X340846Y337795D02*
Y347244D01*
Y337795D02*
X345177D01*
X340846Y347244D02*
X345177D01*
X179331Y344783D02*
Y349114D01*
X188779Y344783D02*
Y349114D01*
X179331D02*
X188779D01*
X179331Y344783D02*
X188779D01*
X182185Y346949D02*
X185925D01*
X184055Y345079D02*
Y348819D01*
X343996Y236811D02*
Y240551D01*
X342126Y238681D02*
X345866D01*
X339272Y236516D02*
X348721D01*
X339272Y240846D02*
X348721D01*
X339272Y236516D02*
Y240846D01*
X348721Y236516D02*
Y240846D01*
X149311Y365945D02*
Y370276D01*
X158760Y365945D02*
Y370276D01*
X149311D02*
X158760D01*
X149311Y365945D02*
X158760D01*
X152165Y368110D02*
X155905D01*
X154035Y366240D02*
Y369980D01*
X149311Y379232D02*
Y383563D01*
X158760Y379232D02*
Y383563D01*
X149311D02*
X158760D01*
X149311Y379232D02*
X158760D01*
X152165Y381398D02*
X155905D01*
X154035Y379528D02*
Y383268D01*
X153543Y216634D02*
Y220374D01*
X151673Y218504D02*
X155413D01*
X148819Y216339D02*
X158268D01*
X148819Y220669D02*
X158268D01*
Y216339D02*
Y220669D01*
X148819Y216339D02*
Y220669D01*
X156988Y165453D02*
Y169193D01*
X155118Y167323D02*
X158858D01*
X152264Y165157D02*
X161713D01*
X152264Y169488D02*
X161713D01*
Y165157D02*
Y169488D01*
X152264Y165157D02*
Y169488D01*
X124508Y168405D02*
Y172146D01*
X122638Y170276D02*
X126378D01*
X119783Y168110D02*
X129232D01*
X119783Y172441D02*
X129232D01*
Y168110D02*
Y172441D01*
X119783Y168110D02*
Y172441D01*
X136811Y168405D02*
Y172146D01*
X134941Y170276D02*
X138681D01*
X132087Y172441D02*
X141535D01*
X132087Y168110D02*
X141535D01*
X132087D02*
Y172441D01*
X141535Y168110D02*
Y172441D01*
X144291Y167323D02*
X148031D01*
X146161Y165453D02*
Y169193D01*
X148327Y162598D02*
Y172047D01*
X143996Y162598D02*
Y172047D01*
X148327D01*
X143996Y162598D02*
X148327D01*
X144291Y149114D02*
X148031D01*
X146161Y147244D02*
Y150984D01*
X148327Y144390D02*
Y153839D01*
X143996Y144390D02*
Y153839D01*
X148327D01*
X143996Y144390D02*
X148327D01*
X432087Y430709D02*
Y434449D01*
X430217Y432579D02*
X433957D01*
X427362Y434744D02*
X436811D01*
X427362Y430413D02*
X436811D01*
X427362D02*
Y434744D01*
X436811Y430413D02*
Y434744D01*
X420276Y430709D02*
Y434449D01*
X418405Y432579D02*
X422146D01*
X415551Y430413D02*
X425000D01*
X415551Y434744D02*
X425000D01*
Y430413D02*
Y434744D01*
X415551Y430413D02*
Y434744D01*
X443996Y434547D02*
X447736D01*
X445866Y432677D02*
Y436417D01*
X448032Y429823D02*
Y439272D01*
X443701Y429823D02*
Y439272D01*
X448032D01*
X443701Y429823D02*
X448032D01*
X443996Y445374D02*
X447736D01*
X445866Y443504D02*
Y447244D01*
X448032Y440650D02*
Y450098D01*
X443701Y440650D02*
Y450098D01*
X448032D01*
X443701Y440650D02*
X448032D01*
X247638Y334154D02*
X251378D01*
X249508Y332283D02*
Y336024D01*
X247342Y329429D02*
Y338878D01*
X251673Y329429D02*
Y338878D01*
X247342D02*
X251673D01*
X247342Y329429D02*
X251673D01*
X253937Y350492D02*
Y354232D01*
X252067Y352362D02*
X255807D01*
X249213Y354528D02*
X258661D01*
X249213Y350197D02*
X258661D01*
Y354528D01*
X249213Y350197D02*
Y354528D01*
X242126Y350492D02*
Y354232D01*
X240256Y352362D02*
X243996D01*
X237402Y354528D02*
X246850D01*
X237402Y350197D02*
X246850D01*
Y354528D01*
X237402Y350197D02*
Y354528D01*
X277559Y347539D02*
Y351279D01*
X275689Y349409D02*
X279429D01*
X272835Y351575D02*
X282283D01*
X272835Y347244D02*
X282283D01*
Y351575D01*
X272835Y347244D02*
Y351575D01*
X306594Y341142D02*
Y344882D01*
X304724Y343012D02*
X308465D01*
X301870Y345177D02*
X311319D01*
X301870Y340846D02*
X311319D01*
Y345177D01*
X301870Y340846D02*
Y345177D01*
X317421Y341634D02*
Y345374D01*
X315551Y343504D02*
X319291D01*
X312697Y345669D02*
X322146D01*
X312697Y341339D02*
X322146D01*
Y345669D01*
X312697Y341339D02*
Y345669D01*
X335138Y349016D02*
Y352756D01*
X333268Y350886D02*
X337008D01*
X330413Y353051D02*
X339862D01*
X330413Y348721D02*
X339862D01*
Y353051D01*
X330413Y348721D02*
Y353051D01*
X341142Y328248D02*
X344882D01*
X343012Y326378D02*
Y330118D01*
X345177Y323524D02*
Y332972D01*
X340846Y323524D02*
Y332972D01*
Y323524D02*
X345177D01*
X340846Y332972D02*
X345177D01*
X348031Y321850D02*
X351772D01*
X349902Y319980D02*
Y323721D01*
X352067Y317126D02*
Y326575D01*
X347736Y317126D02*
Y326575D01*
Y317126D02*
X352067D01*
X347736Y326575D02*
X352067D01*
X349508Y289370D02*
X353248D01*
X351378Y287500D02*
Y291240D01*
X353543Y284646D02*
Y294094D01*
X349213Y284646D02*
Y294094D01*
Y284646D02*
X353543D01*
X349213Y294094D02*
X353543D01*
X347539Y277559D02*
X351279D01*
X349409Y275689D02*
Y279429D01*
X351575Y272835D02*
Y282283D01*
X347244Y272835D02*
Y282283D01*
Y272835D02*
X351575D01*
X347244Y282283D02*
X351575D01*
X349508Y255413D02*
X353248D01*
X351378Y253543D02*
Y257283D01*
X353543Y250689D02*
Y260138D01*
X349213Y250689D02*
Y260138D01*
Y250689D02*
X353543D01*
X349213Y260138D02*
X353543D01*
X356299Y217618D02*
Y221358D01*
X354429Y219488D02*
X358169D01*
X351575Y221654D02*
X361024D01*
X351575Y217323D02*
X361024D01*
X351575D02*
Y221654D01*
X361024Y217323D02*
Y221654D01*
X285433Y236811D02*
Y240551D01*
X283563Y238681D02*
X287303D01*
X280709Y236516D02*
X290158D01*
X280709Y240846D02*
X290158D01*
X280709Y236516D02*
Y240846D01*
X290158Y236516D02*
Y240846D01*
X316437Y239272D02*
Y243012D01*
X314567Y241142D02*
X318307D01*
X311713Y238976D02*
X321161D01*
X311713Y243307D02*
X321161D01*
X311713Y238976D02*
Y243307D01*
X321161Y238976D02*
Y243307D01*
X265748Y209252D02*
Y212992D01*
X263878Y211122D02*
X267618D01*
X261024Y213287D02*
X270472D01*
X261024Y208957D02*
X270472D01*
X261024D02*
Y213287D01*
X270472Y208957D02*
Y213287D01*
X257382Y239272D02*
Y243012D01*
X255512Y241142D02*
X259252D01*
X252658Y238976D02*
X262106D01*
X252658Y243307D02*
X262106D01*
X252658Y238976D02*
Y243307D01*
X262106Y238976D02*
Y243307D01*
X246555Y215158D02*
Y218898D01*
X244685Y217028D02*
X248425D01*
X241831Y219193D02*
X251279D01*
X241831Y214862D02*
X251279D01*
X241831D02*
Y219193D01*
X251279Y214862D02*
Y219193D01*
X233268Y215158D02*
Y218898D01*
X231398Y217028D02*
X235138D01*
X228543Y219193D02*
X237992D01*
X228543Y214862D02*
X237992D01*
X228543D02*
Y219193D01*
X237992Y214862D02*
Y219193D01*
X236319Y249508D02*
X240059D01*
X238189Y247638D02*
Y251378D01*
X236024Y244783D02*
Y254232D01*
X240354Y244783D02*
Y254232D01*
X236024D02*
X240354D01*
X236024Y244783D02*
X240354D01*
X236811Y274114D02*
X240551D01*
X238681Y272244D02*
Y275984D01*
X236516Y269390D02*
Y278839D01*
X240846Y269390D02*
Y278839D01*
X236516D02*
X240846D01*
X236516Y269390D02*
X240846D01*
X247146Y344488D02*
X250886D01*
X249016Y342618D02*
Y346358D01*
X246850Y339764D02*
Y349213D01*
X251181Y339764D02*
Y349213D01*
X246850D02*
X251181D01*
X246850Y339764D02*
X251181D01*
X239272Y313976D02*
X243012D01*
X241142Y312106D02*
Y315846D01*
X238976Y309252D02*
Y318701D01*
X243307Y309252D02*
Y318701D01*
X238976D02*
X243307D01*
X238976Y309252D02*
X243307D01*
X415748Y295177D02*
X419685D01*
X417717Y293209D02*
Y297146D01*
X377264Y354528D02*
X381594D01*
X377264Y363976D02*
X381594D01*
X377264Y354528D02*
Y363976D01*
X381594Y354528D02*
Y363976D01*
X379429Y357382D02*
Y361122D01*
X377559Y359252D02*
X381299D01*
X370866Y358563D02*
X375197D01*
X370866Y349114D02*
X375197D01*
Y358563D01*
X370866Y349114D02*
Y358563D01*
X373031Y351969D02*
Y355709D01*
X371161Y353839D02*
X374902D01*
X175689Y328248D02*
Y332185D01*
X173721Y330217D02*
X177657D01*
X224410Y224410D02*
Y366142D01*
X366142Y224410D02*
Y366142D01*
X224410D02*
X366142D01*
X224410Y224410D02*
X366142D01*
X293307Y295276D02*
X297244D01*
X295276Y293307D02*
Y297244D01*
X435532Y458268D02*
Y462008D01*
X433661Y460138D02*
X437402D01*
X430807Y462303D02*
X440256D01*
X430807Y457972D02*
X440256D01*
X430807D02*
Y462303D01*
X440256Y457972D02*
Y462303D01*
X166437Y185039D02*
X170177D01*
X168307Y183169D02*
Y186909D01*
X166142Y180315D02*
Y189764D01*
X170473Y180315D02*
Y189764D01*
X166142Y180315D02*
X170473D01*
X166142Y189764D02*
X170473D01*
X447638Y293504D02*
X451968D01*
X447638Y302953D02*
X451968D01*
X447638Y293504D02*
Y302953D01*
X451968Y293504D02*
Y302953D01*
X449803Y296358D02*
Y300098D01*
X447933Y298228D02*
X451673D01*
X448130Y311713D02*
X452461D01*
X448130Y321161D02*
X452461D01*
X448130Y311713D02*
Y321161D01*
X452461Y311713D02*
Y321161D01*
X450295Y314567D02*
Y318307D01*
X448425Y316437D02*
X452165D01*
X403642Y316437D02*
X407382D01*
X405512Y314567D02*
Y318307D01*
X407677Y311713D02*
Y321161D01*
X403346Y311713D02*
Y321161D01*
Y311713D02*
X407677D01*
X403346Y321161D02*
X407677D01*
X403346Y303445D02*
X407677D01*
X403346Y293996D02*
X407677D01*
X403346D02*
Y303445D01*
X407677Y293996D02*
Y303445D01*
X405512Y296850D02*
Y300590D01*
X403642Y298721D02*
X407382D01*
X237500Y335335D02*
X241831D01*
X237500Y344783D02*
X241831D01*
Y335335D02*
Y344783D01*
X237500Y335335D02*
Y344783D01*
X239665Y338189D02*
Y341929D01*
X237795Y340059D02*
X241535D01*
X238976Y320079D02*
X243307D01*
X238976Y329528D02*
X243307D01*
Y320079D02*
Y329528D01*
X238976Y320079D02*
Y329528D01*
X241142Y322933D02*
Y326673D01*
X239272Y324803D02*
X243012D01*
X238976Y280217D02*
X243307D01*
X238976Y289665D02*
X243307D01*
Y280217D02*
Y289665D01*
X238976Y280217D02*
Y289665D01*
X241142Y283071D02*
Y286811D01*
X239272Y284941D02*
X243012D01*
X238976Y256594D02*
X243307D01*
X238976Y266043D02*
X243307D01*
Y256594D02*
Y266043D01*
X238976Y256594D02*
Y266043D01*
X241142Y259449D02*
Y263189D01*
X239272Y261319D02*
X243012D01*
X240846Y238976D02*
Y243307D01*
X250295Y238976D02*
Y243307D01*
X240846Y238976D02*
X250295D01*
X240846Y243307D02*
X250295D01*
X243701Y241142D02*
X247441D01*
X245571Y239272D02*
Y243012D01*
X309842Y243898D02*
Y248228D01*
X300394Y243898D02*
Y248228D01*
X309842D01*
X300394Y243898D02*
X309842D01*
X303248Y246063D02*
X306988D01*
X305118Y244193D02*
Y247933D01*
X275394Y238976D02*
Y243307D01*
X265945Y238976D02*
Y243307D01*
X275394D01*
X265945Y238976D02*
X275394D01*
X268799Y241142D02*
X272539D01*
X270669Y239272D02*
Y243012D01*
X331004Y243898D02*
Y248228D01*
X321555Y243898D02*
Y248228D01*
X331004D01*
X321555Y243898D02*
X331004D01*
X324410Y246063D02*
X328150D01*
X326279Y244193D02*
Y247933D01*
X350197Y249311D02*
X354528D01*
X350197Y239862D02*
X354528D01*
X350197D02*
Y249311D01*
X354528Y239862D02*
Y249311D01*
X352362Y242717D02*
Y246457D01*
X350492Y244587D02*
X354232D01*
X347244Y271457D02*
X351575D01*
X347244Y262008D02*
X351575D01*
X347244D02*
Y271457D01*
X351575Y262008D02*
Y271457D01*
X349409Y264862D02*
Y268602D01*
X347539Y266732D02*
X351279D01*
X349705Y340354D02*
X354035D01*
X349705Y330906D02*
X354035D01*
X349705D02*
Y340354D01*
X354035Y330906D02*
Y340354D01*
X351870Y333760D02*
Y337500D01*
X350000Y335630D02*
X353740D01*
X294488Y347244D02*
Y351575D01*
X303937Y347244D02*
Y351575D01*
X294488Y347244D02*
X303937D01*
X294488Y351575D02*
X303937D01*
X297342Y349409D02*
X301083D01*
X299213Y347539D02*
Y351279D01*
X283169Y347244D02*
Y351575D01*
X292618Y347244D02*
Y351575D01*
X283169Y347244D02*
X292618D01*
X283169Y351575D02*
X292618D01*
X286024Y349409D02*
X289764D01*
X287894Y347539D02*
Y351279D01*
X262500Y347244D02*
Y351575D01*
X271949Y347244D02*
Y351575D01*
X262500Y347244D02*
X271949D01*
X262500Y351575D02*
X271949D01*
X265354Y349409D02*
X269094D01*
X267224Y347539D02*
Y351279D01*
X211417Y353445D02*
X215748D01*
X211417Y343996D02*
X215748D01*
Y353445D01*
X211417Y343996D02*
Y353445D01*
X213583Y346850D02*
Y350590D01*
X211713Y348721D02*
X215453D01*
X216831Y350098D02*
X221161D01*
X216831Y359547D02*
X221161D01*
X216831Y350098D02*
Y359547D01*
X221161Y350098D02*
Y359547D01*
X218996Y352953D02*
Y356693D01*
X217126Y354823D02*
X220866D01*
X209941Y229528D02*
X214272D01*
X209941Y238976D02*
X214272D01*
X209941Y229528D02*
Y238976D01*
X214272Y229528D02*
Y238976D01*
X212106Y232382D02*
Y236122D01*
X210236Y234252D02*
X213976D01*
X215354Y233071D02*
X219685D01*
X215354Y223622D02*
X219685D01*
Y233071D01*
X215354Y223622D02*
Y233071D01*
X217520Y226476D02*
Y230217D01*
X215650Y228346D02*
X219390D01*
X371850Y220669D02*
X376181D01*
X371850Y230118D02*
X376181D01*
X371850Y220669D02*
Y230118D01*
X376181Y220669D02*
Y230118D01*
X374016Y223524D02*
Y227264D01*
X372146Y225394D02*
X375886D01*
X472736Y155217D02*
X477067D01*
X472736Y164665D02*
X477067D01*
X472736Y155217D02*
Y164665D01*
X477067Y155217D02*
Y164665D01*
X474902Y158071D02*
Y161811D01*
X473032Y159941D02*
X476772D01*
X479134Y161614D02*
X483465D01*
X479134Y171063D02*
X483465D01*
X479134Y161614D02*
Y171063D01*
X483465Y161614D02*
Y171063D01*
X481299Y164469D02*
Y168209D01*
X479429Y166339D02*
X483169D01*
X377264Y224705D02*
X381594D01*
X377264Y215256D02*
X381594D01*
Y224705D01*
X377264Y215256D02*
Y224705D01*
X379429Y218110D02*
Y221850D01*
X377559Y219980D02*
X381299D01*
X167618Y291535D02*
X171949D01*
X167618Y300984D02*
X171949D01*
X167618Y291535D02*
Y300984D01*
X171949Y291535D02*
Y300984D01*
X169783Y294390D02*
Y298130D01*
X167913Y296260D02*
X171653D01*
X183071Y295768D02*
X187008D01*
X185039Y293799D02*
Y297736D01*
X162697Y272933D02*
X167028D01*
X162697Y263484D02*
X167028D01*
Y272933D01*
X162697Y263484D02*
Y272933D01*
X164862Y266339D02*
Y270079D01*
X162992Y268209D02*
X166732D01*
X468701Y387598D02*
Y391929D01*
X478150Y387598D02*
Y391929D01*
X468701D02*
X478150D01*
X468701Y387598D02*
X478150D01*
X471555Y389764D02*
X475295D01*
X473425Y387894D02*
Y391634D01*
X473130Y379724D02*
Y384055D01*
X482579Y379724D02*
Y384055D01*
X473130D02*
X482579D01*
X473130Y379724D02*
X482579D01*
X475984Y381890D02*
X479724D01*
X477854Y380020D02*
Y383760D01*
X202559Y335433D02*
Y339764D01*
X193110Y335433D02*
Y339764D01*
X202559D01*
X193110Y335433D02*
X202559D01*
X195965Y337598D02*
X199705D01*
X197835Y335728D02*
Y339469D01*
X344291Y303445D02*
Y307776D01*
X334842Y303445D02*
Y307776D01*
X344291D01*
X334842Y303445D02*
X344291D01*
X337697Y305610D02*
X341437D01*
X339567Y303740D02*
Y307480D01*
X151378Y341339D02*
X155709D01*
X151378Y331890D02*
X155709D01*
X151378D02*
Y341339D01*
X155709Y331890D02*
Y341339D01*
X153543Y334744D02*
Y338484D01*
X151673Y336614D02*
X155413D01*
X261319Y339173D02*
Y342913D01*
X259449Y341043D02*
X263189D01*
X256594Y343209D02*
X266043D01*
X256594Y338878D02*
X266043D01*
Y343209D01*
X256594Y338878D02*
Y343209D01*
X344291Y308366D02*
Y312697D01*
X334842Y308366D02*
Y312697D01*
X344291D01*
X334842Y308366D02*
X344291D01*
X337697Y310531D02*
X341437D01*
X339567Y308661D02*
Y312402D01*
X331496Y308366D02*
Y312697D01*
X322047Y308366D02*
Y312697D01*
X331496D01*
X322047Y308366D02*
X331496D01*
X324902Y310531D02*
X328642D01*
X326772Y308661D02*
Y312402D01*
X331496Y303445D02*
Y307776D01*
X322047Y303445D02*
Y307776D01*
X331496D01*
X322047Y303445D02*
X331496D01*
X324902Y305610D02*
X328642D01*
X326772Y303740D02*
Y307480D01*
X106102Y328445D02*
X110433D01*
X106102Y337894D02*
X110433D01*
X106102Y328445D02*
Y337894D01*
X110433Y328445D02*
Y337894D01*
X108268Y331299D02*
Y335039D01*
X106398Y333169D02*
X110138D01*
X153839Y304823D02*
X158169D01*
X153839Y314272D02*
X158169D01*
Y304823D02*
Y314272D01*
X153839Y304823D02*
Y314272D01*
X156004Y307677D02*
Y311417D01*
X154134Y309547D02*
X157874D01*
D92*
X391535Y250295D02*
Y340059D01*
X443898Y250295D02*
Y340059D01*
X391535D02*
X443898D01*
X391535Y250295D02*
X443898D01*
X160925Y319390D02*
X190453D01*
X160925Y341043D02*
X190453D01*
Y319390D02*
Y341043D01*
X160925Y319390D02*
Y341043D01*
X175591Y288287D02*
Y303248D01*
X194488Y288287D02*
Y303248D01*
X175591D02*
X194488D01*
X175591Y288287D02*
X194488D01*
M02*
