G04 Layer_Color=8388736*
%FSLAX25Y25*%
%MOIN*%
G70*
G01*
G75*
%ADD42C,0.07874*%
%ADD57R,0.07559X0.06772*%
%ADD58R,0.06772X0.07559*%
G04:AMPARAMS|DCode=59|XSize=252.76mil|YSize=154.33mil|CornerRadius=0mil|HoleSize=0mil|Usage=FLASHONLY|Rotation=45.000|XOffset=0mil|YOffset=0mil|HoleType=Round|Shape=Rectangle|*
%AMROTATEDRECTD59*
4,1,4,-0.03480,-0.14393,-0.14393,-0.03480,0.03480,0.14393,0.14393,0.03480,-0.03480,-0.14393,0.0*
%
%ADD59ROTATEDRECTD59*%

%ADD60R,0.07559X0.07165*%
%ADD61R,0.07165X0.07559*%
%ADD62R,0.09921X0.09921*%
%ADD63R,0.14646X0.12677*%
%ADD64R,0.10906X0.15827*%
%ADD65R,0.10906X0.06772*%
%ADD66O,0.09921X0.06181*%
%ADD67O,0.12677X0.06378*%
%ADD68R,0.07165X0.07559*%
%ADD69R,0.07559X0.07165*%
%ADD70O,0.11102X0.05197*%
%ADD71O,0.05197X0.11102*%
%ADD72R,0.17795X0.14252*%
%ADD73O,0.07165X0.09921*%
%ADD74R,0.07165X0.09921*%
%ADD75C,0.05591*%
%ADD76R,0.09134X0.08346*%
%ADD77R,0.14252X0.17795*%
%ADD78O,0.09921X0.07165*%
%ADD79R,0.09921X0.07165*%
%ADD80R,0.09921X0.19764*%
%ADD81R,0.09921X0.17795*%
%ADD82R,0.17795X0.09921*%
%ADD83C,0.09331*%
%ADD84R,0.09331X0.09331*%
%ADD85C,0.09921*%
%ADD86R,0.09921X0.09921*%
%ADD87R,0.09331X0.09331*%
%ADD88C,0.19764*%
%ADD89C,0.09016*%
D42*
X478346Y410768D02*
D03*
Y420768D02*
D03*
Y430768D02*
D03*
D57*
X109252Y349902D02*
D03*
Y355807D02*
D03*
X146161Y152067D02*
D03*
Y146161D02*
D03*
X445866Y437500D02*
D03*
Y431595D02*
D03*
X474902Y156988D02*
D03*
Y162894D02*
D03*
X481299Y163386D02*
D03*
Y169291D02*
D03*
D58*
X161909Y309547D02*
D03*
X167815D02*
D03*
X212106Y298721D02*
D03*
X218012D02*
D03*
X202264Y286910D02*
D03*
X208169D02*
D03*
X212106Y304626D02*
D03*
X218012D02*
D03*
X437992Y453740D02*
D03*
X432087D02*
D03*
X151083Y368110D02*
D03*
X156988D02*
D03*
X151083Y381398D02*
D03*
X156988D02*
D03*
X159941Y167323D02*
D03*
X154035D02*
D03*
X127461Y170276D02*
D03*
X121555D02*
D03*
X133858Y170276D02*
D03*
X139764D02*
D03*
X429134Y432579D02*
D03*
X435039D02*
D03*
X423228Y432579D02*
D03*
X417323D02*
D03*
X470472Y389764D02*
D03*
X476378D02*
D03*
X474902Y381890D02*
D03*
X480807D02*
D03*
D59*
X437501Y379428D02*
D03*
X409940Y406989D02*
D03*
D60*
X386811Y454035D02*
D03*
Y448524D02*
D03*
X146161Y170079D02*
D03*
Y164567D02*
D03*
X445866Y448130D02*
D03*
Y442618D02*
D03*
X379429Y356496D02*
D03*
Y362008D02*
D03*
X373031Y356594D02*
D03*
Y351083D02*
D03*
X168307Y182283D02*
D03*
Y187795D02*
D03*
X449803Y295472D02*
D03*
Y300984D02*
D03*
X450295Y313681D02*
D03*
Y319193D02*
D03*
X213583Y351476D02*
D03*
Y345965D02*
D03*
X218996Y352067D02*
D03*
Y357579D02*
D03*
X212106Y231496D02*
D03*
Y237008D02*
D03*
X217520Y231102D02*
D03*
Y225590D02*
D03*
X374016Y222638D02*
D03*
Y228150D02*
D03*
X379429Y222736D02*
D03*
Y217224D02*
D03*
X169783Y293504D02*
D03*
Y299016D02*
D03*
X164862Y270965D02*
D03*
Y265453D02*
D03*
X108268Y330413D02*
D03*
Y335925D02*
D03*
D61*
X181299Y346949D02*
D03*
X186811D02*
D03*
X156299Y218504D02*
D03*
X150787D02*
D03*
X353543Y219488D02*
D03*
X359055D02*
D03*
X262992Y211122D02*
D03*
X268504D02*
D03*
X243799Y217028D02*
D03*
X249311D02*
D03*
X230512D02*
D03*
X236024D02*
D03*
X432776Y460138D02*
D03*
X438287D02*
D03*
D62*
X181102Y381398D02*
D03*
X167323D02*
D03*
X180609Y368114D02*
D03*
X166830D02*
D03*
X200197Y471791D02*
D03*
X200354Y108602D02*
D03*
D63*
X114961Y220472D02*
D03*
X135039D02*
D03*
D64*
X444980Y171752D02*
D03*
X379035Y179134D02*
D03*
D65*
X465650Y162697D02*
D03*
Y171752D02*
D03*
Y180807D02*
D03*
X399705Y170079D02*
D03*
Y179134D02*
D03*
Y188189D02*
D03*
D66*
X395472Y336122D02*
D03*
Y332972D02*
D03*
Y329823D02*
D03*
Y326673D02*
D03*
Y323524D02*
D03*
Y320374D02*
D03*
Y317224D02*
D03*
Y314075D02*
D03*
Y310925D02*
D03*
Y307776D02*
D03*
Y304626D02*
D03*
Y301476D02*
D03*
Y298327D02*
D03*
Y295177D02*
D03*
Y292028D02*
D03*
Y288878D02*
D03*
Y285728D02*
D03*
Y282579D02*
D03*
Y279429D02*
D03*
Y276279D02*
D03*
Y273130D02*
D03*
Y269980D02*
D03*
Y266831D02*
D03*
Y263681D02*
D03*
Y260531D02*
D03*
Y257382D02*
D03*
Y254232D02*
D03*
X439961Y336122D02*
D03*
Y332972D02*
D03*
Y329823D02*
D03*
Y326673D02*
D03*
Y323524D02*
D03*
Y320374D02*
D03*
Y317224D02*
D03*
Y314075D02*
D03*
Y310925D02*
D03*
Y307776D02*
D03*
Y304626D02*
D03*
Y301476D02*
D03*
Y298327D02*
D03*
Y295177D02*
D03*
Y292028D02*
D03*
Y288878D02*
D03*
Y285728D02*
D03*
Y282579D02*
D03*
Y279429D02*
D03*
Y276279D02*
D03*
Y273130D02*
D03*
Y269980D02*
D03*
Y266831D02*
D03*
Y263681D02*
D03*
Y260531D02*
D03*
Y257382D02*
D03*
Y254232D02*
D03*
D67*
X185138Y322716D02*
D03*
Y327716D02*
D03*
Y332716D02*
D03*
Y337717D02*
D03*
X166240Y322716D02*
D03*
Y327716D02*
D03*
Y332716D02*
D03*
Y337717D02*
D03*
D68*
X125000Y363189D02*
D03*
X121260Y371063D02*
D03*
X128740D02*
D03*
D69*
X114665Y294783D02*
D03*
X106791Y291043D02*
D03*
Y298524D02*
D03*
X114665Y317913D02*
D03*
X106791Y314173D02*
D03*
Y321654D02*
D03*
D70*
X228937Y353346D02*
D03*
Y351378D02*
D03*
Y349410D02*
D03*
Y347441D02*
D03*
Y345472D02*
D03*
Y343504D02*
D03*
Y341535D02*
D03*
Y339567D02*
D03*
Y337598D02*
D03*
Y335630D02*
D03*
Y333661D02*
D03*
Y331693D02*
D03*
Y329724D02*
D03*
Y327756D02*
D03*
Y325787D02*
D03*
Y323819D02*
D03*
Y321850D02*
D03*
Y319882D02*
D03*
Y317913D02*
D03*
Y315945D02*
D03*
Y313976D02*
D03*
Y312008D02*
D03*
Y310039D02*
D03*
Y308071D02*
D03*
Y306102D02*
D03*
Y304134D02*
D03*
Y302165D02*
D03*
Y300197D02*
D03*
Y298228D02*
D03*
Y296260D02*
D03*
Y294291D02*
D03*
Y292323D02*
D03*
Y290354D02*
D03*
Y288386D02*
D03*
Y286417D02*
D03*
Y284449D02*
D03*
Y282480D02*
D03*
Y280512D02*
D03*
Y278543D02*
D03*
Y276575D02*
D03*
Y274606D02*
D03*
Y272638D02*
D03*
Y270669D02*
D03*
Y268701D02*
D03*
Y266732D02*
D03*
Y264764D02*
D03*
Y262795D02*
D03*
Y260827D02*
D03*
Y258858D02*
D03*
Y256890D02*
D03*
Y254921D02*
D03*
Y252953D02*
D03*
Y250984D02*
D03*
Y249016D02*
D03*
Y247047D02*
D03*
Y245079D02*
D03*
Y243110D02*
D03*
Y241142D02*
D03*
Y239173D02*
D03*
Y237205D02*
D03*
X361614D02*
D03*
Y239173D02*
D03*
Y241142D02*
D03*
Y243110D02*
D03*
Y245079D02*
D03*
Y247047D02*
D03*
Y249016D02*
D03*
Y250984D02*
D03*
Y252953D02*
D03*
Y254921D02*
D03*
Y256890D02*
D03*
Y258858D02*
D03*
Y260827D02*
D03*
Y262795D02*
D03*
Y264764D02*
D03*
Y266732D02*
D03*
Y268701D02*
D03*
Y270669D02*
D03*
Y272638D02*
D03*
Y274606D02*
D03*
Y276575D02*
D03*
Y278543D02*
D03*
Y280512D02*
D03*
Y282480D02*
D03*
Y284449D02*
D03*
Y286417D02*
D03*
Y288386D02*
D03*
Y290354D02*
D03*
Y292323D02*
D03*
Y294291D02*
D03*
Y296260D02*
D03*
Y298228D02*
D03*
Y300197D02*
D03*
Y302165D02*
D03*
Y304134D02*
D03*
Y306102D02*
D03*
Y308071D02*
D03*
Y310039D02*
D03*
Y312008D02*
D03*
Y313976D02*
D03*
Y315945D02*
D03*
Y317913D02*
D03*
Y319882D02*
D03*
Y321850D02*
D03*
Y323819D02*
D03*
Y325787D02*
D03*
Y327756D02*
D03*
Y329724D02*
D03*
Y331693D02*
D03*
Y333661D02*
D03*
Y335630D02*
D03*
Y337598D02*
D03*
Y339567D02*
D03*
Y341535D02*
D03*
Y343504D02*
D03*
Y345472D02*
D03*
Y347441D02*
D03*
Y349410D02*
D03*
Y351378D02*
D03*
Y353346D02*
D03*
D71*
X237205Y228937D02*
D03*
X239173D02*
D03*
X241142D02*
D03*
X243110D02*
D03*
X245079D02*
D03*
X247047D02*
D03*
X249016D02*
D03*
X250984D02*
D03*
X252953D02*
D03*
X254921D02*
D03*
X256890D02*
D03*
X258858D02*
D03*
X260827D02*
D03*
X262795D02*
D03*
X264764D02*
D03*
X266732D02*
D03*
X268701D02*
D03*
X270669D02*
D03*
X272638D02*
D03*
X274606D02*
D03*
X276575D02*
D03*
X278543D02*
D03*
X280512D02*
D03*
X282480D02*
D03*
X284449D02*
D03*
X286417D02*
D03*
X288386D02*
D03*
X290354D02*
D03*
X292323D02*
D03*
X294291D02*
D03*
X296260D02*
D03*
X298228D02*
D03*
X300197D02*
D03*
X302165D02*
D03*
X304134D02*
D03*
X306102D02*
D03*
X308071D02*
D03*
X310039D02*
D03*
X312008D02*
D03*
X313976D02*
D03*
X315945D02*
D03*
X317913D02*
D03*
X319882D02*
D03*
X321850D02*
D03*
X323819D02*
D03*
X325787D02*
D03*
X327756D02*
D03*
X329724D02*
D03*
X331693D02*
D03*
X333661D02*
D03*
X335630D02*
D03*
X337598D02*
D03*
X339567D02*
D03*
X341535D02*
D03*
X343504D02*
D03*
X345472D02*
D03*
X347441D02*
D03*
X349410D02*
D03*
X351378D02*
D03*
X353346D02*
D03*
Y361614D02*
D03*
X351378D02*
D03*
X349410D02*
D03*
X347441D02*
D03*
X345472D02*
D03*
X343504D02*
D03*
X341535D02*
D03*
X339567D02*
D03*
X337598D02*
D03*
X335630D02*
D03*
X333661D02*
D03*
X331693D02*
D03*
X329724D02*
D03*
X327756D02*
D03*
X325787D02*
D03*
X323819D02*
D03*
X321850D02*
D03*
X319882D02*
D03*
X317913D02*
D03*
X315945D02*
D03*
X313976D02*
D03*
X312008D02*
D03*
X310039D02*
D03*
X308071D02*
D03*
X306102D02*
D03*
X304134D02*
D03*
X302165D02*
D03*
X300197D02*
D03*
X298228D02*
D03*
X296260D02*
D03*
X294291D02*
D03*
X292323D02*
D03*
X290354D02*
D03*
X288386D02*
D03*
X286417D02*
D03*
X284449D02*
D03*
X282480D02*
D03*
X280512D02*
D03*
X278543D02*
D03*
X276575D02*
D03*
X274606D02*
D03*
X272638D02*
D03*
X270669D02*
D03*
X268701D02*
D03*
X266732D02*
D03*
X264764D02*
D03*
X262795D02*
D03*
X260827D02*
D03*
X258858D02*
D03*
X256890D02*
D03*
X254921D02*
D03*
X252953D02*
D03*
X250984D02*
D03*
X249016D02*
D03*
X247047D02*
D03*
X245079D02*
D03*
X243110D02*
D03*
X241142D02*
D03*
X239173D02*
D03*
X237205D02*
D03*
D72*
X151102Y190866D02*
D03*
D73*
X142717Y181102D02*
D03*
X147716D02*
D03*
X152717D02*
D03*
X157717D02*
D03*
X142717Y200787D02*
D03*
X147716D02*
D03*
X152717D02*
D03*
D74*
X157717D02*
D03*
D75*
X176181Y274606D02*
D03*
Y270669D02*
D03*
Y266732D02*
D03*
Y262795D02*
D03*
Y258858D02*
D03*
X180118Y274606D02*
D03*
Y270669D02*
D03*
Y266732D02*
D03*
Y262795D02*
D03*
Y258858D02*
D03*
X184055Y274606D02*
D03*
Y270669D02*
D03*
Y266732D02*
D03*
Y262795D02*
D03*
Y258858D02*
D03*
X187992Y274606D02*
D03*
Y270669D02*
D03*
Y266732D02*
D03*
Y262795D02*
D03*
Y258858D02*
D03*
X191929Y274606D02*
D03*
Y270669D02*
D03*
Y266732D02*
D03*
Y262795D02*
D03*
Y258858D02*
D03*
D76*
X180709Y292421D02*
D03*
Y299114D02*
D03*
X189370Y292421D02*
D03*
Y299114D02*
D03*
D77*
X412972Y451791D02*
D03*
D78*
X422736Y443405D02*
D03*
Y448406D02*
D03*
Y453406D02*
D03*
Y458405D02*
D03*
X403051Y443405D02*
D03*
Y448406D02*
D03*
Y453406D02*
D03*
D79*
Y458405D02*
D03*
D80*
X463705Y467520D02*
D03*
D81*
X487205D02*
D03*
D82*
X475516Y486024D02*
D03*
D83*
X412894Y478839D02*
D03*
X459154Y264272D02*
D03*
X414862Y205217D02*
D03*
X415354Y148130D02*
D03*
D84*
X432579Y478839D02*
D03*
X478839Y264272D02*
D03*
D85*
X138445Y287559D02*
D03*
Y277559D02*
D03*
Y267559D02*
D03*
Y257559D02*
D03*
Y247559D02*
D03*
X128445D02*
D03*
Y257559D02*
D03*
Y267559D02*
D03*
Y277559D02*
D03*
Y287559D02*
D03*
X138779Y343327D02*
D03*
Y333327D02*
D03*
Y323327D02*
D03*
Y313327D02*
D03*
Y303327D02*
D03*
X128779D02*
D03*
Y313327D02*
D03*
Y323327D02*
D03*
Y333327D02*
D03*
Y343327D02*
D03*
X464902Y234409D02*
D03*
X474902D02*
D03*
X464902Y224410D02*
D03*
X474902D02*
D03*
X464902Y214409D02*
D03*
X474902D02*
D03*
X464902Y204409D02*
D03*
X200197Y481791D02*
D03*
X210197Y471791D02*
D03*
Y481791D02*
D03*
X220197Y471791D02*
D03*
Y481791D02*
D03*
X230197Y471791D02*
D03*
Y481791D02*
D03*
X240197Y471791D02*
D03*
Y481791D02*
D03*
X250197Y471791D02*
D03*
Y481791D02*
D03*
X260197Y471791D02*
D03*
Y481791D02*
D03*
X270197Y471791D02*
D03*
Y481791D02*
D03*
X280197Y471791D02*
D03*
Y481791D02*
D03*
X290197Y471791D02*
D03*
Y481791D02*
D03*
X300197Y471791D02*
D03*
Y481791D02*
D03*
X310197Y471791D02*
D03*
Y481791D02*
D03*
X320197Y471791D02*
D03*
Y481791D02*
D03*
X330197Y471791D02*
D03*
Y481791D02*
D03*
X340197Y471791D02*
D03*
Y481791D02*
D03*
X350197Y471791D02*
D03*
Y481791D02*
D03*
X360197Y471791D02*
D03*
Y481791D02*
D03*
X370197Y471791D02*
D03*
Y481791D02*
D03*
X380197Y471791D02*
D03*
Y481791D02*
D03*
X390197Y471791D02*
D03*
Y481791D02*
D03*
X200354Y118602D02*
D03*
X210354Y108602D02*
D03*
Y118602D02*
D03*
X220354Y108602D02*
D03*
Y118602D02*
D03*
X230354Y108602D02*
D03*
Y118602D02*
D03*
X240354Y108602D02*
D03*
Y118602D02*
D03*
X250354Y108602D02*
D03*
Y118602D02*
D03*
X260354Y108602D02*
D03*
Y118602D02*
D03*
X270354Y108602D02*
D03*
Y118602D02*
D03*
X280354Y108602D02*
D03*
Y118602D02*
D03*
X290354Y108602D02*
D03*
Y118602D02*
D03*
X300354Y108602D02*
D03*
Y118602D02*
D03*
X310354Y108602D02*
D03*
Y118602D02*
D03*
X320354Y108602D02*
D03*
Y118602D02*
D03*
X330354Y108602D02*
D03*
Y118602D02*
D03*
X340354Y108602D02*
D03*
Y118602D02*
D03*
X350354Y108602D02*
D03*
Y118602D02*
D03*
X360354Y108602D02*
D03*
Y118602D02*
D03*
X370354Y108602D02*
D03*
Y118602D02*
D03*
X380354Y108602D02*
D03*
Y118602D02*
D03*
X390354Y108602D02*
D03*
Y118602D02*
D03*
D86*
X474902Y204409D02*
D03*
D87*
X414862Y185531D02*
D03*
X415354Y167815D02*
D03*
D88*
X112205Y109744D02*
D03*
X480807Y110728D02*
D03*
X112697Y472933D02*
D03*
D89*
X269685Y323327D02*
D03*
X377953Y192421D02*
D03*
X447835Y365650D02*
D03*
X371063Y193898D02*
D03*
X453248Y351870D02*
D03*
X427658Y203740D02*
D03*
X178150Y178642D02*
D03*
X213090Y197835D02*
D03*
X361713Y192421D02*
D03*
X217028Y388287D02*
D03*
X384350Y350886D02*
D03*
X383858Y228346D02*
D03*
X217520Y502461D02*
D03*
X184055Y210630D02*
D03*
M02*
