G04 Layer_Color=65535*
%FSLAX25Y25*%
%MOIN*%
G70*
G01*
G75*
%ADD34C,0.00787*%
%ADD49C,0.00984*%
%ADD50C,0.02362*%
%ADD51C,0.01000*%
%ADD52C,0.00394*%
%ADD53C,0.01000*%
%ADD54C,0.00600*%
%ADD55C,0.00800*%
%ADD56R,0.05000X0.10000*%
D34*
X415575Y475564D02*
X416044Y474689D01*
X416620Y473880D01*
X417292Y473149D01*
X418052Y472510D01*
X418886Y471970D01*
X419781Y471540D01*
X420723Y471226D01*
X421697Y471033D01*
X422687Y470965D01*
X423679Y471021D01*
X424655Y471202D01*
X425601Y471504D01*
X426501Y471923D01*
X427342Y472452D01*
X428109Y473082D01*
X428791Y473804D01*
X429376Y474606D01*
X429376Y483071D02*
X428791Y483873D01*
X428109Y484595D01*
X427342Y485225D01*
X426501Y485754D01*
X425601Y486173D01*
X424655Y486475D01*
X423679Y486656D01*
X422687Y486713D01*
X421697Y486644D01*
X420723Y486451D01*
X419781Y486137D01*
X418886Y485707D01*
X418052Y485168D01*
X417292Y484528D01*
X416620Y483797D01*
X416044Y482988D01*
X415575Y482113D01*
X480315Y395268D02*
X480051Y396252D01*
X479331Y396972D01*
X478346Y397236D01*
X477362Y396972D01*
X476642Y396252D01*
X476378Y395268D01*
X476642Y394284D01*
X477362Y393563D01*
X478346Y393299D01*
X479331Y393563D01*
X480051Y394284D01*
X480315Y395268D01*
X160216Y192195D02*
X159333Y191829D01*
X158967Y190945D01*
X159333Y190061D01*
X160216Y189695D01*
X461835Y260997D02*
X462304Y260122D01*
X462880Y259313D01*
X463552Y258582D01*
X464312Y257943D01*
X465145Y257403D01*
X466040Y256973D01*
X466983Y256660D01*
X467956Y256467D01*
X468947Y256398D01*
X469939Y256454D01*
X470915Y256635D01*
X471861Y256937D01*
X472761Y257356D01*
X473601Y257885D01*
X474369Y258515D01*
X475050Y259237D01*
X475636Y260039D01*
X475636Y268504D02*
X475050Y269306D01*
X474369Y270028D01*
X473601Y270658D01*
X472761Y271187D01*
X471861Y271606D01*
X470915Y271908D01*
X469939Y272089D01*
X468947Y272146D01*
X467956Y272077D01*
X466983Y271884D01*
X466040Y271570D01*
X465145Y271140D01*
X464312Y270601D01*
X463552Y269961D01*
X462880Y269230D01*
X462304Y268421D01*
X461835Y267546D01*
X411588Y202535D02*
X410713Y202066D01*
X409903Y201490D01*
X409173Y200818D01*
X408533Y200059D01*
X407994Y199225D01*
X407564Y198330D01*
X407250Y197388D01*
X407057Y196414D01*
X406988Y195423D01*
X407045Y194432D01*
X407226Y193455D01*
X407528Y192509D01*
X407947Y191609D01*
X408475Y190769D01*
X409106Y190001D01*
X409828Y189320D01*
X410630Y188734D01*
X419095D02*
X419897Y189320D01*
X420618Y190001D01*
X421249Y190769D01*
X421778Y191609D01*
X422197Y192509D01*
X422499Y193455D01*
X422680Y194432D01*
X422736Y195423D01*
X422667Y196414D01*
X422474Y197388D01*
X422160Y198330D01*
X421731Y199225D01*
X421191Y200058D01*
X420551Y200818D01*
X419821Y201490D01*
X419012Y202066D01*
X418137Y202535D01*
X418629Y150812D02*
X419504Y151280D01*
X420313Y151856D01*
X421043Y152529D01*
X421683Y153288D01*
X422223Y154122D01*
X422653Y155017D01*
X422966Y155959D01*
X423159Y156933D01*
X423228Y157923D01*
X423172Y158915D01*
X422991Y159891D01*
X422689Y160837D01*
X422270Y161737D01*
X421741Y162578D01*
X421111Y163345D01*
X420389Y164027D01*
X419587Y164612D01*
X411122Y164612D02*
X410320Y164027D01*
X409598Y163345D01*
X408968Y162578D01*
X408439Y161737D01*
X408020Y160837D01*
X407718Y159891D01*
X407537Y158915D01*
X407480Y157923D01*
X407549Y156933D01*
X407742Y155959D01*
X408056Y155017D01*
X408486Y154122D01*
X409025Y153288D01*
X409665Y152529D01*
X410396Y151856D01*
X411205Y151280D01*
X412080Y150812D01*
X411644Y460906D02*
X412010Y460022D01*
X412894Y459656D01*
X413778Y460022D01*
X414144Y460906D01*
X107874Y352067D02*
Y353642D01*
X110630Y352067D02*
Y353642D01*
X164075Y310925D02*
X165650D01*
X164075Y308169D02*
X165650D01*
X214272Y300098D02*
X215846D01*
X214272Y297342D02*
X215846D01*
X204429Y288287D02*
X206004D01*
X204429Y285531D02*
X206004D01*
X214272Y306004D02*
X215846D01*
X214272Y303248D02*
X215846D01*
X434252Y452362D02*
X435827D01*
X434252Y455118D02*
X435827D01*
X153248Y369488D02*
X154823D01*
X153248Y366732D02*
X154823D01*
X163583Y376870D02*
X170276D01*
X161614Y384350D02*
X163583Y385925D01*
X161614Y378445D02*
X163583Y376870D01*
Y385925D02*
X170276D01*
X161614Y378445D02*
Y384350D01*
X185630Y376870D02*
Y385925D01*
X178150Y376870D02*
X185630D01*
X178150Y385925D02*
X185630D01*
X153248Y382776D02*
X154823D01*
X153248Y380020D02*
X154823D01*
X163090Y363587D02*
X169782D01*
X161121Y371067D02*
X163090Y372642D01*
X161121Y365162D02*
X163090Y363587D01*
Y372642D02*
X169782D01*
X161121Y365162D02*
Y371067D01*
X185137Y363587D02*
Y372642D01*
X177656Y363587D02*
X185137D01*
X177656Y372642D02*
X185137D01*
X156201Y165945D02*
X157776D01*
X156201Y168701D02*
X157776D01*
X123721Y168898D02*
X125295D01*
X123721Y171653D02*
X125295D01*
X136024Y171653D02*
X137598D01*
X136024Y168898D02*
X137598D01*
X147539Y148327D02*
Y149902D01*
X144783Y148327D02*
Y149902D01*
X431299Y433957D02*
X432874D01*
X431299Y431201D02*
X432874D01*
X419488Y431201D02*
X421063D01*
X419488Y433957D02*
X421063D01*
X447244Y433760D02*
Y435335D01*
X444488Y433760D02*
Y435335D01*
X400000Y251279D02*
Y339075D01*
X435433Y251279D02*
Y339075D01*
X400000D02*
X435433D01*
X400000Y251279D02*
X435433D01*
X172146Y320374D02*
X179232D01*
X172146Y340059D02*
X179232D01*
Y320374D02*
Y340059D01*
X172146Y320374D02*
Y340059D01*
X234055Y234055D02*
Y356496D01*
X356496Y234055D02*
Y356496D01*
X234055D02*
X356496D01*
X234055Y234055D02*
X356496D01*
X479902Y199409D02*
Y239409D01*
X459902Y199409D02*
Y239409D01*
Y199409D02*
X479902D01*
X459902Y239409D02*
X479902D01*
X395197Y466791D02*
Y486791D01*
X195197Y466791D02*
Y486791D01*
X395197D01*
X195197Y466791D02*
X395197D01*
X395354Y103602D02*
Y123602D01*
X195354Y103602D02*
Y123602D01*
X395354D01*
X195354Y103602D02*
X395354D01*
X473524Y159153D02*
Y160728D01*
X476279Y159153D02*
Y160728D01*
X479921Y165551D02*
Y167126D01*
X482677Y165551D02*
Y167126D01*
X172244Y276575D02*
X174213Y278543D01*
X195866D01*
Y254921D02*
Y278543D01*
X172244Y254921D02*
X195866D01*
X172244D02*
Y276575D01*
X180709Y289075D02*
X193307D01*
Y302461D01*
X176772D02*
X193307D01*
X176772Y289862D02*
Y302461D01*
Y289862D02*
X177559Y289075D01*
X180709D01*
X472638Y391142D02*
X474213D01*
X472638Y388386D02*
X474213D01*
X477067Y383268D02*
X478642D01*
X477067Y380512D02*
X478642D01*
D49*
X395965Y339370D02*
X395226Y339796D01*
Y338944D01*
X395965Y339370D01*
X166732Y341063D02*
X165994Y341489D01*
Y340637D01*
X166732Y341063D01*
X229429Y356102D02*
X228691Y356529D01*
Y355676D01*
X229429Y356102D01*
D50*
X405118Y335138D02*
X404673Y336061D01*
X403674Y336289D01*
X402873Y335650D01*
Y334625D01*
X403674Y333986D01*
X404673Y334214D01*
X405118Y335138D01*
X239173Y352559D02*
X238728Y353483D01*
X237729Y353711D01*
X236928Y353071D01*
Y352047D01*
X237729Y351408D01*
X238728Y351636D01*
X239173Y352559D01*
D51*
X129331Y368110D02*
D03*
X109941Y298917D02*
D03*
Y322047D02*
D03*
D52*
X176575Y288681D02*
D03*
D53*
X459768Y449803D02*
X491264D01*
X459768D02*
Y489961D01*
X491264D01*
X423721Y428842D02*
X459354Y393209D01*
X388087D02*
X423721Y428842D01*
X388087Y393209D02*
X423721Y357575D01*
X459354Y393209D01*
X462106Y182776D02*
Y184547D01*
X448327D02*
X462106D01*
Y173721D02*
Y178839D01*
Y164665D02*
Y169783D01*
Y158957D02*
Y160728D01*
X448327Y178051D02*
Y184547D01*
X448524Y158957D02*
X462106D01*
X448524D02*
Y165453D01*
X396161Y190157D02*
Y191929D01*
X382382D02*
X396161D01*
Y181102D02*
Y186221D01*
Y172047D02*
Y177165D01*
Y166339D02*
Y168110D01*
X382382Y185433D02*
Y191929D01*
X382579Y166339D02*
X396161D01*
X382579D02*
Y172835D01*
X123425Y369685D02*
X126575D01*
X127165Y364173D02*
X130709D01*
Y369685D01*
X119095Y364173D02*
X122835D01*
X119095D02*
Y369685D01*
X108169Y293209D02*
Y296358D01*
X113681Y296949D02*
Y300492D01*
X108169D02*
X113681D01*
Y288878D02*
Y292618D01*
X108169Y288878D02*
X113681D01*
X123445Y242559D02*
Y292559D01*
Y242559D02*
X143445D01*
Y292559D01*
X123445D02*
X143445D01*
X123779Y298327D02*
Y348327D01*
Y298327D02*
X143780D01*
Y348327D01*
X123779D02*
X143780D01*
X108169Y316339D02*
Y319488D01*
X113681Y320079D02*
Y323622D01*
X108169D02*
X113681D01*
Y312008D02*
Y315748D01*
X108169Y312008D02*
X113681D01*
X107299Y418848D02*
Y422847D01*
X109299Y424846D01*
X111298Y422847D01*
Y418848D01*
Y421847D01*
X107299D01*
X113297Y422847D02*
Y418848D01*
Y420848D01*
X114297Y421847D01*
X115297Y422847D01*
X116296D01*
X119295Y418848D02*
Y422847D01*
X120295D01*
X121295Y421847D01*
Y418848D01*
Y421847D01*
X122294Y422847D01*
X123294Y421847D01*
Y418848D01*
X125293D02*
X127293D01*
X126293D01*
Y424846D01*
X125293D01*
X133291Y418848D02*
X131291D01*
X130292Y419848D01*
Y421847D01*
X131291Y422847D01*
X133291D01*
X134291Y421847D01*
Y420848D01*
X130292D01*
X137290Y418848D02*
X139289D01*
X140288Y419848D01*
Y421847D01*
X139289Y422847D01*
X137290D01*
X136290Y421847D01*
Y419848D01*
X137290Y418848D01*
X142288D02*
Y424846D01*
X145287D01*
X146287Y423847D01*
Y421847D01*
X145287Y420848D01*
X142288D01*
X152285Y423847D02*
X151285Y424846D01*
X149286D01*
X148286Y423847D01*
Y419848D01*
X149286Y418848D01*
X151285D01*
X152285Y419848D01*
X160282Y418848D02*
Y424846D01*
X163281D01*
X164281Y423847D01*
Y421847D01*
X163281Y420848D01*
X160282D01*
X162281D02*
X164281Y418848D01*
X169279D02*
X167280D01*
X166280Y419848D01*
Y421847D01*
X167280Y422847D01*
X169279D01*
X170279Y421847D01*
Y420848D01*
X166280D01*
X172278Y422847D02*
X174277Y418848D01*
X176277Y422847D01*
X184274Y423847D02*
X185274Y424846D01*
X187273D01*
X188273Y423847D01*
Y419848D01*
X187273Y418848D01*
X185274D01*
X184274Y419848D01*
Y423847D01*
X190272Y418848D02*
Y419848D01*
X191272D01*
Y418848D01*
X190272D01*
X195271D02*
X197270D01*
X196270D01*
Y424846D01*
X195271Y423847D01*
X107299Y409251D02*
Y413249D01*
X109299Y415249D01*
X111298Y413249D01*
Y409251D01*
Y412250D01*
X107299D01*
X113297Y413249D02*
Y409251D01*
Y411250D01*
X114297Y412250D01*
X115297Y413249D01*
X116296D01*
X119295Y409251D02*
Y413249D01*
X120295D01*
X121295Y412250D01*
Y409251D01*
Y412250D01*
X122294Y413249D01*
X123294Y412250D01*
Y409251D01*
X126293Y413249D02*
X128292D01*
X129292Y412250D01*
Y409251D01*
X126293D01*
X125293Y410250D01*
X126293Y411250D01*
X129292D01*
X131291Y409251D02*
Y413249D01*
X134291D01*
X135290Y412250D01*
Y409251D01*
X143288D02*
Y413249D01*
X145287Y415249D01*
X147286Y413249D01*
Y409251D01*
Y412250D01*
X143288D01*
X149286Y413249D02*
X151285Y409251D01*
X153284Y413249D01*
X158283Y409251D02*
X156283D01*
X155284Y410250D01*
Y412250D01*
X156283Y413249D01*
X158283D01*
X159282Y412250D01*
Y411250D01*
X155284D01*
X162281Y414249D02*
Y413249D01*
X161282D01*
X163281D01*
X162281D01*
Y410250D01*
X163281Y409251D01*
X166280D02*
X168280D01*
X167280D01*
Y413249D01*
X166280D01*
X171279Y409251D02*
X174277D01*
X175277Y410250D01*
X174277Y411250D01*
X172278D01*
X171279Y412250D01*
X172278Y413249D01*
X175277D01*
X177277D02*
Y410250D01*
X178276Y409251D01*
X181275D01*
Y408251D01*
X180276Y407251D01*
X179276D01*
X181275Y409251D02*
Y413249D01*
X184274D02*
X186274D01*
X187273Y412250D01*
Y409251D01*
X184274D01*
X183275Y410250D01*
X184274Y411250D01*
X187273D01*
X189273Y409251D02*
Y413249D01*
X192272D01*
X193271Y412250D01*
Y409251D01*
X109299Y397654D02*
X107299Y399653D01*
Y401652D01*
X109299Y403652D01*
X116296Y402652D02*
X115297Y403652D01*
X113297D01*
X112298Y402652D01*
Y398653D01*
X113297Y397654D01*
X115297D01*
X116296Y398653D01*
X118296Y397654D02*
X120295Y399653D01*
Y401652D01*
X118296Y403652D01*
X133291Y397654D02*
X129292D01*
X133291Y401652D01*
Y402652D01*
X132291Y403652D01*
X130292D01*
X129292Y402652D01*
X135290D02*
X136290Y403652D01*
X138289D01*
X139289Y402652D01*
Y398653D01*
X138289Y397654D01*
X136290D01*
X135290Y398653D01*
Y402652D01*
X141288Y397654D02*
X143288D01*
X142288D01*
Y403652D01*
X141288Y402652D01*
X146287D02*
X147286Y403652D01*
X149286D01*
X150285Y402652D01*
Y401652D01*
X149286Y400653D01*
X150285Y399653D01*
Y398653D01*
X149286Y397654D01*
X147286D01*
X146287Y398653D01*
Y399653D01*
X147286Y400653D01*
X146287Y401652D01*
Y402652D01*
X147286Y400653D02*
X149286D01*
X453310Y488774D02*
X451310D01*
X452310D01*
Y483775D01*
X451310Y482776D01*
X450311D01*
X449311Y483775D01*
X455309Y482776D02*
X457308D01*
X456309D01*
Y488774D01*
X455309Y487774D01*
X184170Y357298D02*
X183170Y358298D01*
X181171D01*
X180171Y357298D01*
Y353300D01*
X181171Y352300D01*
X183170D01*
X184170Y353300D01*
X186169Y352300D02*
X188168D01*
X187169D01*
Y358298D01*
X186169Y357298D01*
X194166Y352300D02*
Y358298D01*
X191167Y355299D01*
X195166D01*
X198819Y277559D02*
Y283557D01*
X201818D01*
X202818Y282557D01*
Y280558D01*
X201818Y279558D01*
X198819D01*
X200818D02*
X202818Y277559D01*
X204817D02*
X206816D01*
X205817D01*
Y283557D01*
X204817Y282557D01*
X209815D02*
X210815Y283557D01*
X212814D01*
X213814Y282557D01*
Y281558D01*
X212814Y280558D01*
X211815D01*
X212814D01*
X213814Y279558D01*
Y278559D01*
X212814Y277559D01*
X210815D01*
X209815Y278559D01*
X131398Y365158D02*
Y371156D01*
X134397D01*
X135396Y370156D01*
Y368157D01*
X134397Y367157D01*
X131398D01*
X133397D02*
X135396Y365158D01*
X137396Y370156D02*
X138395Y371156D01*
X140395D01*
X141394Y370156D01*
Y369156D01*
X140395Y368157D01*
X139395D01*
X140395D01*
X141394Y367157D01*
Y366157D01*
X140395Y365158D01*
X138395D01*
X137396Y366157D01*
X143394Y365158D02*
X145393D01*
X144393D01*
Y371156D01*
X143394Y370156D01*
X130905Y378445D02*
Y384443D01*
X133905D01*
X134904Y383443D01*
Y381444D01*
X133905Y380444D01*
X130905D01*
X132905D02*
X134904Y378445D01*
X136904Y383443D02*
X137903Y384443D01*
X139903D01*
X140902Y383443D01*
Y382444D01*
X139903Y381444D01*
X138903D01*
X139903D01*
X140902Y380444D01*
Y379445D01*
X139903Y378445D01*
X137903D01*
X136904Y379445D01*
X142902Y383443D02*
X143901Y384443D01*
X145901D01*
X146900Y383443D01*
Y379445D01*
X145901Y378445D01*
X143901D01*
X142902Y379445D01*
Y383443D01*
X186915Y362697D02*
X192913D01*
Y365696D01*
X191914Y366696D01*
X187915D01*
X186915Y365696D01*
Y362697D01*
Y372694D02*
X187915Y370694D01*
X189914Y368695D01*
X191914D01*
X192913Y369695D01*
Y371694D01*
X191914Y372694D01*
X190914D01*
X189914Y371694D01*
Y368695D01*
X187900Y376969D02*
X193898D01*
Y379967D01*
X192898Y380967D01*
X188899D01*
X187900Y379967D01*
Y376969D01*
Y386965D02*
Y382967D01*
X190899D01*
X189899Y384966D01*
Y385966D01*
X190899Y386965D01*
X192898D01*
X193898Y385966D01*
Y383966D01*
X192898Y382967D01*
X101378Y359252D02*
Y365250D01*
X104377D01*
X105377Y364250D01*
Y362251D01*
X104377Y361251D01*
X101378D01*
X103377D02*
X105377Y359252D01*
X111375D02*
X107376D01*
X111375Y363251D01*
Y364250D01*
X110375Y365250D01*
X108376D01*
X107376Y364250D01*
X116373Y359252D02*
Y365250D01*
X113374Y362251D01*
X117373D01*
X207185Y289370D02*
Y295368D01*
X210184D01*
X211184Y294368D01*
Y292369D01*
X210184Y291369D01*
X207185D01*
X209184D02*
X211184Y289370D01*
X213183D02*
X215182D01*
X214183D01*
Y295368D01*
X213183Y294368D01*
X218181Y295368D02*
X222180D01*
Y294368D01*
X218181Y290370D01*
Y289370D01*
X203740Y309055D02*
Y315053D01*
X206739D01*
X207739Y314054D01*
Y312054D01*
X206739Y311054D01*
X203740D01*
X205739D02*
X207739Y309055D01*
X209738D02*
X211738D01*
X210738D01*
Y315053D01*
X209738Y314054D01*
X218735Y315053D02*
X216736Y314054D01*
X214737Y312054D01*
Y310055D01*
X215736Y309055D01*
X217736D01*
X218735Y310055D01*
Y311054D01*
X217736Y312054D01*
X214737D01*
X171752Y306102D02*
Y312100D01*
X174751D01*
X175751Y311101D01*
Y309101D01*
X174751Y308102D01*
X171752D01*
X173751D02*
X175751Y306102D01*
X177750D02*
X179749D01*
X178750D01*
Y312100D01*
X177750Y311101D01*
X186747Y312100D02*
X182748D01*
Y309101D01*
X184748Y310101D01*
X185747D01*
X186747Y309101D01*
Y307102D01*
X185747Y306102D01*
X183748D01*
X182748Y307102D01*
X152129Y249600D02*
X150129D01*
X151129D01*
Y244602D01*
X150129Y243602D01*
X149130D01*
X148130Y244602D01*
X154128Y248601D02*
X155128Y249600D01*
X157127D01*
X158127Y248601D01*
Y247601D01*
X157127Y246601D01*
X156127D01*
X157127D01*
X158127Y245602D01*
Y244602D01*
X157127Y243602D01*
X155128D01*
X154128Y244602D01*
X128507Y356884D02*
X126507D01*
X127507D01*
Y351886D01*
X126507Y350886D01*
X125507D01*
X124508Y351886D01*
X134505Y350886D02*
X130506D01*
X134505Y354885D01*
Y355884D01*
X133505Y356884D01*
X131506D01*
X130506Y355884D01*
X105869Y344565D02*
X104869Y345565D01*
X102870D01*
X101870Y344565D01*
Y340567D01*
X102870Y339567D01*
X104869D01*
X105869Y340567D01*
X107868Y339567D02*
X109868D01*
X108868D01*
Y345565D01*
X107868Y344565D01*
X116865Y345565D02*
X112866D01*
Y342566D01*
X114866Y343566D01*
X115866D01*
X116865Y342566D01*
Y340567D01*
X115866Y339567D01*
X113866D01*
X112866Y340567D01*
X162817Y250554D02*
X161817Y249554D01*
Y247555D01*
X162817Y246555D01*
X166815D01*
X167815Y247555D01*
Y249554D01*
X166815Y250554D01*
X167815Y252553D02*
Y254553D01*
Y253553D01*
X161817D01*
X162817Y252553D01*
X167815Y261550D02*
Y257552D01*
X163816Y261550D01*
X162817D01*
X161817Y260551D01*
Y258551D01*
X162817Y257552D01*
X189961Y311608D02*
Y310609D01*
X191960Y308609D01*
X193959Y310609D01*
Y311608D01*
X191960Y308609D02*
Y305610D01*
X195959D02*
X197958D01*
X196958D01*
Y311608D01*
X195959Y310609D01*
X161780Y351059D02*
Y346060D01*
X162780Y345061D01*
X164779D01*
X165779Y346060D01*
Y351059D01*
X167778Y350059D02*
X168778Y351059D01*
X170777D01*
X171777Y350059D01*
Y349059D01*
X170777Y348060D01*
X171777Y347060D01*
Y346060D01*
X170777Y345061D01*
X168778D01*
X167778Y346060D01*
Y347060D01*
X168778Y348060D01*
X167778Y349059D01*
Y350059D01*
X168778Y348060D02*
X170777D01*
X399114Y349010D02*
Y344011D01*
X400114Y343012D01*
X402113D01*
X403113Y344011D01*
Y349010D01*
X405112Y344011D02*
X406112Y343012D01*
X408111D01*
X409111Y344011D01*
Y348010D01*
X408111Y349010D01*
X406112D01*
X405112Y348010D01*
Y347010D01*
X406112Y346011D01*
X409111D01*
X376179Y201444D02*
Y196445D01*
X377178Y195446D01*
X379178D01*
X380177Y196445D01*
Y201444D01*
X385176Y195446D02*
Y201444D01*
X382177Y198445D01*
X386175D01*
X449803Y155112D02*
Y150114D01*
X450803Y149114D01*
X452802D01*
X453802Y150114D01*
Y155112D01*
X455801Y154113D02*
X456801Y155112D01*
X458800D01*
X459800Y154113D01*
Y153113D01*
X458800Y152113D01*
X457801D01*
X458800D01*
X459800Y151113D01*
Y150114D01*
X458800Y149114D01*
X456801D01*
X455801Y150114D01*
X454232Y378937D02*
Y384935D01*
X457231D01*
X458231Y383935D01*
Y381936D01*
X457231Y380936D01*
X454232D01*
X456232D02*
X458231Y378937D01*
X460230D02*
X462230D01*
X461230D01*
Y384935D01*
X460230Y383935D01*
X469227Y378937D02*
X465229D01*
X469227Y382936D01*
Y383935D01*
X468228Y384935D01*
X466228D01*
X465229Y383935D01*
X470965Y372539D02*
Y378537D01*
X473964D01*
X474963Y377538D01*
Y375538D01*
X473964Y374539D01*
X470965D01*
X472964D02*
X474963Y372539D01*
X476963D02*
X478962D01*
X477962D01*
Y378537D01*
X476963Y377538D01*
X481961Y372539D02*
X483960D01*
X482961D01*
Y378537D01*
X481961Y377538D01*
X485236Y148622D02*
X479238D01*
Y151621D01*
X480238Y152621D01*
X482237D01*
X483237Y151621D01*
Y148622D01*
Y150621D02*
X485236Y152621D01*
X479238Y158619D02*
X480238Y156620D01*
X482237Y154620D01*
X484236D01*
X485236Y155620D01*
Y157619D01*
X484236Y158619D01*
X483237D01*
X482237Y157619D01*
Y154620D01*
X484744Y173228D02*
X478746D01*
Y176227D01*
X479746Y177227D01*
X481745D01*
X482745Y176227D01*
Y173228D01*
Y175228D02*
X484744Y177227D01*
Y179226D02*
Y181226D01*
Y180226D01*
X478746D01*
X479746Y179226D01*
X457677Y250000D02*
Y255998D01*
X460676D01*
X461676Y254998D01*
Y252999D01*
X460676Y251999D01*
X457677D01*
X463675Y250000D02*
X465675D01*
X464675D01*
Y255998D01*
X463675Y254998D01*
X112697Y331785D02*
Y325787D01*
X115696D01*
X116696Y326787D01*
Y330786D01*
X115696Y331785D01*
X112697D01*
X118695Y325787D02*
X120694D01*
X119695D01*
Y331785D01*
X118695Y330786D01*
X105579Y309949D02*
Y303951D01*
X108579D01*
X109578Y304951D01*
Y308949D01*
X108579Y309949D01*
X105579D01*
X111578Y308949D02*
X112577Y309949D01*
X114577D01*
X115576Y308949D01*
Y307950D01*
X114577Y306950D01*
X113577D01*
X114577D01*
X115576Y305950D01*
Y304951D01*
X114577Y303951D01*
X112577D01*
X111578Y304951D01*
X119584Y382232D02*
Y376234D01*
X122583D01*
X123583Y377234D01*
Y381232D01*
X122583Y382232D01*
X119584D01*
X128581Y376234D02*
Y382232D01*
X125582Y379233D01*
X129581D01*
X458723Y318975D02*
X457723Y319974D01*
X455724D01*
X454724Y318975D01*
Y314976D01*
X455724Y313976D01*
X457723D01*
X458723Y314976D01*
X464721Y313976D02*
X460722D01*
X464721Y317975D01*
Y318975D01*
X463722Y319974D01*
X461722D01*
X460722Y318975D01*
X466720D02*
X467720Y319974D01*
X469720D01*
X470719Y318975D01*
Y314976D01*
X469720Y313976D01*
X467720D01*
X466720Y314976D01*
Y318975D01*
X459215Y300274D02*
X458216Y301274D01*
X456216D01*
X455217Y300274D01*
Y296275D01*
X456216Y295276D01*
X458216D01*
X459215Y296275D01*
X461215Y295276D02*
X463214D01*
X462214D01*
Y301274D01*
X461215Y300274D01*
X466213Y296275D02*
X467213Y295276D01*
X469212D01*
X470212Y296275D01*
Y300274D01*
X469212Y301274D01*
X467213D01*
X466213Y300274D01*
Y299274D01*
X467213Y298275D01*
X470212D01*
X154097Y297813D02*
X153097Y298813D01*
X151098D01*
X150098Y297813D01*
Y293815D01*
X151098Y292815D01*
X153097D01*
X154097Y293815D01*
X156096Y292815D02*
X158096D01*
X157096D01*
Y298813D01*
X156096Y297813D01*
X161095D02*
X162094Y298813D01*
X164094D01*
X165094Y297813D01*
Y296814D01*
X164094Y295814D01*
X163094D01*
X164094D01*
X165094Y294814D01*
Y293815D01*
X164094Y292815D01*
X162094D01*
X161095Y293815D01*
X394255Y151652D02*
X393255Y152652D01*
X391256D01*
X390256Y151652D01*
Y147653D01*
X391256Y146653D01*
X393255D01*
X394255Y147653D01*
X396254Y146653D02*
X398253D01*
X397254D01*
Y152652D01*
X396254Y151652D01*
X401252D02*
X402252Y152652D01*
X404251D01*
X405251Y151652D01*
Y147653D01*
X404251Y146653D01*
X402252D01*
X401252Y147653D01*
Y151652D01*
X425751Y210215D02*
X424751Y211215D01*
X422752D01*
X421752Y210215D01*
Y206216D01*
X422752Y205217D01*
X424751D01*
X425751Y206216D01*
X427750D02*
X428750Y205217D01*
X430749D01*
X431749Y206216D01*
Y210215D01*
X430749Y211215D01*
X428750D01*
X427750Y210215D01*
Y209215D01*
X428750Y208216D01*
X431749D01*
X462168Y280097D02*
X461168Y281097D01*
X459169D01*
X458169Y280097D01*
Y276098D01*
X459169Y275098D01*
X461168D01*
X462168Y276098D01*
X464167Y280097D02*
X465167Y281097D01*
X467166D01*
X468166Y280097D01*
Y279097D01*
X467166Y278097D01*
X468166Y277098D01*
Y276098D01*
X467166Y275098D01*
X465167D01*
X464167Y276098D01*
Y277098D01*
X465167Y278097D01*
X464167Y279097D01*
Y280097D01*
X465167Y278097D02*
X467166D01*
X436085Y488266D02*
X435086Y489266D01*
X433086D01*
X432087Y488266D01*
Y484267D01*
X433086Y483268D01*
X435086D01*
X436085Y484267D01*
X438085Y489266D02*
X442083D01*
Y488266D01*
X438085Y484267D01*
Y483268D01*
X225200Y375298D02*
Y370300D01*
X226200Y369300D01*
X228199D01*
X229199Y370300D01*
Y375298D01*
X235197D02*
X233197Y374298D01*
X231198Y372299D01*
Y370300D01*
X232198Y369300D01*
X234197D01*
X235197Y370300D01*
Y371299D01*
X234197Y372299D01*
X231198D01*
X169291Y479823D02*
Y485821D01*
X172290D01*
X173290Y484821D01*
Y482822D01*
X172290Y481822D01*
X169291D01*
X179288Y479823D02*
X175289D01*
X179288Y483821D01*
Y484821D01*
X178288Y485821D01*
X176289D01*
X175289Y484821D01*
X176339Y115984D02*
Y121982D01*
X179338D01*
X180337Y120983D01*
Y118983D01*
X179338Y117984D01*
X176339D01*
X182337Y120983D02*
X183336Y121982D01*
X185336D01*
X186335Y120983D01*
Y119983D01*
X185336Y118983D01*
X184336D01*
X185336D01*
X186335Y117984D01*
Y116984D01*
X185336Y115984D01*
X183336D01*
X182337Y116984D01*
X173228Y247140D02*
Y242141D01*
X174228Y241142D01*
X176227D01*
X177227Y242141D01*
Y247140D01*
X179226D02*
X183225D01*
Y246140D01*
X179226Y242141D01*
Y241142D01*
X455217Y420368D02*
Y415370D01*
X456216Y414370D01*
X458216D01*
X459215Y415370D01*
Y420368D01*
X465213D02*
X461215D01*
Y417369D01*
X463214Y418369D01*
X464214D01*
X465213Y417369D01*
Y415370D01*
X464214Y414370D01*
X462214D01*
X461215Y415370D01*
X388349Y443483D02*
X387349Y444482D01*
X385350D01*
X384350Y443483D01*
Y439484D01*
X385350Y438484D01*
X387349D01*
X388349Y439484D01*
X390349Y438484D02*
X392348D01*
X391348D01*
Y444482D01*
X390349Y443483D01*
X164924Y221042D02*
X163924Y222041D01*
X161925D01*
X160925Y221042D01*
Y217043D01*
X161925Y216043D01*
X163924D01*
X164924Y217043D01*
X170922Y216043D02*
X166923D01*
X170922Y220042D01*
Y221042D01*
X169922Y222041D01*
X167923D01*
X166923Y221042D01*
X435599Y470498D02*
X434599Y471498D01*
X432600D01*
X431600Y470498D01*
Y466500D01*
X432600Y465500D01*
X434599D01*
X435599Y466500D01*
X437598Y470498D02*
X438598Y471498D01*
X440597D01*
X441597Y470498D01*
Y469499D01*
X440597Y468499D01*
X439597D01*
X440597D01*
X441597Y467499D01*
Y466500D01*
X440597Y465500D01*
X438598D01*
X437598Y466500D01*
X455278Y446435D02*
X454279Y447435D01*
X452279D01*
X451279Y446435D01*
Y442437D01*
X452279Y441437D01*
X454279D01*
X455278Y442437D01*
X460277Y441437D02*
Y447435D01*
X457278Y444436D01*
X461276D01*
X170991Y197935D02*
X169991Y198935D01*
X167992D01*
X166992Y197935D01*
Y193937D01*
X167992Y192937D01*
X169991D01*
X170991Y193937D01*
X176989Y198935D02*
X172990D01*
Y195936D01*
X174989Y196936D01*
X175989D01*
X176989Y195936D01*
Y193937D01*
X175989Y192937D01*
X173990D01*
X172990Y193937D01*
X144747Y160018D02*
X143747Y161018D01*
X141748D01*
X140748Y160018D01*
Y156019D01*
X141748Y155020D01*
X143747D01*
X144747Y156019D01*
X150745Y161018D02*
X148745Y160018D01*
X146746Y158019D01*
Y156019D01*
X147746Y155020D01*
X149745D01*
X150745Y156019D01*
Y157019D01*
X149745Y158019D01*
X146746D01*
X389764Y416923D02*
Y410925D01*
X393762D01*
X395762D02*
X397761D01*
X396761D01*
Y416923D01*
X395762Y415924D01*
X144685Y233360D02*
Y227362D01*
X148684D01*
X154682D02*
X150683D01*
X154682Y231361D01*
Y232361D01*
X153682Y233360D01*
X151683D01*
X150683Y232361D01*
X442421Y450787D02*
Y456785D01*
X445420D01*
X446420Y455786D01*
Y453786D01*
X445420Y452787D01*
X442421D01*
X444421D02*
X446420Y450787D01*
X452418D02*
X448419D01*
X452418Y454786D01*
Y455786D01*
X451418Y456785D01*
X449419D01*
X448419Y455786D01*
X164862Y164370D02*
Y170368D01*
X167861D01*
X168861Y169369D01*
Y167369D01*
X167861Y166369D01*
X164862D01*
X166862D02*
X168861Y164370D01*
X170860Y169369D02*
X171860Y170368D01*
X173859D01*
X174859Y169369D01*
Y168369D01*
X173859Y167369D01*
X172860D01*
X173859D01*
X174859Y166369D01*
Y165370D01*
X173859Y164370D01*
X171860D01*
X170860Y165370D01*
X403051Y431102D02*
Y437100D01*
X406050D01*
X407050Y436101D01*
Y434101D01*
X406050Y433102D01*
X403051D01*
X405051D02*
X407050Y431102D01*
X412048D02*
Y437100D01*
X409049Y434101D01*
X413048D01*
X116621Y159878D02*
Y165876D01*
X119620D01*
X120620Y164876D01*
Y162877D01*
X119620Y161877D01*
X116621D01*
X118620D02*
X120620Y159878D01*
X126618Y165876D02*
X122619D01*
Y162877D01*
X124618Y163876D01*
X125618D01*
X126618Y162877D01*
Y160877D01*
X125618Y159878D01*
X123619D01*
X122619Y160877D01*
X427658Y437008D02*
Y443006D01*
X430656D01*
X431656Y442006D01*
Y440007D01*
X430656Y439007D01*
X427658D01*
X429657D02*
X431656Y437008D01*
X433656Y443006D02*
X437654D01*
Y442006D01*
X433656Y438007D01*
Y437008D01*
X128987Y159892D02*
Y165890D01*
X131986D01*
X132986Y164891D01*
Y162891D01*
X131986Y161891D01*
X128987D01*
X130987D02*
X132986Y159892D01*
X134985Y164891D02*
X135985Y165890D01*
X137985D01*
X138984Y164891D01*
Y163891D01*
X137985Y162891D01*
X138984Y161891D01*
Y160892D01*
X137985Y159892D01*
X135985D01*
X134985Y160892D01*
Y161891D01*
X135985Y162891D01*
X134985Y163891D01*
Y164891D01*
X135985Y162891D02*
X137985D01*
X450295Y432087D02*
Y438085D01*
X453294D01*
X454294Y437085D01*
Y435086D01*
X453294Y434086D01*
X450295D01*
X452295D02*
X454294Y432087D01*
X456293Y433086D02*
X457293Y432087D01*
X459292D01*
X460292Y433086D01*
Y437085D01*
X459292Y438085D01*
X457293D01*
X456293Y437085D01*
Y436085D01*
X457293Y435086D01*
X460292D01*
X151083Y146653D02*
Y152652D01*
X154082D01*
X155081Y151652D01*
Y149653D01*
X154082Y148653D01*
X151083D01*
X153082D02*
X155081Y146653D01*
X157081D02*
X159080D01*
X158080D01*
Y152652D01*
X157081Y151652D01*
X162079D02*
X163079Y152652D01*
X165078D01*
X166078Y151652D01*
Y147653D01*
X165078Y146653D01*
X163079D01*
X162079Y147653D01*
Y151652D01*
X409941Y469581D02*
Y464582D01*
X410941Y463583D01*
X412940D01*
X413940Y464582D01*
Y469581D01*
X415939Y463583D02*
X417938D01*
X416939D01*
Y469581D01*
X415939Y468581D01*
X141763Y213174D02*
Y208175D01*
X142763Y207176D01*
X144762D01*
X145762Y208175D01*
Y213174D01*
X151760Y207176D02*
X147761D01*
X151760Y211174D01*
Y212174D01*
X150760Y213174D01*
X148761D01*
X147761Y212174D01*
D54*
X488346Y400018D02*
Y441518D01*
X468347D02*
X488346D01*
X468347Y400018D02*
Y441518D01*
Y400018D02*
X488346D01*
D55*
X466902Y197742D02*
Y194409D01*
X463569Y197742D01*
X462736D01*
X461903Y196909D01*
Y195243D01*
X462736Y194409D01*
X476902Y196409D02*
Y198076D01*
Y197242D01*
X471903D01*
X472736Y196409D01*
X471903Y240409D02*
Y243742D01*
X472736D01*
X476068Y240409D01*
X476902D01*
X462736D02*
X461903Y241243D01*
Y242909D01*
X462736Y243742D01*
X463569D01*
X464402Y242909D01*
X465235Y243742D01*
X466069D01*
X466902Y242909D01*
Y241243D01*
X466069Y240409D01*
X465235D01*
X464402Y241243D01*
X463569Y240409D01*
X462736D01*
X464402Y241243D02*
Y242909D01*
X398197Y473464D02*
X399030Y474298D01*
X400696D01*
X401529Y473464D01*
Y472632D01*
X400696Y471798D01*
X399863D01*
X400696D01*
X401529Y470965D01*
Y470132D01*
X400696Y469299D01*
X399030D01*
X398197Y470132D01*
X403195D02*
X404028Y469299D01*
X405694D01*
X406528Y470132D01*
Y473464D01*
X405694Y474298D01*
X404028D01*
X403195Y473464D01*
Y472632D01*
X404028Y471798D01*
X406528D01*
X400696Y479299D02*
Y484298D01*
X398197Y481798D01*
X401529D01*
X403195Y483464D02*
X404028Y484298D01*
X405694D01*
X406528Y483464D01*
Y480132D01*
X405694Y479299D01*
X404028D01*
X403195Y480132D01*
Y483464D01*
X193037Y479299D02*
X189705D01*
X193037Y482631D01*
Y483464D01*
X192204Y484298D01*
X190538D01*
X189705Y483464D01*
Y469299D02*
X191371D01*
X190538D01*
Y474298D01*
X189705Y473464D01*
X398354Y110768D02*
X399187Y111601D01*
X400853D01*
X401687Y110768D01*
Y109935D01*
X400853Y109101D01*
X400021D01*
X400853D01*
X401687Y108268D01*
Y107435D01*
X400853Y106602D01*
X399187D01*
X398354Y107435D01*
X403353D02*
X404186Y106602D01*
X405852D01*
X406685Y107435D01*
Y110768D01*
X405852Y111601D01*
X404186D01*
X403353Y110768D01*
Y109935D01*
X404186Y109101D01*
X406685D01*
X400853Y116602D02*
Y121601D01*
X398354Y119102D01*
X401687D01*
X403353Y120768D02*
X404186Y121601D01*
X405852D01*
X406685Y120768D01*
Y117435D01*
X405852Y116602D01*
X404186D01*
X403353Y117435D01*
Y120768D01*
X193687Y116602D02*
X190354D01*
X193687Y119935D01*
Y120768D01*
X192853Y121601D01*
X191187D01*
X190354Y120768D01*
Y106602D02*
X192020D01*
X191187D01*
Y111601D01*
X190354Y110768D01*
D56*
X145945Y267559D02*
D03*
X146280Y323327D02*
D03*
M02*
