G04 Layer_Color=65535*
%FSLAX25Y25*%
%MOIN*%
G70*
G01*
G75*
%ADD27C,0.01181*%
%ADD28C,0.01968*%
%ADD74C,0.00984*%
%ADD75C,0.02362*%
%ADD76C,0.01000*%
%ADD77C,0.00787*%
%ADD78C,0.00800*%
%ADD79R,0.10000X0.05000*%
D27*
X203445Y293898D02*
X202658D01*
X203445D01*
X198524Y249114D02*
X197736D01*
X198524D01*
X170965Y290354D02*
X170177D01*
X170965D01*
X177854Y246161D02*
X177067D01*
X177854D01*
D28*
X392323Y143307D02*
X392059Y144291D01*
X391339Y145012D01*
X390354Y145276D01*
X389370Y145012D01*
X388650Y144291D01*
X388386Y143307D01*
X388650Y142323D01*
X389370Y141602D01*
X390354Y141339D01*
X391339Y141602D01*
X392059Y142323D01*
X392323Y143307D01*
D74*
X277756Y211221D02*
X277018Y211647D01*
Y210794D01*
X277756Y211221D01*
X456201Y414075D02*
X455463Y414501D01*
Y413649D01*
X456201Y414075D01*
X279016Y167224D02*
X278278Y167651D01*
Y166798D01*
X279016Y167224D01*
X253051Y168780D02*
X252313Y169206D01*
Y168353D01*
X253051Y168780D01*
X476870Y226083D02*
X476132Y226509D01*
Y225657D01*
X476870Y226083D01*
D75*
X281988Y220276D02*
X281543Y221199D01*
X280544Y221427D01*
X279743Y220788D01*
Y219763D01*
X280544Y219124D01*
X281543Y219352D01*
X281988Y220276D01*
X447244Y416831D02*
X446799Y417754D01*
X445800Y417982D01*
X444999Y417343D01*
Y416318D01*
X445800Y415679D01*
X446799Y415907D01*
X447244Y416831D01*
X468898Y230217D02*
X468453Y231140D01*
X467454Y231368D01*
X466652Y230729D01*
Y229704D01*
X467454Y229065D01*
X468453Y229293D01*
X468898Y230217D01*
D76*
X232453Y409370D02*
X232404Y410367D01*
X232255Y411354D01*
X232009Y412321D01*
X231667Y413259D01*
X231234Y414159D01*
X230714Y415010D01*
X230111Y415806D01*
X229432Y416538D01*
X228684Y417198D01*
X227873Y417781D01*
X227009Y418280D01*
X226099Y418690D01*
X225153Y419008D01*
X224180Y419231D01*
X223189Y419355D01*
X222191Y419380D01*
X221196Y419305D01*
X220213Y419132D01*
X219252Y418861D01*
X218323Y418497D01*
X217435Y418041D01*
X216596Y417500D01*
X215816Y416877D01*
X215101Y416180D01*
X214460Y415416D01*
X213897Y414591D01*
X213420Y413714D01*
X213032Y412795D01*
X212738Y411841D01*
X212540Y410862D01*
X212441Y409869D01*
Y408871D01*
X212540Y407878D01*
X212738Y406899D01*
X213032Y405946D01*
X213420Y405026D01*
X213897Y404149D01*
X214460Y403325D01*
X215101Y402560D01*
X215816Y401863D01*
X216596Y401241D01*
X217435Y400699D01*
X218323Y400244D01*
X219252Y399879D01*
X220213Y399609D01*
X221196Y399435D01*
X222191Y399361D01*
X223189Y399386D01*
X224180Y399510D01*
X225153Y399732D01*
X226099Y400050D01*
X227009Y400460D01*
X227873Y400959D01*
X228684Y401542D01*
X229432Y402203D01*
X230111Y402934D01*
X230714Y403730D01*
X231234Y404582D01*
X231667Y405481D01*
X232009Y406419D01*
X232255Y407386D01*
X232404Y408373D01*
X232453Y409370D01*
X232453Y379350D02*
X232404Y380347D01*
X232255Y381334D01*
X232009Y382302D01*
X231667Y383240D01*
X231234Y384139D01*
X230714Y384991D01*
X230111Y385786D01*
X229432Y386518D01*
X228684Y387178D01*
X227873Y387761D01*
X227009Y388260D01*
X226099Y388671D01*
X225153Y388989D01*
X224180Y389211D01*
X223189Y389335D01*
X222191Y389360D01*
X221196Y389285D01*
X220213Y389112D01*
X219252Y388842D01*
X218323Y388477D01*
X217435Y388021D01*
X216596Y387480D01*
X215816Y386858D01*
X215101Y386161D01*
X214460Y385396D01*
X213897Y384571D01*
X213420Y383695D01*
X213032Y382775D01*
X212738Y381821D01*
X212540Y380843D01*
X212441Y379850D01*
Y378851D01*
X212540Y377858D01*
X212738Y376880D01*
X213032Y375926D01*
X213420Y375006D01*
X213897Y374130D01*
X214460Y373305D01*
X215101Y372540D01*
X215816Y371843D01*
X216596Y371221D01*
X217435Y370679D01*
X218323Y370224D01*
X219252Y369859D01*
X220213Y369589D01*
X221196Y369416D01*
X222191Y369341D01*
X223189Y369366D01*
X224180Y369490D01*
X225153Y369712D01*
X226099Y370030D01*
X227009Y370441D01*
X227873Y370940D01*
X228684Y371522D01*
X229432Y372183D01*
X230111Y372915D01*
X230714Y373710D01*
X231234Y374562D01*
X231667Y375461D01*
X232009Y376399D01*
X232255Y377366D01*
X232404Y378354D01*
X232453Y379350D01*
X361961Y456693D02*
X361912Y457690D01*
X361763Y458677D01*
X361517Y459644D01*
X361175Y460582D01*
X360742Y461482D01*
X360222Y462333D01*
X359619Y463129D01*
X358940Y463861D01*
X358192Y464521D01*
X357381Y465104D01*
X356517Y465603D01*
X355607Y466013D01*
X354661Y466331D01*
X353688Y466553D01*
X352697Y466678D01*
X351699Y466702D01*
X350704Y466628D01*
X349721Y466454D01*
X348760Y466184D01*
X347831Y465819D01*
X346943Y465364D01*
X346104Y464822D01*
X345324Y464200D01*
X344609Y463503D01*
X343968Y462739D01*
X343405Y461914D01*
X342928Y461037D01*
X342540Y460117D01*
X342246Y459164D01*
X342048Y458185D01*
X341949Y457192D01*
Y456194D01*
X342048Y455201D01*
X342246Y454222D01*
X342540Y453268D01*
X342928Y452349D01*
X343405Y451472D01*
X343968Y450647D01*
X344609Y449883D01*
X345324Y449186D01*
X346104Y448563D01*
X346943Y448022D01*
X347831Y447567D01*
X348760Y447202D01*
X349721Y446932D01*
X350704Y446758D01*
X351699Y446684D01*
X352697Y446708D01*
X353688Y446833D01*
X354661Y447055D01*
X355607Y447373D01*
X356517Y447783D01*
X357381Y448282D01*
X358192Y448865D01*
X358940Y449525D01*
X359619Y450257D01*
X360222Y451053D01*
X360742Y451904D01*
X361175Y452804D01*
X361517Y453742D01*
X361763Y454709D01*
X361912Y455696D01*
X361961Y456693D01*
X401824Y449311D02*
X401774Y450308D01*
X401625Y451295D01*
X401379Y452262D01*
X401037Y453200D01*
X400604Y454100D01*
X400084Y454951D01*
X399481Y455747D01*
X398802Y456479D01*
X398054Y457139D01*
X397243Y457722D01*
X396379Y458221D01*
X395469Y458631D01*
X394523Y458949D01*
X393550Y459171D01*
X392559Y459296D01*
X391561Y459320D01*
X390566Y459246D01*
X389583Y459072D01*
X388622Y458802D01*
X387693Y458437D01*
X386805Y457982D01*
X385966Y457441D01*
X385186Y456818D01*
X384471Y456121D01*
X383830Y455357D01*
X383267Y454532D01*
X382790Y453655D01*
X382402Y452736D01*
X382108Y451782D01*
X381910Y450803D01*
X381811Y449810D01*
Y448812D01*
X381910Y447819D01*
X382108Y446840D01*
X382402Y445887D01*
X382790Y444967D01*
X383267Y444090D01*
X383830Y443265D01*
X384471Y442501D01*
X385186Y441804D01*
X385966Y441182D01*
X386805Y440640D01*
X387693Y440185D01*
X388622Y439820D01*
X389583Y439549D01*
X390566Y439376D01*
X391561Y439302D01*
X392559Y439326D01*
X393550Y439451D01*
X394523Y439673D01*
X395469Y439991D01*
X396379Y440401D01*
X397243Y440900D01*
X398054Y441483D01*
X398802Y442143D01*
X399481Y442875D01*
X400084Y443671D01*
X400604Y444522D01*
X401037Y445422D01*
X401379Y446360D01*
X401625Y447327D01*
X401774Y448314D01*
X401824Y449311D01*
X146732Y344980D02*
X203091D01*
X203169Y345059D02*
Y442992D01*
X174705D02*
X203169D01*
X146732Y344980D02*
Y442992D01*
X174705D01*
X200886Y300984D02*
Y302953D01*
X195374Y295276D02*
Y299803D01*
Y295276D02*
X200886D01*
X195374Y304134D02*
Y308858D01*
X200886D01*
X205217Y251280D02*
X207185D01*
X199508Y256791D02*
X204035D01*
X199508Y251280D02*
Y256791D01*
X208366D02*
X213091D01*
Y251280D02*
Y256791D01*
X168406Y297441D02*
Y299409D01*
X162894Y291732D02*
Y296260D01*
Y291732D02*
X168406D01*
X162894Y300591D02*
Y305315D01*
X168406D01*
X175295Y253248D02*
Y255217D01*
X169783Y247539D02*
Y252067D01*
Y247539D02*
X175295D01*
X169783Y256398D02*
Y261122D01*
X175295D01*
X286358Y114429D02*
Y134429D01*
X336358D01*
Y114429D02*
Y134429D01*
X286358Y114429D02*
X336358D01*
X103248Y358858D02*
Y376969D01*
Y329724D02*
Y347835D01*
X117027Y380906D02*
X136319D01*
Y325787D02*
Y380906D01*
X117027Y325787D02*
X136319D01*
X103150Y290846D02*
Y308957D01*
Y261713D02*
Y279823D01*
X116929Y312894D02*
X136221D01*
Y257776D02*
Y312894D01*
X116929Y257776D02*
X136221D01*
X221965Y462155D02*
Y466154D01*
X223964Y468153D01*
X225963Y466154D01*
Y462155D01*
Y465154D01*
X221965D01*
X227963Y466154D02*
Y462155D01*
Y464155D01*
X228962Y465154D01*
X229962Y466154D01*
X230962D01*
X233961Y462155D02*
Y466154D01*
X234960D01*
X235960Y465154D01*
Y462155D01*
Y465154D01*
X236960Y466154D01*
X237959Y465154D01*
Y462155D01*
X239959D02*
X241958D01*
X240958D01*
Y468153D01*
X239959D01*
X247956Y462155D02*
X245957D01*
X244957Y463155D01*
Y465154D01*
X245957Y466154D01*
X247956D01*
X248956Y465154D01*
Y464155D01*
X244957D01*
X251955Y462155D02*
X253954D01*
X254954Y463155D01*
Y465154D01*
X253954Y466154D01*
X251955D01*
X250955Y465154D01*
Y463155D01*
X251955Y462155D01*
X256953D02*
Y468153D01*
X259952D01*
X260952Y467154D01*
Y465154D01*
X259952Y464155D01*
X256953D01*
X266950Y467154D02*
X265950Y468153D01*
X263951D01*
X262951Y467154D01*
Y463155D01*
X263951Y462155D01*
X265950D01*
X266950Y463155D01*
X274947Y462155D02*
Y468153D01*
X277946D01*
X278946Y467154D01*
Y465154D01*
X277946Y464155D01*
X274947D01*
X276947D02*
X278946Y462155D01*
X283945D02*
X281945D01*
X280945Y463155D01*
Y465154D01*
X281945Y466154D01*
X283945D01*
X284944Y465154D01*
Y464155D01*
X280945D01*
X286944Y466154D02*
X288943Y462155D01*
X290942Y466154D01*
X302938Y462155D02*
X298940D01*
X302938Y466154D01*
Y467154D01*
X301939Y468153D01*
X299939D01*
X298940Y467154D01*
X304938Y462155D02*
Y463155D01*
X305937D01*
Y462155D01*
X304938D01*
X309936Y467154D02*
X310936Y468153D01*
X312935D01*
X313935Y467154D01*
Y463155D01*
X312935Y462155D01*
X310936D01*
X309936Y463155D01*
Y467154D01*
X221965Y452558D02*
Y456556D01*
X223964Y458556D01*
X225963Y456556D01*
Y452558D01*
Y455557D01*
X221965D01*
X227963Y456556D02*
Y452558D01*
Y454557D01*
X228962Y455557D01*
X229962Y456556D01*
X230962D01*
X233961Y452558D02*
Y456556D01*
X234960D01*
X235960Y455557D01*
Y452558D01*
Y455557D01*
X236960Y456556D01*
X237959Y455557D01*
Y452558D01*
X240958Y456556D02*
X242958D01*
X243957Y455557D01*
Y452558D01*
X240958D01*
X239959Y453557D01*
X240958Y454557D01*
X243957D01*
X245957Y452558D02*
Y456556D01*
X248956D01*
X249956Y455557D01*
Y452558D01*
X257953D02*
Y456556D01*
X259952Y458556D01*
X261952Y456556D01*
Y452558D01*
Y455557D01*
X257953D01*
X263951Y456556D02*
X265950Y452558D01*
X267950Y456556D01*
X272948Y452558D02*
X270949D01*
X269949Y453557D01*
Y455557D01*
X270949Y456556D01*
X272948D01*
X273948Y455557D01*
Y454557D01*
X269949D01*
X276947Y457556D02*
Y456556D01*
X275947D01*
X277946D01*
X276947D01*
Y453557D01*
X277946Y452558D01*
X280945D02*
X282945D01*
X281945D01*
Y456556D01*
X280945D01*
X285944Y452558D02*
X288943D01*
X289943Y453557D01*
X288943Y454557D01*
X286944D01*
X285944Y455557D01*
X286944Y456556D01*
X289943D01*
X291942D02*
Y453557D01*
X292942Y452558D01*
X295941D01*
Y451558D01*
X294941Y450558D01*
X293941D01*
X295941Y452558D02*
Y456556D01*
X298940D02*
X300939D01*
X301939Y455557D01*
Y452558D01*
X298940D01*
X297940Y453557D01*
X298940Y454557D01*
X301939D01*
X303938Y452558D02*
Y456556D01*
X306937D01*
X307937Y455557D01*
Y452558D01*
X223964Y440961D02*
X221965Y442960D01*
Y444959D01*
X223964Y446959D01*
X230962Y445959D02*
X229962Y446959D01*
X227963D01*
X226963Y445959D01*
Y441960D01*
X227963Y440961D01*
X229962D01*
X230962Y441960D01*
X232961Y440961D02*
X234960Y442960D01*
Y444959D01*
X232961Y446959D01*
X243957Y445959D02*
X244957Y446959D01*
X246956D01*
X247956Y445959D01*
Y441960D01*
X246956Y440961D01*
X244957D01*
X243957Y441960D01*
Y445959D01*
X252955Y440961D02*
Y446959D01*
X249956Y443960D01*
X253954D01*
X255954Y440961D02*
Y441960D01*
X256953D01*
Y440961D01*
X255954D01*
X264951D02*
X260952D01*
X264951Y444959D01*
Y445959D01*
X263951Y446959D01*
X261952D01*
X260952Y445959D01*
X266950D02*
X267950Y446959D01*
X269949D01*
X270949Y445959D01*
Y441960D01*
X269949Y440961D01*
X267950D01*
X266950Y441960D01*
Y445959D01*
X272948Y440961D02*
X274947D01*
X273948D01*
Y446959D01*
X272948Y445959D01*
X277946Y441960D02*
X278946Y440961D01*
X280945D01*
X281945Y441960D01*
Y445959D01*
X280945Y446959D01*
X278946D01*
X277946Y445959D01*
Y444959D01*
X278946Y443960D01*
X281945D01*
X431435Y505019D02*
X429436D01*
X430436D01*
Y500021D01*
X429436Y499021D01*
X428436D01*
X427437Y500021D01*
X437433Y499021D02*
X433435D01*
X437433Y503020D01*
Y504019D01*
X436434Y505019D01*
X434434D01*
X433435Y504019D01*
X268209Y358852D02*
Y353854D01*
X269208Y352854D01*
X271208D01*
X272207Y353854D01*
Y358852D01*
X274207Y352854D02*
X276206D01*
X275206D01*
Y358852D01*
X274207Y357853D01*
X279205D02*
X280205Y358852D01*
X282204D01*
X283204Y357853D01*
Y353854D01*
X282204Y352854D01*
X280205D01*
X279205Y353854D01*
Y357853D01*
X132874Y407972D02*
X126876D01*
Y410971D01*
X127876Y411971D01*
X129875D01*
X130875Y410971D01*
Y407972D01*
X132874Y416969D02*
X126876D01*
X129875Y413971D01*
Y417969D01*
X193898Y451279D02*
Y445281D01*
X190899D01*
X189899Y446281D01*
Y448280D01*
X190899Y449280D01*
X193898D01*
X187900Y446281D02*
X186900Y445281D01*
X184900D01*
X183901Y446281D01*
Y447281D01*
X184900Y448280D01*
X185900D01*
X184900D01*
X183901Y449280D01*
Y450280D01*
X184900Y451279D01*
X186900D01*
X187900Y450280D01*
X175689Y282480D02*
Y288478D01*
X178688D01*
X179688Y287479D01*
Y285479D01*
X178688Y284480D01*
X175689D01*
X177688D02*
X179688Y282480D01*
X185686D02*
X181687D01*
X185686Y286479D01*
Y287479D01*
X184686Y288478D01*
X182687D01*
X181687Y287479D01*
X191684Y282480D02*
X187685D01*
X191684Y286479D01*
Y287479D01*
X190684Y288478D01*
X188685D01*
X187685Y287479D01*
X238681Y344980D02*
X232683D01*
Y347979D01*
X233683Y348979D01*
X235682D01*
X236682Y347979D01*
Y344980D01*
Y346980D02*
X238681Y348979D01*
X233683Y350978D02*
X232683Y351978D01*
Y353977D01*
X233683Y354977D01*
X234682D01*
X235682Y353977D01*
Y352978D01*
Y353977D01*
X236682Y354977D01*
X237681D01*
X238681Y353977D01*
Y351978D01*
X237681Y350978D01*
X321358Y446850D02*
X327356D01*
Y443851D01*
X326357Y442852D01*
X324357D01*
X323358Y443851D01*
Y446850D01*
Y444851D02*
X321358Y442852D01*
X326357Y440852D02*
X327356Y439853D01*
Y437853D01*
X326357Y436854D01*
X325357D01*
X324357Y437853D01*
Y438853D01*
Y437853D01*
X323358Y436854D01*
X322358D01*
X321358Y437853D01*
Y439853D01*
X322358Y440852D01*
X326357Y434854D02*
X327356Y433855D01*
Y431855D01*
X326357Y430856D01*
X325357D01*
X324357Y431855D01*
Y432855D01*
Y431855D01*
X323358Y430856D01*
X322358D01*
X321358Y431855D01*
Y433855D01*
X322358Y434854D01*
X333169Y446850D02*
X339167D01*
Y443851D01*
X338168Y442852D01*
X336168D01*
X335169Y443851D01*
Y446850D01*
Y444851D02*
X333169Y442852D01*
Y436854D02*
Y440852D01*
X337168Y436854D01*
X338168D01*
X339167Y437853D01*
Y439853D01*
X338168Y440852D01*
X334169Y434854D02*
X333169Y433855D01*
Y431855D01*
X334169Y430856D01*
X338168D01*
X339167Y431855D01*
Y433855D01*
X338168Y434854D01*
X337168D01*
X336168Y433855D01*
Y430856D01*
X456399Y381498D02*
X455399Y382498D01*
X453400D01*
X452400Y381498D01*
Y377500D01*
X453400Y376500D01*
X455399D01*
X456399Y377500D01*
X458398Y376500D02*
X460397D01*
X459398D01*
Y382498D01*
X458398Y381498D01*
X467395Y382498D02*
X463396D01*
Y379499D01*
X465396Y380499D01*
X466396D01*
X467395Y379499D01*
Y377500D01*
X466396Y376500D01*
X464396D01*
X463396Y377500D01*
X406911Y153113D02*
X405911Y152113D01*
Y150114D01*
X406911Y149114D01*
X410910D01*
X411909Y150114D01*
Y152113D01*
X410910Y153113D01*
X411909Y155112D02*
Y157112D01*
Y156112D01*
X405911D01*
X406911Y155112D01*
X405911Y160111D02*
Y164109D01*
X406911D01*
X410910Y160111D01*
X411909D01*
X402559Y125000D02*
X396561D01*
Y127999D01*
X397561Y128999D01*
X399560D01*
X400560Y127999D01*
Y125000D01*
Y126999D02*
X402559Y128999D01*
X396561Y134997D02*
X397561Y132997D01*
X399560Y130998D01*
X401559D01*
X402559Y131998D01*
Y133997D01*
X401559Y134997D01*
X400560D01*
X399560Y133997D01*
Y130998D01*
X402559Y136996D02*
Y138996D01*
Y137996D01*
X396561D01*
X397561Y136996D01*
X369587Y125000D02*
X363589D01*
Y127999D01*
X364588Y128999D01*
X366588D01*
X367587Y127999D01*
Y125000D01*
Y126999D02*
X369587Y128999D01*
X363589Y134997D02*
X364588Y132997D01*
X366588Y130998D01*
X368587D01*
X369587Y131998D01*
Y133997D01*
X368587Y134997D01*
X367587D01*
X366588Y133997D01*
Y130998D01*
X364588Y136996D02*
X363589Y137996D01*
Y139995D01*
X364588Y140995D01*
X368587D01*
X369587Y139995D01*
Y137996D01*
X368587Y136996D01*
X364588D01*
X142717Y160302D02*
X140717D01*
X141717D01*
Y154304D01*
X142717Y155303D01*
X233760Y428150D02*
Y434148D01*
X236759D01*
X237759Y433148D01*
Y431149D01*
X236759Y430149D01*
X233760D01*
X239758Y428150D02*
X241757D01*
X240758D01*
Y434148D01*
X239758Y433148D01*
X160925Y287494D02*
Y282496D01*
X161925Y281496D01*
X163924D01*
X164924Y282496D01*
Y287494D01*
X166923Y282496D02*
X167923Y281496D01*
X169922D01*
X170922Y282496D01*
Y286494D01*
X169922Y287494D01*
X167923D01*
X166923Y286494D01*
Y285495D01*
X167923Y284495D01*
X170922D01*
X166339Y245171D02*
Y240173D01*
X167338Y239173D01*
X169338D01*
X170337Y240173D01*
Y245171D01*
X176335D02*
X174336Y244172D01*
X172337Y242172D01*
Y240173D01*
X173336Y239173D01*
X175336D01*
X176335Y240173D01*
Y241173D01*
X175336Y242172D01*
X172337D01*
X192323Y317809D02*
Y311811D01*
X195322D01*
X196321Y312811D01*
Y316809D01*
X195322Y317809D01*
X192323D01*
X198321Y316809D02*
X199321Y317809D01*
X201320D01*
X202320Y316809D01*
Y315810D01*
X201320Y314810D01*
X202320Y313810D01*
Y312811D01*
X201320Y311811D01*
X199321D01*
X198321Y312811D01*
Y313810D01*
X199321Y314810D01*
X198321Y315810D01*
Y316809D01*
X199321Y314810D02*
X201320D01*
X201279Y244679D02*
Y238681D01*
X204278D01*
X205278Y239681D01*
Y243679D01*
X204278Y244679D01*
X201279D01*
X211276D02*
X207278D01*
Y241680D01*
X209277Y242680D01*
X210277D01*
X211276Y241680D01*
Y239681D01*
X210277Y238681D01*
X208277D01*
X207278Y239681D01*
X379337Y136319D02*
X380336D01*
X382336Y138318D01*
X380336Y140318D01*
X379337D01*
X382336Y138318D02*
X385335D01*
Y142317D02*
Y144316D01*
Y143317D01*
X379337D01*
X380336Y142317D01*
X213090Y103839D02*
X207092D01*
Y106838D01*
X208092Y107837D01*
X210091D01*
X211091Y106838D01*
Y103839D01*
Y105838D02*
X213090Y107837D01*
Y113835D02*
Y109837D01*
X209092Y113835D01*
X208092D01*
X207092Y112836D01*
Y110836D01*
X208092Y109837D01*
X213090Y118834D02*
X207092D01*
X210091Y115835D01*
Y119833D01*
X226870Y104331D02*
X220872D01*
Y107330D01*
X221872Y108329D01*
X223871D01*
X224871Y107330D01*
Y104331D01*
Y106330D02*
X226870Y108329D01*
Y114328D02*
Y110329D01*
X222871Y114328D01*
X221872D01*
X220872Y113328D01*
Y111328D01*
X221872Y110329D01*
X226870Y116327D02*
Y118326D01*
Y117326D01*
X220872D01*
X221872Y116327D01*
X201864Y155020D02*
X195866D01*
Y152021D01*
X196866Y151021D01*
X200865D01*
X201864Y152021D01*
Y155020D01*
X195866Y149022D02*
Y147022D01*
Y148022D01*
X201864D01*
X200865Y149022D01*
Y144023D02*
X201864Y143024D01*
Y141024D01*
X200865Y140024D01*
X196866D01*
X195866Y141024D01*
Y143024D01*
X196866Y144023D01*
X200865D01*
X237297Y154035D02*
X231299D01*
Y151036D01*
X232299Y150037D01*
X236298D01*
X237297Y151036D01*
Y154035D01*
X232299Y148037D02*
X231299Y147038D01*
Y145038D01*
X232299Y144039D01*
X236298D01*
X237297Y145038D01*
Y147038D01*
X236298Y148037D01*
X235298D01*
X234298Y147038D01*
Y144039D01*
X351378Y165847D02*
Y159848D01*
X348379D01*
X347379Y160848D01*
Y162847D01*
X348379Y163847D01*
X351378D01*
X349379D02*
X347379Y165847D01*
X341381Y159848D02*
X345380D01*
Y162847D01*
X343380Y161848D01*
X342381D01*
X341381Y162847D01*
Y164847D01*
X342381Y165847D01*
X344380D01*
X345380Y164847D01*
X335383Y159848D02*
X339382D01*
Y162847D01*
X337383Y161848D01*
X336383D01*
X335383Y162847D01*
Y164847D01*
X336383Y165847D01*
X338382D01*
X339382Y164847D01*
X337598Y177165D02*
X331600D01*
Y180164D01*
X332600Y181164D01*
X334599D01*
X335599Y180164D01*
Y177165D01*
Y179165D02*
X337598Y181164D01*
X332600Y183163D02*
X331600Y184163D01*
Y186162D01*
X332600Y187162D01*
X333600D01*
X334599Y186162D01*
Y185163D01*
Y186162D01*
X335599Y187162D01*
X336599D01*
X337598Y186162D01*
Y184163D01*
X336599Y183163D01*
X331600Y193160D02*
X332600Y191161D01*
X334599Y189162D01*
X336599D01*
X337598Y190161D01*
Y192160D01*
X336599Y193160D01*
X335599D01*
X334599Y192160D01*
Y189162D01*
X317913Y169291D02*
X311915D01*
Y172290D01*
X312915Y173290D01*
X314914D01*
X315914Y172290D01*
Y169291D01*
Y171291D02*
X317913Y173290D01*
X312915Y175289D02*
X311915Y176289D01*
Y178288D01*
X312915Y179288D01*
X313915D01*
X314914Y178288D01*
Y177289D01*
Y178288D01*
X315914Y179288D01*
X316914D01*
X317913Y178288D01*
Y176289D01*
X316914Y175289D01*
X311915Y185286D02*
Y181288D01*
X314914D01*
X313915Y183287D01*
Y184286D01*
X314914Y185286D01*
X316914D01*
X317913Y184286D01*
Y182287D01*
X316914Y181288D01*
X309055Y181102D02*
X303057D01*
Y184101D01*
X304057Y185101D01*
X306056D01*
X307056Y184101D01*
Y181102D01*
Y183102D02*
X309055Y185101D01*
X304057Y187100D02*
X303057Y188100D01*
Y190100D01*
X304057Y191099D01*
X305056D01*
X306056Y190100D01*
Y189100D01*
Y190100D01*
X307056Y191099D01*
X308055D01*
X309055Y190100D01*
Y188100D01*
X308055Y187100D01*
X309055Y197097D02*
Y193098D01*
X305056Y197097D01*
X304057D01*
X303057Y196098D01*
Y194098D01*
X304057Y193098D01*
X257874Y149606D02*
Y155604D01*
X260873D01*
X261873Y154605D01*
Y152605D01*
X260873Y151606D01*
X257874D01*
X259873D02*
X261873Y149606D01*
X263872Y154605D02*
X264872Y155604D01*
X266871D01*
X267871Y154605D01*
Y153605D01*
X266871Y152605D01*
X265871D01*
X266871D01*
X267871Y151606D01*
Y150606D01*
X266871Y149606D01*
X264872D01*
X263872Y150606D01*
X269870Y149606D02*
X271869D01*
X270870D01*
Y155604D01*
X269870Y154605D01*
X270085Y183071D02*
X275083D01*
X276083Y184071D01*
Y186070D01*
X275083Y187070D01*
X270085D01*
X276083Y189069D02*
Y191068D01*
Y190069D01*
X270085D01*
X271084Y189069D01*
X276083Y194067D02*
Y196067D01*
Y195067D01*
X270085D01*
X271084Y194067D01*
X361221Y156988D02*
X355222D01*
Y159987D01*
X356222Y160987D01*
X358222D01*
X359221Y159987D01*
Y156988D01*
Y158987D02*
X361221Y160987D01*
X355222Y166985D02*
Y162986D01*
X358222D01*
X357222Y164986D01*
Y165985D01*
X358222Y166985D01*
X360221D01*
X361221Y165985D01*
Y163986D01*
X360221Y162986D01*
Y168984D02*
X361221Y169984D01*
Y171983D01*
X360221Y172983D01*
X356222D01*
X355222Y171983D01*
Y169984D01*
X356222Y168984D01*
X357222D01*
X358222Y169984D01*
Y172983D01*
X386319Y428734D02*
Y422736D01*
X389318D01*
X390318Y423736D01*
Y427735D01*
X389318Y428734D01*
X386319D01*
X392317Y422736D02*
X394316D01*
X393317D01*
Y428734D01*
X392317Y427735D01*
X240065Y389764D02*
X246063D01*
Y392763D01*
X245063Y393762D01*
X241065D01*
X240065Y392763D01*
Y389764D01*
X241065Y395762D02*
X240065Y396761D01*
Y398761D01*
X241065Y399761D01*
X242064D01*
X243064Y398761D01*
Y397761D01*
Y398761D01*
X244064Y399761D01*
X245063D01*
X246063Y398761D01*
Y396761D01*
X245063Y395762D01*
X258274Y389272D02*
X264272D01*
Y392271D01*
X263272Y393270D01*
X259273D01*
X258274Y392271D01*
Y389272D01*
X264272Y398269D02*
X258274D01*
X261273Y395270D01*
Y399268D01*
X371808Y429978D02*
Y423980D01*
X374808D01*
X375807Y424979D01*
Y428978D01*
X374808Y429978D01*
X371808D01*
X381805Y423980D02*
X377806D01*
X381805Y427979D01*
Y428978D01*
X380805Y429978D01*
X378806D01*
X377806Y428978D01*
X235651Y408034D02*
X234651Y407034D01*
Y405035D01*
X235651Y404036D01*
X239650D01*
X240650Y405035D01*
Y407034D01*
X239650Y408034D01*
X240650Y413033D02*
X234651D01*
X237651Y410034D01*
Y414032D01*
X219411Y355219D02*
X218411Y354220D01*
Y352220D01*
X219411Y351220D01*
X223410D01*
X224410Y352220D01*
Y354220D01*
X223410Y355219D01*
X219411Y357219D02*
X218411Y358218D01*
Y360218D01*
X219411Y361217D01*
X220411D01*
X221410Y360218D01*
Y359218D01*
Y360218D01*
X222410Y361217D01*
X223410D01*
X224410Y360218D01*
Y358218D01*
X223410Y357219D01*
X351932Y442990D02*
X350932Y443990D01*
X348933D01*
X347933Y442990D01*
Y438992D01*
X348933Y437992D01*
X350932D01*
X351932Y438992D01*
X357930Y437992D02*
X353931D01*
X357930Y441991D01*
Y442990D01*
X356930Y443990D01*
X354931D01*
X353931Y442990D01*
X402129Y436593D02*
X401129Y437593D01*
X399130D01*
X398130Y436593D01*
Y432594D01*
X399130Y431595D01*
X401129D01*
X402129Y432594D01*
X404128Y431595D02*
X406127D01*
X405128D01*
Y437593D01*
X404128Y436593D01*
X363681Y379429D02*
Y385427D01*
X366680D01*
X367680Y384427D01*
Y382428D01*
X366680Y381429D01*
X363681D01*
X365681D02*
X367680Y379429D01*
X373678D02*
X369679D01*
X373678Y383428D01*
Y384427D01*
X372678Y385427D01*
X370679D01*
X369679Y384427D01*
X399652Y403017D02*
Y409015D01*
X402651D01*
X403651Y408016D01*
Y406016D01*
X402651Y405017D01*
X399652D01*
X401651D02*
X403651Y403017D01*
X405650D02*
X407649D01*
X406650D01*
Y409015D01*
X405650Y408016D01*
X257382Y344980D02*
X251384D01*
Y347979D01*
X252383Y348979D01*
X254383D01*
X255382Y347979D01*
Y344980D01*
Y346980D02*
X257382Y348979D01*
X251384Y350978D02*
Y354977D01*
X252383D01*
X256382Y350978D01*
X257382D01*
X429800Y324198D02*
Y319200D01*
X430800Y318200D01*
X432799D01*
X433799Y319200D01*
Y324198D01*
X435798Y318200D02*
X437797D01*
X436798D01*
Y324198D01*
X435798Y323198D01*
X444795Y318200D02*
X440796D01*
X444795Y322199D01*
Y323198D01*
X443795Y324198D01*
X441796D01*
X440796Y323198D01*
X290899Y148398D02*
X288899D01*
X289899D01*
Y143400D01*
X288899Y142400D01*
X287900D01*
X286900Y143400D01*
X296897Y148398D02*
X292898D01*
Y145399D01*
X294897Y146399D01*
X295897D01*
X296897Y145399D01*
Y143400D01*
X295897Y142400D01*
X293898D01*
X292898Y143400D01*
X243664Y151652D02*
X242664Y152652D01*
X240665D01*
X239665Y151652D01*
Y147653D01*
X240665Y146653D01*
X242664D01*
X243664Y147653D01*
X249662Y152652D02*
X247663Y151652D01*
X245663Y149653D01*
Y147653D01*
X246663Y146653D01*
X248662D01*
X249662Y147653D01*
Y148653D01*
X248662Y149653D01*
X245663D01*
X270669Y169691D02*
Y174689D01*
X269670Y175689D01*
X267670D01*
X266671Y174689D01*
Y169691D01*
X261672Y175689D02*
Y169691D01*
X264671Y172690D01*
X260672D01*
X410495Y456278D02*
X409495Y457278D01*
X407496D01*
X406496Y456278D01*
Y452279D01*
X407496Y451279D01*
X409495D01*
X410495Y452279D01*
X416493Y457278D02*
X412494D01*
Y454279D01*
X414494Y455278D01*
X415493D01*
X416493Y454279D01*
Y452279D01*
X415493Y451279D01*
X413494D01*
X412494Y452279D01*
X153543Y218012D02*
Y224010D01*
X156542D01*
X157542Y223010D01*
Y221011D01*
X156542Y220011D01*
X153543D01*
X155543D02*
X157542Y218012D01*
X159541Y223010D02*
X160541Y224010D01*
X162540D01*
X163540Y223010D01*
Y222010D01*
X162540Y221011D01*
X161541D01*
X162540D01*
X163540Y220011D01*
Y219011D01*
X162540Y218012D01*
X160541D01*
X159541Y219011D01*
X168538Y218012D02*
Y224010D01*
X165539Y221011D01*
X169538D01*
X153543Y226378D02*
Y232376D01*
X156542D01*
X157542Y231376D01*
Y229377D01*
X156542Y228377D01*
X153543D01*
X155543D02*
X157542Y226378D01*
X159541Y231376D02*
X160541Y232376D01*
X162540D01*
X163540Y231376D01*
Y230377D01*
X162540Y229377D01*
X161541D01*
X162540D01*
X163540Y228377D01*
Y227378D01*
X162540Y226378D01*
X160541D01*
X159541Y227378D01*
X165539Y232376D02*
X169538D01*
Y231376D01*
X165539Y227378D01*
Y226378D01*
X153051Y129921D02*
Y135919D01*
X156050D01*
X157050Y134920D01*
Y132920D01*
X156050Y131921D01*
X153051D01*
X155051D02*
X157050Y129921D01*
X159049Y134920D02*
X160049Y135919D01*
X162048D01*
X163048Y134920D01*
Y133920D01*
X162048Y132920D01*
X161049D01*
X162048D01*
X163048Y131921D01*
Y130921D01*
X162048Y129921D01*
X160049D01*
X159049Y130921D01*
X165047Y134920D02*
X166047Y135919D01*
X168046D01*
X169046Y134920D01*
Y133920D01*
X168046Y132920D01*
X169046Y131921D01*
Y130921D01*
X168046Y129921D01*
X166047D01*
X165047Y130921D01*
Y131921D01*
X166047Y132920D01*
X165047Y133920D01*
Y134920D01*
X166047Y132920D02*
X168046D01*
X153051Y139764D02*
Y145762D01*
X156050D01*
X157050Y144762D01*
Y142763D01*
X156050Y141763D01*
X153051D01*
X155051D02*
X157050Y139764D01*
X162048D02*
Y145762D01*
X159049Y142763D01*
X163048D01*
X165047Y144762D02*
X166047Y145762D01*
X168046D01*
X169046Y144762D01*
Y140763D01*
X168046Y139764D01*
X166047D01*
X165047Y140763D01*
Y144762D01*
X153051Y149606D02*
Y155604D01*
X156050D01*
X157050Y154605D01*
Y152605D01*
X156050Y151606D01*
X153051D01*
X155051D02*
X157050Y149606D01*
X162048D02*
Y155604D01*
X159049Y152605D01*
X163048D01*
X169046Y149606D02*
X165047D01*
X169046Y153605D01*
Y154605D01*
X168046Y155604D01*
X166047D01*
X165047Y154605D01*
X153051Y158957D02*
Y164955D01*
X156050D01*
X157050Y163955D01*
Y161956D01*
X156050Y160956D01*
X153051D01*
X155051D02*
X157050Y158957D01*
X162048D02*
Y164955D01*
X159049Y161956D01*
X163048D01*
X165047Y163955D02*
X166047Y164955D01*
X168046D01*
X169046Y163955D01*
Y162955D01*
X168046Y161956D01*
X167047D01*
X168046D01*
X169046Y160956D01*
Y159956D01*
X168046Y158957D01*
X166047D01*
X165047Y159956D01*
X153051Y169291D02*
Y175289D01*
X156050D01*
X157050Y174290D01*
Y172290D01*
X156050Y171291D01*
X153051D01*
X155051D02*
X157050Y169291D01*
X162048D02*
Y175289D01*
X159049Y172290D01*
X163048D01*
X168046Y169291D02*
Y175289D01*
X165047Y172290D01*
X169046D01*
X153051Y179022D02*
Y185020D01*
X156050D01*
X157050Y184020D01*
Y182021D01*
X156050Y181021D01*
X153051D01*
X155051D02*
X157050Y179022D01*
X162048D02*
Y185020D01*
X159049Y182021D01*
X163048D01*
X165047Y184020D02*
X166047Y185020D01*
X168046D01*
X169046Y184020D01*
Y183021D01*
X168046Y182021D01*
X169046Y181021D01*
Y180022D01*
X168046Y179022D01*
X166047D01*
X165047Y180022D01*
Y181021D01*
X166047Y182021D01*
X165047Y183021D01*
Y184020D01*
X166047Y182021D02*
X168046D01*
X153051Y198819D02*
Y204817D01*
X156050D01*
X157050Y203817D01*
Y201818D01*
X156050Y200818D01*
X153051D01*
X155051D02*
X157050Y198819D01*
X163048Y204817D02*
X159049D01*
Y201818D01*
X161049Y202818D01*
X162048D01*
X163048Y201818D01*
Y199819D01*
X162048Y198819D01*
X160049D01*
X159049Y199819D01*
X169046Y198819D02*
X165047D01*
X169046Y202818D01*
Y203817D01*
X168046Y204817D01*
X166047D01*
X165047Y203817D01*
X464567Y440453D02*
Y446451D01*
X467566D01*
X468566Y445451D01*
Y443452D01*
X467566Y442452D01*
X464567D01*
X466566D02*
X468566Y440453D01*
X470565D02*
X472564D01*
X471565D01*
Y446451D01*
X470565Y445451D01*
X475563D02*
X476563Y446451D01*
X478562D01*
X479562Y445451D01*
Y444452D01*
X478562Y443452D01*
X477563D01*
X478562D01*
X479562Y442452D01*
Y441452D01*
X478562Y440453D01*
X476563D01*
X475563Y441452D01*
X153051Y188976D02*
Y194974D01*
X156050D01*
X157050Y193975D01*
Y191975D01*
X156050Y190976D01*
X153051D01*
X155051D02*
X157050Y188976D01*
X163048Y194974D02*
X159049D01*
Y191975D01*
X161049Y192975D01*
X162048D01*
X163048Y191975D01*
Y189976D01*
X162048Y188976D01*
X160049D01*
X159049Y189976D01*
X165047Y193975D02*
X166047Y194974D01*
X168046D01*
X169046Y193975D01*
Y192975D01*
X168046Y191975D01*
X167047D01*
X168046D01*
X169046Y190976D01*
Y189976D01*
X168046Y188976D01*
X166047D01*
X165047Y189976D01*
X407972Y433071D02*
X413971D01*
Y430072D01*
X412971Y429072D01*
X410971D01*
X409972Y430072D01*
Y433071D01*
Y431072D02*
X407972Y429072D01*
Y427073D02*
Y425073D01*
Y426073D01*
X413971D01*
X412971Y427073D01*
X407972Y419075D02*
X413971D01*
X410971Y422074D01*
Y418076D01*
X153543Y208661D02*
Y214660D01*
X156542D01*
X157542Y213660D01*
Y211660D01*
X156542Y210661D01*
X153543D01*
X155543D02*
X157542Y208661D01*
X163540Y214660D02*
X159541D01*
Y211660D01*
X161541Y212660D01*
X162540D01*
X163540Y211660D01*
Y209661D01*
X162540Y208661D01*
X160541D01*
X159541Y209661D01*
X168538Y208661D02*
Y214660D01*
X165539Y211660D01*
X169538D01*
X167815Y271161D02*
Y277160D01*
X170814D01*
X171814Y276160D01*
Y274160D01*
X170814Y273161D01*
X167815D01*
X169814D02*
X171814Y271161D01*
X173813Y272161D02*
X174813Y271161D01*
X176812D01*
X177812Y272161D01*
Y276160D01*
X176812Y277160D01*
X174813D01*
X173813Y276160D01*
Y275160D01*
X174813Y274160D01*
X177812D01*
X192421Y231299D02*
X186423D01*
Y234298D01*
X187423Y235298D01*
X189422D01*
X190422Y234298D01*
Y231299D01*
Y233299D02*
X192421Y235298D01*
Y237297D02*
Y239297D01*
Y238297D01*
X186423D01*
X187423Y237297D01*
X186423Y246294D02*
Y242296D01*
X189422D01*
X188423Y244295D01*
Y245295D01*
X189422Y246294D01*
X191422D01*
X192421Y245295D01*
Y243295D01*
X191422Y242296D01*
X161417Y258858D02*
X155419D01*
Y261857D01*
X156419Y262857D01*
X158418D01*
X159418Y261857D01*
Y258858D01*
Y260858D02*
X161417Y262857D01*
Y264856D02*
Y266856D01*
Y265856D01*
X155419D01*
X156419Y264856D01*
X155419Y273853D02*
X156419Y271854D01*
X158418Y269855D01*
X160418D01*
X161417Y270854D01*
Y272854D01*
X160418Y273853D01*
X159418D01*
X158418Y272854D01*
Y269855D01*
X173721Y309055D02*
Y315053D01*
X176719D01*
X177719Y314054D01*
Y312054D01*
X176719Y311054D01*
X173721D01*
X175720D02*
X177719Y309055D01*
X179718D02*
X181718D01*
X180718D01*
Y315053D01*
X179718Y314054D01*
X188716Y309055D02*
X184717D01*
X188716Y313054D01*
Y314054D01*
X187716Y315053D01*
X185717D01*
X184717Y314054D01*
X140256Y282972D02*
Y288970D01*
X143255D01*
X144255Y287971D01*
Y285971D01*
X143255Y284972D01*
X140256D01*
X142255D02*
X144255Y282972D01*
X150253D02*
X146254D01*
X150253Y286971D01*
Y287971D01*
X149253Y288970D01*
X147254D01*
X146254Y287971D01*
X152252D02*
X153252Y288970D01*
X155251D01*
X156251Y287971D01*
Y286971D01*
X155251Y285971D01*
X154251D01*
X155251D01*
X156251Y284972D01*
Y283972D01*
X155251Y282972D01*
X153252D01*
X152252Y283972D01*
X412309Y395177D02*
X417307D01*
X418307Y396177D01*
Y398176D01*
X417307Y399176D01*
X412309D01*
Y405174D02*
Y401175D01*
X415308D01*
X414308Y403175D01*
Y404174D01*
X415308Y405174D01*
X417307D01*
X418307Y404174D01*
Y402175D01*
X417307Y401175D01*
X191929Y477362D02*
Y483360D01*
X194928D01*
X195928Y482361D01*
Y480361D01*
X194928Y479361D01*
X191929D01*
X201926Y477362D02*
X197927D01*
X201926Y481361D01*
Y482361D01*
X200926Y483360D01*
X198927D01*
X197927Y482361D01*
X91565Y393495D02*
X89566D01*
X90566D01*
Y388496D01*
X89566Y387496D01*
X88566D01*
X87567Y388496D01*
X93565Y387496D02*
X95564D01*
X94564D01*
Y393495D01*
X93565Y392495D01*
X91467Y325483D02*
X89468D01*
X90467D01*
Y320484D01*
X89468Y319485D01*
X88468D01*
X87468Y320484D01*
X93466Y324483D02*
X94466Y325483D01*
X96465D01*
X97465Y324483D01*
Y323483D01*
X96465Y322484D01*
X95465D01*
X96465D01*
X97465Y321484D01*
Y320484D01*
X96465Y319485D01*
X94466D01*
X93466Y320484D01*
X214967Y269193D02*
X220965D01*
X218965D01*
X214967Y273192D01*
X217966Y270193D01*
X220965Y273192D01*
Y278190D02*
Y276191D01*
X219965Y275191D01*
X217966D01*
X216966Y276191D01*
Y278190D01*
X217966Y279190D01*
X218965D01*
Y275191D01*
X216966Y281189D02*
X219965D01*
X220965Y282189D01*
Y285188D01*
X221964D01*
X222964Y284188D01*
Y283188D01*
X220965Y285188D02*
X216966D01*
X214967Y287187D02*
X220965D01*
Y290186D01*
X219965Y291186D01*
X218965D01*
X217966D01*
X216966Y290186D01*
Y287187D01*
X220965Y294185D02*
Y296184D01*
X219965Y297184D01*
X217966D01*
X216966Y296184D01*
Y294185D01*
X217966Y293185D01*
X219965D01*
X220965Y294185D01*
X216966Y300183D02*
Y302182D01*
X217966Y303182D01*
X220965D01*
Y300183D01*
X219965Y299183D01*
X218965Y300183D01*
Y303182D01*
X216966Y305181D02*
X220965D01*
X218965D01*
X217966Y306181D01*
X216966Y307181D01*
Y308180D01*
X214967Y315178D02*
X220965D01*
Y312179D01*
X219965Y311179D01*
X217966D01*
X216966Y312179D01*
Y315178D01*
X147638Y333169D02*
Y339167D01*
X149637Y337168D01*
X151637Y339167D01*
Y333169D01*
X154636D02*
X156635D01*
X157635Y334169D01*
Y336168D01*
X156635Y337168D01*
X154636D01*
X153636Y336168D01*
Y334169D01*
X154636Y333169D01*
X159634Y337168D02*
Y334169D01*
X160634Y333169D01*
X163633D01*
Y337168D01*
X165632Y333169D02*
X168631D01*
X169631Y334169D01*
X168631Y335169D01*
X166632D01*
X165632Y336168D01*
X166632Y337168D01*
X169631D01*
X174629Y333169D02*
X172630D01*
X171630Y334169D01*
Y336168D01*
X172630Y337168D01*
X174629D01*
X175629Y336168D01*
Y335169D01*
X171630D01*
X214440Y423870D02*
Y419871D01*
X216439Y421871D02*
X212441D01*
X230442Y364850D02*
Y368849D01*
X228443Y366850D02*
X232441D01*
X366449Y464694D02*
X362450D01*
X364450Y462695D02*
Y466693D01*
X377311Y441310D02*
X381310D01*
X379310Y443309D02*
Y439311D01*
D77*
X430020Y487008D02*
Y489764D01*
Y477559D02*
Y479528D01*
X436319Y472047D02*
X437500D01*
X451673D02*
X452854D01*
X459154Y477559D02*
Y479528D01*
Y487008D02*
Y489764D01*
X430020D02*
X459154D01*
X243264Y425785D02*
X250335Y432856D01*
X285690Y397501D01*
X243264Y425785D02*
X278619Y390430D01*
X285690Y397501D01*
X276870Y216339D02*
X399311D01*
X276870Y338780D02*
X399311D01*
X276870Y216339D02*
Y338780D01*
X399311Y216339D02*
Y338780D01*
X262697Y349114D02*
Y350689D01*
X259941Y349114D02*
Y350689D01*
X123760Y406752D02*
Y456752D01*
X103760Y406752D02*
Y456752D01*
Y406752D02*
X123760D01*
X103760Y456752D02*
X123760D01*
X154783Y422992D02*
X194783D01*
X154783Y442992D02*
X194783D01*
X154783Y422992D02*
Y442992D01*
X194783Y422992D02*
Y442992D01*
X468209Y448917D02*
X469783D01*
X468209Y451673D02*
X469783D01*
X410138Y435630D02*
X411713D01*
X410138Y438386D02*
X411713D01*
X238583Y378445D02*
Y385925D01*
X247638Y378445D02*
Y385925D01*
X238583D02*
X247638D01*
X240158Y361910D02*
X246063D01*
X238583Y363878D02*
Y370571D01*
X246063Y361910D02*
X247638Y363878D01*
X238583D02*
X240158Y361910D01*
X247638Y363878D02*
Y370571D01*
X256791Y378445D02*
Y385925D01*
X265846Y378445D02*
Y385925D01*
X256791D02*
X265846D01*
X258366Y361910D02*
X264272D01*
X256791Y363878D02*
Y370571D01*
X264272Y361910D02*
X265846Y363878D01*
X256791D02*
X258366Y361910D01*
X265846Y363878D02*
Y370571D01*
X182185Y297933D02*
Y299508D01*
X184941Y297933D02*
Y299508D01*
X151181Y294980D02*
Y296555D01*
X153937Y294980D02*
Y296555D01*
X165551Y310630D02*
X167126D01*
X165551Y313386D02*
X167126D01*
X156594Y251181D02*
Y252756D01*
X159350Y251181D02*
Y252756D01*
X188091Y252657D02*
Y254232D01*
X190846Y252657D02*
Y254232D01*
X171949Y265846D02*
X173524D01*
X171949Y268602D02*
X173524D01*
X371457Y411909D02*
Y419390D01*
X380512Y411909D02*
Y419390D01*
X371457D02*
X380512D01*
X373031Y395374D02*
X378937D01*
X371457Y397343D02*
Y404035D01*
X378937Y395374D02*
X380512Y397343D01*
X371457D02*
X373031Y395374D01*
X380512Y397343D02*
Y404035D01*
X244488Y349114D02*
Y350689D01*
X241732Y349114D02*
Y350689D01*
X332776Y453445D02*
Y455020D01*
X335532Y453445D02*
Y455020D01*
X325394Y453445D02*
Y455020D01*
X328150Y453445D02*
Y455020D01*
X265945Y158071D02*
X267520D01*
X265945Y160827D02*
X267520D01*
X450000Y412894D02*
Y454232D01*
X434252Y412894D02*
Y454232D01*
Y412894D02*
X450000D01*
X434252Y454232D02*
X450000D01*
X299213Y173130D02*
Y180217D01*
X279528Y173130D02*
Y180217D01*
X299213D01*
X279528Y173130D02*
X299213D01*
X246654Y169783D02*
Y189469D01*
X239567Y169783D02*
Y189469D01*
Y169783D02*
X246654D01*
X239567Y189469D02*
X246654D01*
X387598Y151181D02*
Y163780D01*
X374213D02*
X387598D01*
X374213Y147244D02*
Y163780D01*
Y147244D02*
X386811D01*
X387598Y148032D01*
Y151181D01*
X388484Y134252D02*
X390059D01*
X388484Y131496D02*
X390059D01*
X376181Y134252D02*
X377756D01*
X376181Y131496D02*
X377756D01*
X177362Y228313D02*
X178937D01*
X177362Y231069D02*
X178937D01*
X177362Y134120D02*
X178937D01*
X177362Y131365D02*
X178937D01*
X177362Y143963D02*
X178937D01*
X177362Y141207D02*
X178937D01*
X177362Y153806D02*
X178937D01*
X177362Y151050D02*
X178937D01*
X177362Y163648D02*
X178937D01*
X177362Y160892D02*
X178937D01*
X177362Y173491D02*
X178937D01*
X177362Y170735D02*
X178937D01*
X177362Y183333D02*
X178937D01*
X177362Y180577D02*
X178937D01*
X177362Y203018D02*
X178937D01*
X177362Y200262D02*
X178937D01*
X177362Y193307D02*
X178937D01*
X177362Y190551D02*
X178937D01*
X177362Y212992D02*
X178937D01*
X177362Y210236D02*
X178937D01*
X177362Y219947D02*
X178937D01*
X177362Y222703D02*
X178937D01*
X344390Y172441D02*
Y174016D01*
X341634Y172441D02*
Y174016D01*
X304232Y173425D02*
Y175000D01*
X306988Y173425D02*
Y175000D01*
X326870Y184252D02*
Y185827D01*
X329626Y184252D02*
Y185827D01*
X320965Y184252D02*
Y185827D01*
X323720Y184252D02*
Y185827D01*
X208760Y127165D02*
Y128740D01*
X211516Y127165D02*
Y128740D01*
X228445Y137008D02*
Y143701D01*
X219390Y137008D02*
X220965Y135039D01*
X226870D02*
X228445Y137008D01*
X219390D02*
Y143701D01*
X220965Y135039D02*
X226870D01*
X219390Y159055D02*
X228445D01*
Y151575D02*
Y159055D01*
X219390Y151575D02*
Y159055D01*
X222539Y126673D02*
Y128248D01*
X225295Y126673D02*
Y128248D01*
X214661Y137007D02*
Y143700D01*
X205606Y137007D02*
X207181Y135038D01*
X213086D02*
X214661Y137007D01*
X205606D02*
Y143700D01*
X207181Y135038D02*
X213086D01*
X205606Y159054D02*
X214661D01*
Y151574D02*
Y159054D01*
X205606Y151574D02*
Y159054D01*
X367323Y387894D02*
X368898D01*
X367323Y390650D02*
X368898D01*
X366535Y169980D02*
Y171555D01*
X363780Y169980D02*
Y171555D01*
X386713Y411909D02*
Y419390D01*
X395768Y411909D02*
Y419390D01*
X386713D02*
X395768D01*
X388287Y395374D02*
X394193D01*
X386713Y397342D02*
Y404036D01*
X394193Y395374D02*
X395768Y397342D01*
X386713D02*
X388287Y395374D01*
X395768Y397342D02*
Y404036D01*
X402756Y399016D02*
X404331D01*
X402756Y396260D02*
X404331D01*
X471654Y226280D02*
Y314075D01*
X437795Y226280D02*
Y314075D01*
Y226280D02*
X471654D01*
X437795Y314075D02*
X471654D01*
X212854Y485315D02*
X385354D01*
Y475315D02*
Y485315D01*
X205354Y475315D02*
X385354D01*
X205354D02*
Y485315D01*
X212854D01*
D78*
X101693Y126384D02*
X149055D01*
X101693Y247644D02*
X149055D01*
Y126384D02*
Y247644D01*
X110760Y457752D02*
Y459418D01*
Y458585D01*
X105762D01*
X106595Y457752D01*
Y461917D02*
X105762Y462750D01*
Y464417D01*
X106595Y465249D01*
X109927D01*
X110760Y464417D01*
Y462750D01*
X109927Y461917D01*
X106595D01*
X119927Y457752D02*
X120760Y458585D01*
Y460251D01*
X119927Y461084D01*
X116595D01*
X115761Y460251D01*
Y458585D01*
X116595Y457752D01*
X117428D01*
X118261Y458585D01*
Y461084D01*
X120760Y403752D02*
Y405418D01*
Y404585D01*
X115761D01*
X116595Y403752D01*
X110760Y405084D02*
Y401752D01*
X107428Y405084D01*
X106595D01*
X105762Y404251D01*
Y402585D01*
X106595Y401752D01*
X153116Y435992D02*
X149784D01*
X153116Y439324D01*
Y440157D01*
X152283Y440990D01*
X150617D01*
X149784Y440157D01*
X151784Y425992D02*
X153450D01*
X152617D01*
Y430991D01*
X151784Y430157D01*
X195783Y430991D02*
X199116D01*
Y430157D01*
X195783Y426825D01*
Y425992D01*
Y440157D02*
X196616Y440990D01*
X198283D01*
X199116Y440157D01*
Y439324D01*
X198283Y438491D01*
X199116Y437658D01*
Y436825D01*
X198283Y435992D01*
X196616D01*
X195783Y436825D01*
Y437658D01*
X196616Y438491D01*
X195783Y439324D01*
Y440157D01*
X196616Y438491D02*
X198283D01*
D79*
X311358Y136929D02*
D03*
M02*
