G04 Layer_Color=32896*
%FSLAX25Y25*%
%MOIN*%
G70*
G01*
G75*
%ADD76C,0.01000*%
%ADD77C,0.00787*%
%ADD78C,0.00800*%
D76*
X87106Y380906D02*
X136319D01*
X87106Y325787D02*
X136319D01*
X87008Y312894D02*
X136221D01*
X87008Y257776D02*
X136221D01*
D77*
X426870Y468110D02*
Y495669D01*
Y468110D02*
X462303D01*
Y495669D01*
X426870D02*
X462303D01*
X87106Y325787D02*
Y380906D01*
X87008Y257776D02*
Y312894D01*
D78*
X61508Y157014D02*
X61776Y156014D01*
X62508Y155282D01*
X63508Y155014D01*
Y219014D02*
X62508Y218746D01*
X61776Y218014D01*
X61508Y217014D01*
X86008Y152514D02*
X85818Y153471D01*
X85276Y154282D01*
X84465Y154824D01*
X83508Y155014D01*
Y219014D02*
X84465Y219204D01*
X85276Y219746D01*
X85818Y220557D01*
X86008Y221514D01*
X61508Y157014D02*
X61776Y156014D01*
X62508Y155282D01*
X63508Y155014D01*
Y219014D02*
X62508Y218746D01*
X61776Y218014D01*
X61508Y217014D01*
X86008Y152514D02*
X85818Y153471D01*
X85276Y154282D01*
X84465Y154824D01*
X83508Y155014D01*
Y219014D02*
X84465Y219204D01*
X85276Y219746D01*
X85818Y220557D01*
X86008Y221514D01*
X86063Y126384D02*
X101693D01*
X86063Y247644D02*
X101693D01*
X63508Y155014D02*
X83508D01*
X86063Y126384D02*
Y247644D01*
X63508Y219014D02*
X83508D01*
X61508Y157014D02*
Y217014D01*
X86063Y126384D02*
X101693D01*
X86063Y247644D02*
X101693D01*
X63508Y155014D02*
X83508D01*
X86063Y126384D02*
Y247644D01*
X63508Y219014D02*
X83508D01*
X61508Y157014D02*
Y217014D01*
M02*
